<svg width="14" height="8" viewBox="0 0 14 8" fill="none" xmlns="http://www.w3.org/2000/svg">
<path d="M7.51905 7.55153L13.169 1.89153C13.2628 1.79857 13.3372 1.68797 13.3879 1.56611C13.4387 1.44425 13.4648 1.31354 13.4648 1.18153C13.4648 1.04952 13.4387 0.918815 13.3879 0.796956C13.3372 0.675097 13.2628 0.564496 13.169 0.471533C12.9817 0.285282 12.7282 0.18074 12.464 0.18074C12.1999 0.18074 11.9464 0.285282 11.759 0.471533L6.75904 5.42153L1.80905 0.471532C1.62168 0.285281 1.36823 0.18074 1.10405 0.18074C0.83986 0.18074 0.586409 0.285281 0.399046 0.471532C0.304558 0.564147 0.229387 0.674592 0.177891 0.796467C0.126394 0.918342 0.099596 1.04923 0.0990467 1.18153C0.099596 1.31384 0.126394 1.44472 0.177891 1.5666C0.229387 1.68847 0.304558 1.79892 0.399046 1.89153L6.04904 7.55153C6.14269 7.65304 6.25634 7.73405 6.38284 7.78945C6.50934 7.84486 6.64594 7.87347 6.78405 7.87347C6.92215 7.87347 7.05875 7.84486 7.18525 7.78945C7.31175 7.73405 7.4254 7.65304 7.51905 7.55153Z" fill="#9B9B9B"/>
</svg>
