<svg width="617" height="187" viewBox="0 0 617 187" fill="none" xmlns="http://www.w3.org/2000/svg">
<g clip-path="url(#clip0_57_1691)">
<path d="M617.009 180.957C616.888 180.279 616.197 180.437 615.712 180.483C613.771 180.66 611.83 180.781 609.907 181.097C608.489 181.329 608.125 180.865 608.134 179.498C608.134 174.971 607.593 170.48 607.313 165.971C607.182 163.935 606.52 162.829 604.326 162.959C603.057 163.043 602.553 162.429 602.553 161.1C602.553 158.311 602.245 155.522 602.255 152.733C602.255 151.274 601.704 150.874 600.388 150.762C596.786 150.344 593.211 149.675 589.609 149.228C588.256 149.061 587.743 148.587 587.743 147.174C587.743 146.17 587.873 144.599 586.473 144.478C585.073 144.357 585.101 145.975 584.915 146.951C584.672 148.169 584.131 148.327 583.048 148.122C578.531 147.267 573.996 146.449 569.46 145.724C568.21 145.519 567.594 145.11 567.743 143.771C567.827 142.842 567.743 141.717 566.66 141.549C565.419 141.345 565.307 142.572 565.205 143.409C565.065 144.636 564.542 144.831 563.394 144.617C558.616 143.734 553.828 142.87 549.022 142.191C547.464 141.968 546.736 141.559 546.661 139.895C546.661 138.714 546.25 137.171 544.738 137.106C543.227 137.041 543.339 138.686 543.18 139.774C543.021 140.861 542.816 141.419 541.519 141.271C535.135 140.573 528.724 140.192 522.312 139.923C520.997 139.867 520.735 139.272 520.679 138.119C520.623 136.966 520.866 135.33 519.373 135.33C517.879 135.33 518.094 137.041 518.038 138.119C517.963 139.402 517.45 139.755 516.228 139.699C506.96 139.253 497.693 139.16 488.417 139.104C487.11 139.104 486.737 138.667 486.849 137.412C487.138 135.035 487.138 132.632 486.849 130.254C486.737 129.566 486.737 128.674 485.841 128.59C484.945 128.506 484.609 129.38 484.478 130.17C484.068 132.588 483.638 135.005 483.33 137.431C483.19 138.593 482.827 139.132 481.539 139.114C478.3 139.058 475.006 139.114 471.814 139.188C470.797 139.188 470.386 138.872 470.573 137.822C470.87 136.355 470.78 134.837 470.312 133.415C470.245 133.093 470.07 132.804 469.815 132.596C469.56 132.388 469.241 132.273 468.912 132.271C468.109 132.271 467.783 132.876 467.689 133.554C467.493 135.023 467.335 136.492 467.213 137.97C467.148 138.807 466.868 139.272 465.925 139.262C461.966 139.263 458.014 139.596 454.11 140.257C453.056 140.434 452.888 140.081 453.009 139.142C453.159 137.998 453.942 136.501 452.449 135.869C450.956 135.237 450.368 136.799 449.482 137.589C449.24 137.805 449.021 138.045 448.828 138.305C446.962 140.703 444.955 142.804 441.745 143.306C441.182 143.457 440.648 143.702 440.168 144.032C439.524 144.376 438.833 144.785 439.094 145.649C439.356 146.514 440.214 146.653 441.017 146.579C442.395 146.443 443.67 145.796 444.591 144.766C445.982 143.269 447.82 142.972 449.631 142.526C450.676 142.265 450.9 142.665 450.723 143.623C450.31 145.587 450.175 147.599 450.321 149.6C450.639 152.78 452.3 154.314 455.501 154.462L459.103 154.648C458.23 155.087 457.279 155.352 456.304 155.429C450.209 156.182 444.171 157.772 437.993 157.372C436.631 157.279 436.257 156.982 436.369 155.587C436.649 152.24 436.733 148.875 436.873 145.519C436.967 143.046 436.108 142.358 433.672 143.037C431.862 143.539 430.117 144.283 428.287 144.682C427.454 144.833 426.683 145.224 426.07 145.808C425.458 146.391 425.031 147.141 424.844 147.964C424.522 149.015 424.288 150.091 424.144 151.181C423.425 156.963 423.677 162.783 423.416 168.593C423.375 170.259 423.159 171.917 422.772 173.539C422.204 172.881 421.849 172.068 421.755 171.205C420.728 166.864 419.739 162.522 418.703 158.19C418.091 155.545 417.235 152.962 416.146 150.474C415.577 149.219 414.961 147.89 413.411 147.685C411.862 147.481 410.826 148.745 410.08 149.972C409.209 151.331 408.457 152.762 407.831 154.249C405.964 158.99 404.172 163.777 402.334 168.537C402.139 169.417 401.691 170.221 401.046 170.852C400.948 170.51 400.873 170.163 400.822 169.811C400.643 161.026 400.926 152.238 401.671 143.483C401.755 142.247 402.39 142.042 403.463 142.098C410.472 142.423 417.462 142.256 424.47 141.921C428.491 141.852 432.492 141.357 436.407 140.443C437.191 140.239 438.273 140.127 438.208 139.011C438.142 137.896 437.153 137.812 436.341 137.719C433.896 137.45 431.442 137.143 428.987 137.05C420.691 136.752 412.394 136.594 404.088 136.697C402.94 136.697 402.222 136.604 402.446 135.144C402.91 130.582 403.605 126.045 404.527 121.553C404.881 120.047 404.704 117.834 406.393 117.406C408.083 116.979 409.52 118.689 410.705 119.944C413.524 123.074 415.918 126.559 417.826 130.31C418.162 130.923 418.414 131.742 419.328 131.546C420.401 131.323 420.177 130.375 420.131 129.641C419.897 126.424 419.608 123.207 419.384 119.991C419.384 119.544 419.048 118.94 419.785 118.643C420.865 120.016 421.78 121.51 422.511 123.096C424.013 126.024 425.413 129.008 426.897 131.955C427.214 132.588 427.261 133.647 428.371 133.415C429.482 133.183 429.146 132.197 429.239 131.481C429.35 130.649 429.409 129.811 429.417 128.971C429.417 123.393 429.473 117.815 429.417 112.302C429.417 111.075 429.491 110.164 431.04 110.062C431.89 110.006 432.702 109.458 432.104 108.519C431.507 107.58 432.216 107.766 432.636 107.654C434.092 107.245 434.68 108.444 435.501 109.207C437.816 111.382 439.944 110.769 440.728 107.701C441.166 105.981 440.308 105.088 438.544 105.442C437.611 105.628 436.677 105.823 435.688 105.99C435.373 106.071 435.041 106.056 434.735 105.946C434.429 105.837 434.162 105.638 433.971 105.377C430.098 100.375 425.777 95.6803 423.593 89.5724C423.058 87.774 422.242 86.0705 421.176 84.5244C420.243 83.3531 419.365 83.2508 418.376 84.5244C415.688 87.7131 414.569 87.741 411.452 84.8405C407.429 81.1219 406.832 81.1219 403.435 85.4076C401.568 87.6945 401.176 87.6852 399.478 85.3611C399.03 84.7475 398.647 83.8829 397.714 84.0875C396.781 84.292 396.641 85.3053 396.594 86.1234C396.445 88.4383 396.249 90.7717 396.296 93.0865C396.352 96.173 394.905 98.1717 392.339 99.6778C390.836 100.607 388.951 101.156 388.606 103.313C388.606 103.564 388.027 103.787 387.672 103.926C384.873 105.014 382.689 106.92 380.318 108.575C379.889 108.872 379.385 109.132 379.516 109.774C379.646 110.415 380.244 110.703 380.804 110.759C382.213 110.973 383.603 111.103 385.05 111.28C386.496 111.456 388.251 110.815 389.175 111.726C390.099 112.637 389.473 114.515 389.567 116.002C389.959 122.324 390.248 128.646 390.677 134.958C390.78 136.427 390.397 136.957 388.942 136.883C387.719 136.808 386.478 136.883 385.209 136.883C383.939 136.883 383.613 137.329 383.613 138.5C383.613 152.445 383.258 166.39 383.753 180.335C383.753 181.543 383.678 182.045 382.315 182.12C369.885 182.78 357.463 183.644 344.985 183.421C341.14 183.356 341.084 183.309 341.131 179.544C341.43 158.795 342.998 138.128 345.088 117.49C345.144 116.951 345.088 116.319 345.788 115.882C345.965 116.681 346.161 117.425 346.283 118.178C347.813 127.623 348.55 137.152 349.381 146.672C349.652 149.768 349.885 152.854 350.146 155.968C350.212 156.74 350.193 157.725 351.192 157.781C352.19 157.837 352.181 156.759 352.358 156.061C352.583 155.118 352.751 154.161 352.862 153.198C354.673 138.528 356.455 123.839 358.312 109.17C358.716 105.197 359.447 101.263 360.496 97.4094C361.238 99.6676 361.69 102.01 361.84 104.382C363.912 122.873 364.817 141.466 366.133 160.012C366.562 166.074 367.066 172.098 367.598 178.168C367.663 178.847 367.374 179.935 368.531 179.953C369.885 179.953 369.465 178.782 369.567 178.094C369.773 176.43 369.875 174.747 369.969 173.074C370.668 160.059 370.976 147.127 371.294 134.149C371.959 106.836 372.426 79.5198 372.694 52.2003C372.759 45.1628 372.694 38.1161 372.694 31.0786C372.694 29.4238 372.33 27.9549 370.687 27.2019C363.874 24.0411 357.118 20.7408 349.829 18.7514C346.637 17.8868 346.647 17.8217 346.329 21.1685C345.685 27.927 345.051 34.6763 344.463 41.4256C344.502 41.9006 344.373 42.3741 344.098 42.7645C343.824 43.1549 343.422 43.4376 342.96 43.5638C338.238 45.1721 333.544 46.8548 328.7 48.0819C327.702 48.333 326.666 48.8071 325.658 48.491C324.305 48.0634 324.267 48.742 324.267 49.746C324.267 56.5883 324.267 63.4305 324.202 70.2821C324.053 93.666 323.891 117.047 323.717 140.425C323.617 153.861 323.49 167.298 323.334 180.734C323.334 181.367 323.633 182.38 322.522 182.343C320.768 182.287 318.948 182.78 317.287 181.859C317.193 181.803 317.287 181.376 317.287 181.125L317.455 125.504C317.455 113.362 317.455 101.212 317.529 89.0704C317.573 73.2477 317.644 57.4219 317.744 41.593C317.744 40.3658 317.287 39.8638 316.092 39.7337C314.03 39.4827 311.995 39.0829 309.942 38.804C306.825 38.3671 306.134 38.897 305.882 42.0485C305.741 44.563 305.809 47.0849 306.088 49.588C306.172 50.6571 306.47 51.8192 304.65 51.8657C303.157 51.8657 302.467 51.6239 302.401 49.9227C302.195 46.633 301.673 43.3705 300.843 40.1799C300.665 39.4269 300.525 38.5437 299.648 38.3206C297.332 37.8607 294.926 38.2573 292.882 39.4362C291.473 40.1334 291.818 41.6859 291.762 42.9224C290.932 61.8316 290.95 80.7593 291.258 99.6871C291.428 101.619 291.394 103.563 291.156 105.488C287.553 103.564 284.725 100.31 280.488 100.394C276.252 100.477 273.33 103.536 269.896 106.046C269.896 105.116 269.896 104.614 269.896 104.103C269.812 93.5699 269.765 83.0463 269.625 72.4947C269.485 61.7107 269.224 50.9267 269.084 40.1427C269.084 38.6367 268.543 38.0789 267.04 38.0789C265.356 38.0866 263.673 37.9873 262.001 37.7814C260.526 37.6047 260.05 38.2648 259.92 39.6407C259.696 41.9462 259.22 44.289 259.126 46.5573C259.033 48.8257 257.493 48.2214 256.243 48.4166C254.675 48.6211 254.833 47.552 254.805 46.5573C254.731 43.7684 254.6 40.9794 254.563 38.1904C254.563 36.861 254.096 36.3869 252.696 36.5449C249.019 36.9633 245.333 37.2236 241.656 37.5676C239.052 37.8186 239.043 37.8372 239.052 40.4867C239.108 61.6766 239.167 82.8634 239.229 104.047C239.285 122.399 239.348 140.744 239.416 159.083C239.416 165.934 239.416 172.777 239.519 179.628C239.519 182.12 237.652 180.939 236.579 181.162C235.3 181.432 234.946 180.781 234.965 179.526C235.188 157.307 234.787 135.088 234.451 112.87C234.022 83.9387 233.518 55.0079 232.977 26.077C232.865 19.3649 232.734 12.6497 232.585 5.93142C232.585 5.00177 232.678 3.78393 231.064 4.29524C225.464 6.06158 219.865 7.71636 214.61 10.1985C213.919 10.4825 213.313 10.94 212.852 11.5265C212.391 12.113 212.09 12.8085 211.979 13.5453C211.689 15.2094 211.344 16.8549 211.045 18.5096C210.751 15.8086 210.633 13.0914 210.691 10.3752C210.691 6.45203 210.691 6.49851 206.678 7.01912C205.474 7.17716 204.662 7.50254 204.755 8.87843C204.867 10.7377 204.065 10.4681 202.795 9.92894C196.776 7.36309 190.728 4.86233 184.672 2.38015C181.62 1.12512 181.611 1.153 181.573 4.52765C181.387 20.8028 181.203 37.0779 181.023 53.3531C180.749 78.4166 180.478 103.477 180.211 128.534C180.005 145.584 179.725 162.634 179.464 179.665C179.464 180.26 179.735 181.153 178.923 181.339C177.878 181.571 177.924 180.511 177.728 179.916C174.941 171.45 172.172 162.978 169.422 154.499C168.237 150.781 167.173 147.127 166.053 143.446C167.463 145.292 168.748 147.23 169.898 149.247C170.654 150.418 171.093 152.501 172.829 152.101C174.397 151.748 174.079 149.74 174.229 148.382C175.638 135.981 175.871 123.514 176.412 111.066C176.53 108.095 176.005 105.134 174.872 102.383C172.511 96.4333 169.814 90.6322 167.192 84.8033C166.035 82.2467 164.896 79.6809 163.748 77.1243C164.411 77.6646 164.947 78.3439 165.316 79.1138C167.5 83.2229 169.656 87.3506 171.849 91.4317C172.241 92.1662 172.502 93.4305 173.641 93.1423C174.779 92.8541 174.201 91.7013 174.229 90.9483C174.658 77.0035 175.05 63.0587 175.498 49.1139C175.54 47.9553 175.213 46.8132 174.565 45.8508C170.906 40.0497 167.285 34.2301 163.991 28.1874C163.154 26.8711 162.525 25.4353 162.124 23.9295C161.023 18.5561 159.903 13.1858 158.765 7.81862C158.289 5.54097 157.766 3.27262 157.215 1.01356C157.103 0.558026 157.085 -0.129918 156.347 -0.0462491C155.61 0.0374198 155.48 0.6138 155.508 1.25526C155.508 1.71079 155.508 2.18492 155.508 2.61256C155.601 9.12014 155.657 15.6277 155.825 22.1353C155.869 22.6675 155.778 23.2021 155.559 23.6897C155.34 24.1773 155.002 24.6019 154.574 24.9243C149.034 29.7165 143.948 35.0069 139.381 40.7284C138.013 42.3687 137.02 44.2864 136.472 46.348C135.924 48.4095 135.834 50.5653 136.208 52.6652C137.196 59.235 138.517 65.7508 140.165 72.1879C141.588 77.2383 141.877 82.5386 141.014 87.7131C140.445 90.6973 140.025 93.7094 139.334 96.6564C138.356 100.417 138.084 104.325 138.532 108.184C139.185 112.981 139.913 117.769 140.548 122.566C141.294 128.255 142.526 133.917 141.677 139.709C139.726 152.891 136.516 165.804 133.492 178.754C133.175 180.121 132.559 180.437 131.224 180.437C119.223 180.437 107.23 180.26 95.2382 179.842C90.9906 179.834 86.7491 179.523 82.546 178.912C83.0285 178.737 83.5353 178.636 84.0485 178.615L105.625 178.057C110.366 177.927 110.394 177.908 110.45 173.288C110.45 172.107 110.842 171.689 112.027 171.735C116.106 171.903 120.184 172.033 124.272 172.089C125.532 172.089 125.784 172.693 125.756 173.771C125.756 175.194 125.756 176.616 125.821 178.038C125.886 179.163 126.465 179.851 127.687 179.73C131.271 179.405 132.148 178.234 131.42 174.775C131.271 174.078 131.056 173.399 130.916 172.702C130.739 171.838 130.216 171.196 129.367 171.205C127.09 171.205 127.071 169.895 127.09 168.165C127.155 160.152 127.09 152.147 127.09 144.134C127.09 143.585 127.305 142.842 126.623 142.581C125.746 142.247 125.886 143.176 125.569 143.576C124.552 144.905 123.049 144.348 121.78 144.32C120.511 144.292 120.959 143.065 120.959 142.34C120.959 137.942 121.061 133.554 121.117 129.157C121.117 127.744 121.164 126.368 121.164 124.899C121.164 124.239 120.641 123.458 120.184 124.109C118.868 125.968 117.058 125.243 115.406 125.429C114.081 125.569 113.437 125.113 113.605 123.719C113.633 123.27 113.633 122.82 113.605 122.371C113.605 118.55 113.605 118.503 109.769 118.429C108.593 118.429 108.173 118.048 108.182 116.876C108.182 115.017 108.005 113.158 107.968 111.298C107.968 110.731 107.622 109.857 108.686 109.848C109.75 109.839 109.62 110.703 109.62 111.391C109.62 112.079 109.62 112.944 109.62 113.725C109.62 114.348 109.545 115.101 110.469 115.212C111.393 115.324 111.402 114.589 111.663 113.985C112.04 112.985 112.205 111.918 112.149 110.851C112.093 109.784 111.816 108.74 111.337 107.784C110.74 106.511 110.301 105.553 108.92 105.144C107.538 104.735 105.952 104.214 104.505 103.657C101.146 102.355 100.66 101.388 101.5 97.8835C101.817 96.563 101.948 95.2053 101.892 93.8488C101.892 93.3189 101.771 92.7797 101.062 92.7519C100.352 92.724 100.268 93.291 100.203 93.8023C100.072 94.732 99.9418 95.7267 99.8858 96.6843C99.6898 99.9474 98.5606 101.444 95.4155 102.439C93.8103 102.95 92.1585 103.313 90.544 103.815C89.8067 104.038 89.0508 104.373 88.9854 105.321C88.9201 106.269 89.6667 106.818 90.4973 107.087C91.6732 107.459 92.8771 107.756 94.0717 108.082C92.9651 108.479 91.8294 108.789 90.6746 109.012C89.2188 109.402 88.6308 110.611 89.6574 111.633C91.7945 113.781 89.9373 115.705 89.6574 117.713C89.6389 117.88 89.5591 118.034 89.4333 118.146C89.3074 118.257 89.1446 118.318 88.9761 118.317C86.9696 118.169 86.9696 119.582 87.0536 120.883C87.1376 122.185 86.2043 123.895 87.9122 124.211C89.3587 124.481 89.5081 122.584 89.8814 121.506C89.9839 120.945 90.3035 120.447 90.7712 120.118C91.239 119.789 91.8176 119.657 92.3825 119.749C95.8822 119.87 99.3819 119.749 102.882 119.851C107.818 119.954 106.615 119.145 107.118 123.97C107.249 125.243 106.82 125.671 105.523 125.652C98.5886 125.569 91.6452 125.745 84.7112 125.429C83.4979 125.373 82.6113 125.113 82.098 123.905C81.8367 123.291 81.4821 122.454 80.5768 122.715C79.6716 122.975 79.8582 123.849 79.8676 124.574C79.9236 128.293 79.9609 131.937 80.1009 135.618C80.1756 137.422 80.4275 139.216 80.6515 141.01C80.7355 141.652 80.9035 142.34 81.7434 142.405C82.5833 142.47 82.8353 141.819 83.078 141.224C83.7592 139.551 84.3845 137.859 85.0844 136.185C85.3432 135.217 85.8515 134.332 86.559 133.619C87.6322 135.739 87.8562 137.952 88.6401 139.978C89.732 142.767 90.8426 143.028 92.8771 140.806C94.6689 138.853 96.2928 136.725 98.4766 135.228C100.259 134.019 101.062 134.187 102.023 136.064C102.9 137.784 103.591 139.606 104.412 141.354C104.944 142.488 105.551 143.604 107.156 143.269C107.501 143.195 107.8 143.269 107.856 143.706C107.912 144.143 107.856 144.515 107.342 144.636C106.895 144.703 106.442 144.727 105.989 144.71C98.0131 144.605 90.0369 144.503 82.0607 144.403C79.9516 144.403 77.8798 144.403 76.8065 142.033C76.6884 141.722 76.4558 141.467 76.156 141.32C75.8561 141.173 75.5115 141.146 75.192 141.243C74.3987 141.503 74.4361 142.172 74.4081 142.86C74.0348 150.53 73.5588 158.209 74.1281 165.897C74.1421 166.535 74.2717 167.165 74.5107 167.756C74.996 168.751 75.7613 168.9 76.3772 167.924C76.7565 167.32 77.0486 166.666 77.2451 165.981C78.1784 163.09 78.9623 160.161 79.9049 157.279C80.2689 156.154 80.4742 154.881 81.6221 154.063C82.5 155.369 83.1002 156.84 83.3859 158.385C84.2072 161.444 84.9351 164.521 85.7844 167.57C86.0737 168.602 86.447 169.783 87.7909 169.913C89.1348 170.043 89.5547 168.984 90.0307 168.054C91.4679 165.376 92.8304 162.662 94.2676 159.984C95.2053 158.066 96.3913 156.278 97.7953 154.667C99.4192 152.956 100.362 153.012 101.594 154.983C102.583 156.573 103.46 158.246 104.3 159.901C105.775 162.69 106.596 165.804 108.5 168.398C109.368 169.579 108.808 170.424 107.305 170.443C101.342 170.517 95.3782 170.517 89.4147 170.62C83.8152 170.722 78.2157 170.806 72.7002 171.28C70.6844 171.456 70.0498 172.535 70.0405 174.357C70.0311 176.179 70.8057 177.583 71.375 179.321L59.868 178.466C59.2334 178.466 59.2147 177.973 59.2894 177.481C59.9893 172.498 59.2894 167.552 58.9254 162.606C58.7765 160.74 59.0278 158.864 59.6627 157.103C60.9972 153.468 62.2385 149.795 63.5077 146.133C63.7223 145.519 63.881 144.831 63.2277 144.366C62.5744 143.901 62.0145 144.459 61.5199 144.831C60.4948 145.719 59.4199 146.547 58.3002 147.313C57.0496 148.048 56.3403 147.555 56.4896 146.188C56.7929 142.785 56.771 139.361 56.4243 135.962C56.266 134.222 56.6681 132.477 57.5722 130.979C58.7015 129.018 59.7467 127.01 60.8013 125.011C61.0999 124.444 61.3799 123.784 60.8013 123.235C60.2226 122.687 59.4574 123.049 58.9348 123.505C58.0855 124.202 57.2736 124.946 56.4523 125.68C56.2599 125.903 56.0063 126.065 55.7228 126.146C55.4392 126.227 55.1381 126.223 54.8565 126.136C54.2685 125.894 54.4085 125.206 54.3805 124.76C54.2219 122.315 54.1845 119.851 53.9512 117.406C53.6184 114.776 54.0559 112.106 55.2111 109.718C56.0311 107.908 56.7264 106.044 57.2922 104.14C57.5349 103.424 57.8522 102.541 57.0496 101.993C56.247 101.444 55.5004 102.169 54.8471 102.671C53.7086 103.545 52.9806 104.912 51.4781 105.628C51.3941 104.428 51.4221 103.387 51.2541 102.383C50.8955 100.804 50.9156 99.1627 51.3129 97.5927C51.7101 96.0226 52.4733 94.568 53.5406 93.3468C54.0413 92.6741 54.4464 91.9359 54.7445 91.1529C55.0618 90.4649 55.1831 89.7119 54.4365 89.2378C53.5032 88.6893 53.1393 89.4702 52.766 90.0466C52.206 90.9111 51.7861 91.9059 51.1981 92.724C50.6102 93.5421 49.5743 93.9976 48.837 92.9285C47.3065 90.7252 45.104 89.3958 42.9202 87.9827C41.2217 86.8671 39.4392 85.8724 37.61 84.7661C38.1979 84.3781 38.9111 84.2254 39.6071 84.3385C42.4069 84.1525 45.3 83.9759 48.1557 83.8643C48.7064 83.9006 49.2544 83.7628 49.7219 83.4707C50.1894 83.1786 50.5525 82.747 50.7595 82.2374C52.056 79.064 52.9617 75.7458 53.4566 72.3552C53.5592 71.7882 53.6152 71.1095 52.9153 70.8585C52.6279 70.7884 52.3253 70.8141 52.0539 70.9316C51.7826 71.0491 51.5573 71.2521 51.4128 71.5093C50.3115 72.8665 49.2383 74.2424 48.1557 75.609C47.8384 76.0088 47.5958 76.6038 46.9892 76.5387C45.2283 76.3344 43.4986 75.9192 41.8376 75.3022C43.0882 74.9954 43.8908 74.7444 44.712 74.6143C45.663 74.5512 46.5553 74.1335 47.2108 73.4443C47.8663 72.7551 48.2371 71.845 48.249 70.8957C48.473 68.711 48.9023 66.5542 49.0983 64.3881C49.1823 63.4584 49.8542 61.9338 48.781 61.5991C47.3438 61.1436 47.2971 62.8913 46.9145 63.7838C45.5426 66.6286 45.4213 66.7215 42.1269 65.5595C43.0602 65.3642 43.8441 65.1876 44.6 65.0481C45.1227 64.9552 45.7386 64.8622 45.7853 64.2486C45.9346 62.0639 46.2799 59.8328 45.5799 57.7411C45.328 56.9601 45.216 56.672 45.7853 56.0305C46.6159 55.1008 46.1866 52.5071 45.16 51.9958C43.7508 51.28 43.7974 52.9255 43.0788 53.4089C42.8876 53.4677 42.6904 53.5051 42.4909 53.5204C42.3882 51.1219 42.2203 48.7234 40.3258 46.9199C39.2196 45.8014 38.5567 44.3222 38.4593 42.755C38.1014 40.4573 37.9205 38.1357 37.918 35.8105C37.9646 34.4625 37.918 33.0959 37.918 31.7479C37.918 31.2366 37.918 30.6602 37.19 30.6045C36.2568 30.5394 36.3314 31.2459 36.3314 31.7944C36.3314 33.0866 36.3314 34.3788 36.4061 35.6711C36.5399 38.1233 36.4775 40.5823 36.2194 43.0246C36.0701 44.1774 35.6875 45.0327 34.2876 44.8839C33.0277 44.7538 32.4211 45.5905 31.9078 46.5294C30.9566 48.3688 30.1787 50.2922 29.584 52.2747C29.2947 53.2044 28.9028 53.6041 27.9135 53.2787C26.439 52.786 26.103 53.5483 26.1497 54.8591C26.2523 57.3692 26.2617 59.8886 26.3456 62.4079C26.3456 63.8861 25.879 64.2672 24.5351 63.5328C24.0032 63.2446 23.3592 62.724 22.7526 63.2911C22.146 63.8582 22.6313 64.5089 22.7526 65.1504C23.1446 67.6884 24.0032 70.1798 23.7792 72.7922C23.7792 73.2756 23.8445 73.9357 23.2753 74.1588C22.706 74.3819 22.566 73.7311 22.258 73.4522C21.95 73.1733 21.7074 72.8386 21.2594 73.0339C20.8115 73.2291 20.8208 73.7776 20.9141 74.2145C21.1008 75.0977 21.3434 75.9716 21.5301 76.8548C22.118 79.7088 22.7433 82.5535 22.2953 85.4912C22.2393 85.9189 22.1274 86.5232 21.8381 86.6905C21.2781 87.0252 20.9701 86.3465 20.5688 86.0769C19.9249 85.6493 19.4956 84.3478 18.5717 85.045C17.6478 85.7423 18.6463 86.5789 18.889 87.3227C19.7102 89.9071 20.6155 92.4637 21.4834 95.0388C22.2781 97.7061 22.6774 100.475 22.6686 103.257C22.6686 104.651 22.51 105.572 20.8021 104.521C19.8895 104.037 18.9295 103.648 17.9371 103.359C17.1998 103.099 16.3879 102.829 15.7533 103.508C15.1186 104.187 15.324 105.088 15.6226 105.888C16.3234 107.837 17.2974 109.677 18.5157 111.354C21.6421 115.519 21.1848 120.074 20.3262 124.732C20.1395 125.773 19.7009 125.903 18.9263 125.29C17.7504 124.36 16.6118 123.43 15.4173 122.501C14.7267 121.999 14.0267 121.013 13.0562 121.683C12.0856 122.352 12.6362 123.486 12.9722 124.323C13.9894 126.833 15.1186 129.306 16.1919 131.76C16.6522 132.628 16.9436 133.574 17.0505 134.549C17.2278 138.361 17.0505 142.163 16.8732 145.975C16.8078 147.23 16.3132 147.22 15.4266 146.644C13.9676 145.633 12.5971 144.501 11.3296 143.26C10.8537 142.823 10.3964 142.219 9.66846 142.619C8.94053 143.018 9.26716 143.874 9.43515 144.478C9.6047 145.235 9.85175 145.974 10.1724 146.681C12.809 152.173 13.7819 158.311 12.9722 164.345C12.4402 168.677 12.4495 173.167 14.1201 177.36C14.7267 178.903 14.1854 178.959 12.9815 178.894C9.09295 178.689 5.20752 178.5 1.3252 178.327C0.765248 178.327 0.0279794 178.122 -0.0466807 178.959C-0.121341 179.795 0.597261 179.647 1.08255 179.684C5.92612 180.046 10.779 180.344 15.6506 180.297C16.0404 180.311 16.4285 180.241 16.7892 180.093C17.6198 179.702 17.8997 179.024 16.9945 178.522C15.128 177.481 14.9133 175.649 14.6427 173.873C14.0613 169.838 14.0111 165.744 14.4934 161.695C15.0742 157.588 14.4857 153.4 12.7949 149.61C12.0732 148.331 11.649 146.908 11.5536 145.445C12.3282 146.021 12.8788 146.458 13.4201 146.858C14.0454 147.318 14.7001 147.737 15.38 148.113C17.2465 149.042 18.049 148.568 18.1797 146.57C18.329 144.115 18.3664 141.661 18.5437 139.216C18.8996 135.396 18.0932 131.557 16.2292 128.2C15.4867 126.706 14.8202 125.177 14.2321 123.616C15.2563 124.033 16.1768 124.668 16.9292 125.476C20.2795 128.079 21.1474 127.707 21.9127 123.616C22.846 118.643 22.4727 114.004 19.3369 109.783C18.5553 108.604 17.8778 107.36 17.3118 106.064C17.0971 105.637 16.6305 105.135 17.1065 104.661C17.5824 104.187 18.0397 104.661 18.3664 104.828C19.6162 105.359 20.8373 105.955 22.0247 106.613C23.3966 107.403 23.8912 106.957 23.9659 105.516C24.2769 101.839 23.9068 98.1363 22.874 94.5926C22.2487 92.631 21.6327 90.6601 21.0075 88.5405C22.874 88.838 23.3126 87.7038 23.6019 86.3465C24.0589 83.5361 23.9478 80.6631 23.2753 77.896C23.1726 77.3103 22.6406 76.4643 23.2753 76.0924C25.7017 74.763 25.2724 72.5412 25.1418 70.5145C25.0204 68.7482 24.6378 66.9911 24.3392 65.0853C24.8058 65.2062 25.0578 65.2434 25.2724 65.327C27.4469 66.1451 27.4656 66.1451 27.6895 63.8303C27.9042 61.2534 27.9042 58.6632 27.6895 56.0863C27.6335 55.1566 27.6895 54.4966 28.8934 54.8127C29.9573 55.0823 30.368 54.5245 30.6853 53.5855C31.3852 51.5681 32.1691 49.588 32.9811 47.6171C33.2704 46.9199 33.6157 46.1297 34.6049 46.1948C35.1066 46.2174 35.6072 46.1319 36.0727 45.9442C36.5381 45.7565 36.9575 45.471 37.302 45.1071C39.4578 47.738 41.2963 50.341 41.371 53.9202C41.371 55.4355 41.063 55.5564 39.8965 55.4169C38.3036 55.0943 36.6755 54.9787 35.0529 55.073C34.2969 55.1752 33.0931 54.9242 33.0931 56.1235C33.0931 57.3227 34.2689 57.0531 35.0529 57.0531C36.6021 57.0531 38.1606 56.9323 39.7191 56.9416C43.6668 56.9416 44.656 58.0478 44.6187 61.9152C44.6187 63.1424 44.1987 63.6258 43.0135 63.7745C39.6818 64.2858 36.3874 64.9924 33.0184 65.2713C32.4584 65.327 31.5345 65.2155 31.7025 66.2009C31.8705 67.1863 32.6918 66.9075 33.2797 66.7773C36.0795 66.1637 38.8139 66.6936 41.5856 67.019C43.4521 67.2421 45.4493 68.023 47.5118 66.6193C47.3158 67.958 47.0918 68.962 47.0265 69.9846C46.9052 71.8439 45.9626 72.7271 44.0868 73.1733C39.9402 74.2493 35.6237 74.5145 31.3759 73.9542C30.2746 73.7962 28.4361 73.5173 28.3895 75.1349C28.3428 76.7525 30.256 76.3899 31.1892 76.2598C36.4528 75.516 41.511 76.6874 46.5692 77.7844C47.053 77.9447 47.5782 77.929 48.0515 77.7401C48.5247 77.5512 48.9155 77.2012 49.1543 76.7525C49.7586 75.5584 50.6659 74.5425 51.7861 73.8055C51.3443 76.048 50.7551 78.2591 50.0222 80.4246C49.9023 81.0239 49.5623 81.5571 49.0687 81.9198C48.575 82.2826 47.9633 82.4489 47.3531 82.3862C41.7536 82.3304 36.1541 83.7993 30.5546 82.1538C29.8453 81.94 28.8561 82.0143 28.6881 83.0834C28.5201 84.1525 29.5187 84.1804 30.284 84.3013C31.6745 84.5244 33.0837 84.2176 34.4929 84.8591C38.3838 86.6298 42.0726 88.8115 45.496 91.3667C46.0652 91.8129 46.8212 92.1755 46.9985 93.0307C46.1889 93.3404 45.3049 93.4019 44.46 93.2074C39.6071 92.9936 34.7542 92.4637 29.9013 93.1423C28.9028 93.2817 27.2229 93.0679 27.4096 94.574C27.5589 95.7918 29.1361 95.3921 30.088 95.3642C36.1168 95.2154 42.1363 94.9644 48.1651 94.7971C50.4329 94.7413 50.4048 94.7971 49.8356 96.8795C49.7019 97.4425 49.6516 98.0219 49.6863 98.5994C49.7702 100.282 49.8449 101.955 50.0222 103.629C50.1995 105.302 49.7423 105.795 48.0251 105.674C43.9541 105.318 39.8655 105.203 35.7808 105.33C33.4433 105.337 31.1217 105.713 28.9028 106.446C28.2308 106.687 27.4749 107.022 27.5682 107.887C27.6615 108.751 28.4455 108.9 29.1734 109.002C29.56 109.057 29.9496 109.088 30.34 109.095C36.6943 109.26 43.052 108.949 49.3596 108.166C49.916 108.03 50.4593 107.847 50.9835 107.617C52.9153 107.069 53.8952 105.284 55.4911 104.122C55.552 104.32 55.5834 104.527 55.5844 104.735C55.5337 105.057 55.4362 105.37 55.2951 105.665C52.3367 110.927 52.1127 116.579 52.878 122.399C52.9713 123.096 52.878 123.83 52.99 124.518C53.2139 125.801 52.7193 126.071 51.5061 125.959C47.9504 125.652 44.3947 125.438 40.8297 125.234C37.1425 124.906 33.4266 125.134 29.808 125.913C28.5575 126.219 26.6723 126.377 26.7469 128.051C26.8216 129.724 28.7348 129.557 30.0133 129.668C37.6007 130.31 45.1693 129.548 52.738 129.204C53.0553 129.204 53.5499 129.204 53.6712 128.99C54.7538 127.13 57.4042 127.828 58.5615 125.978C58.1646 127.206 57.6027 128.376 56.891 129.455C55.4382 131.616 54.8276 134.23 55.1738 136.808C55.5036 139.635 55.5536 142.487 55.3231 145.324C55.1738 146.997 54.6231 147.639 52.8033 147.527C46.0738 147.039 39.3225 146.918 32.5798 147.165C30.9566 147.162 29.3487 147.477 27.8482 148.094C27.5975 148.174 27.3781 148.329 27.2207 148.54C27.0634 148.75 26.9761 149.003 26.9709 149.266C26.9635 149.562 27.0659 149.851 27.2587 150.078C27.4515 150.304 27.7211 150.452 28.0162 150.493C29.0307 150.698 30.0611 150.816 31.0959 150.846C39.0285 150.846 46.8772 149.795 54.7538 149.145C57.1896 148.94 59.7094 149.145 61.4825 146.793C61.5945 146.923 61.7159 147.044 61.8278 147.165C60.7826 150.112 59.8027 153.096 58.6641 156.006C57.7956 158.302 57.4761 160.769 57.7309 163.21C58.1774 167.322 58.3582 171.458 58.2722 175.593C58.2255 176.579 58.2255 177.592 56.8163 177.667C54.8098 177.769 52.8406 178.187 50.8155 178.122C43.2282 177.88 35.6502 177.527 28.0722 178.122C26.655 178.256 25.2467 178.471 23.8539 178.763C23.7075 178.775 23.5652 178.817 23.4365 178.888C23.3078 178.958 23.1956 179.055 23.1073 179.172C23.0191 179.289 22.9568 179.423 22.9246 179.566C22.8924 179.709 22.8911 179.857 22.9206 180C23.0139 180.66 23.5086 180.809 24.0405 180.874C24.8103 180.984 25.5866 181.043 26.3643 181.05C30.5733 180.911 34.7636 180.93 38.9912 180.53C49.9587 179.348 61.0292 179.489 71.9629 180.948C72.3456 181.004 72.7375 181.032 73.1202 181.05C73.6615 181.05 74.1934 181.05 74.4454 180.465C74.6974 179.879 74.2961 179.535 73.8574 179.219C72.7884 178.353 72.0774 177.125 71.8603 175.77C71.2723 173.306 71.6643 172.767 74.1468 172.6C85.2151 171.865 96.3021 171.875 107.389 171.819C109.442 171.819 109.144 173 109.172 174.19C109.2 175.38 109.629 176.7 107.576 176.7C104.011 176.7 100.446 176.876 96.8807 176.951C90.8426 177.081 84.7485 177.044 78.7663 177.667C77.9451 177.759 76.6852 177.564 76.6945 178.866C76.7038 180.167 77.9358 180.019 78.7757 180.149C80.5675 180.428 82.378 180.651 84.1792 180.762C100.175 181.766 116.19 181.794 132.204 181.952C133.856 181.952 134.444 181.394 134.799 179.888C136.973 170.648 139.213 161.416 141.033 152.101C142.489 144.664 144.29 137.319 143.049 129.659C142.274 124.806 141.658 119.935 140.902 115.091C139.885 108.584 139.288 102.076 141.089 95.5129C143.599 86.5638 143.505 77.0884 140.818 68.1904C139.099 62.3594 138.001 56.3641 137.542 50.3038C137.317 47.7111 138.058 45.1264 139.624 43.0432C144.021 37.1953 149.005 31.8095 154.5 26.9695C154.817 26.6813 155.134 26.1514 155.601 26.328C156.226 26.5605 155.937 27.2577 155.946 27.6946C156.015 33.5081 156.068 39.3215 156.105 45.1349C156.105 45.6463 156.105 46.1669 156.161 46.6782C156.161 46.8418 156.225 46.9988 156.341 47.1154C156.456 47.2319 156.613 47.2986 156.777 47.301C157.271 47.301 157.477 47.05 157.505 46.6038C157.533 46.1576 157.505 45.8322 157.505 45.4417C157.505 36.4706 157.617 27.4994 157.178 18.5282C157.01 15.2373 157.178 11.937 157.178 8.64601C158.042 10.9469 158.668 13.33 159.045 15.7579C159.972 22.8221 162.528 29.577 166.511 35.4944C168.872 38.962 170.897 42.6621 173.146 46.2041C173.817 47.2257 174.144 48.4338 174.079 49.6531C173.697 61.5898 173.389 73.5359 173.015 85.482C173.112 86.9371 172.947 88.3977 172.53 89.7955C170.337 85.64 168.349 81.8098 166.324 78.0075C163.711 73.099 161.079 68.2028 158.429 63.319C158.102 62.7054 157.682 61.9152 156.805 62.3893C155.928 62.8635 156.497 63.5514 156.711 64.1092C157.813 66.8982 158.905 69.6313 160.071 72.3645C164.523 82.8324 169.656 92.9935 173.79 103.592C174.556 105.241 174.975 107.028 175.022 108.844C174.676 120.27 174.275 131.695 173.37 143.093C173.307 145.409 172.994 147.713 172.437 149.963C171.503 149.591 171.279 148.782 170.906 148.103C169.376 145.482 167.92 142.814 166.371 140.192C166.007 139.569 165.605 138.64 164.625 139.067C163.645 139.495 163.963 140.397 164.121 141.122C164.513 142.888 164.943 144.645 165.456 146.384C168.732 157.474 172.381 168.435 176.058 179.405C176.767 181.497 176.758 181.506 174.49 181.394C171.055 181.227 167.63 181.032 164.224 180.911C159.951 180.617 155.662 180.638 151.392 180.976C150.664 181.06 149.432 180.911 149.525 182.12C149.591 183.114 150.636 183.049 151.392 183.049C160.006 183.635 168.629 183.384 177.252 183.309C180.276 183.309 180.873 182.482 180.92 179.451C181.107 168.537 181.321 157.623 181.452 146.709C181.887 109.765 182.307 72.8201 182.712 35.8756C182.833 25.6494 182.898 15.3395 183.001 5.06685C183.001 4.1372 182.684 2.91935 184.448 3.64448C190.738 6.21962 197.075 8.70179 203.271 11.5093C203.66 11.6257 203.992 11.8781 204.209 12.2198C204.425 12.5615 204.509 12.9696 204.447 13.3687C203.893 20.8431 203.383 28.3206 202.917 35.8012C202.254 46.8827 201.601 57.9735 201.89 69.0921C201.89 69.8731 201.619 71.0723 202.739 71.1839C203.859 71.2954 203.738 70.0869 203.906 69.3246C204.018 68.8213 204.102 68.3123 204.158 67.7999C206.024 50.1365 207.154 32.5288 208.078 14.8096C208.143 13.4802 208.208 12.2531 206.715 11.5186C205.632 10.9887 206.183 9.91034 206.23 9.06435C206.276 8.21837 207.079 8.28344 207.704 8.1347C209.571 7.74424 209.309 9.06436 209.309 10.1149C209.309 26.1359 209.309 42.157 209.309 58.178C209.309 58.7823 208.871 59.8514 209.981 59.8607C211.092 59.87 210.691 58.8195 210.691 58.2059C210.691 51.6146 210.821 45.0327 211.129 38.4507C211.369 30.5719 212.029 22.7114 213.108 14.9026C213.2 13.9465 213.568 13.0374 214.167 12.2851C214.767 11.5328 215.572 10.9696 216.486 10.6634C220.76 8.9342 225.128 7.50253 229.496 6.01509C231.017 5.50378 231.231 6.01509 231.25 7.37239C231.25 12.0207 231.437 16.6689 231.521 21.3172C232 48.5003 232.473 75.6865 232.939 102.876C233.207 119.535 233.418 136.198 233.574 152.863C233.667 161.518 233.574 170.173 233.686 178.829C233.686 180.428 233.247 181.023 231.474 181.032C223.06 181.001 214.651 181.392 206.276 182.203C204.541 182.389 202.823 182.77 201.115 183.133C200.816 183.159 200.538 183.299 200.34 183.524C200.142 183.749 200.038 184.042 200.052 184.341C200.098 185.104 200.742 185.197 201.33 185.271C202.17 185.355 203.01 185.457 203.85 185.466C213.453 185.559 223.028 185.001 232.603 184.295C233.602 184.221 234.722 184.295 235.058 182.9C235.207 182.268 235.898 182.408 236.392 182.389C237.3 182.338 238.21 182.338 239.117 182.389C240.564 182.501 240.984 181.887 240.984 180.465C240.9 175.045 240.9 169.616 240.891 164.187C240.816 131.692 240.744 99.2006 240.676 66.7122C240.676 58.0571 240.573 49.4021 240.508 40.747C240.508 39.7522 240.387 38.8226 241.88 38.7296C245.184 38.5158 248.469 38.1904 251.763 37.8C252.855 37.6884 253.284 38.0045 253.284 39.1387C253.284 41.2676 253.34 43.3965 253.452 45.5254C253.536 47.0872 253.928 48.7234 251.436 48.5933C251.319 48.5844 251.2 48.5996 251.089 48.6378C250.977 48.6761 250.874 48.7367 250.787 48.8159C250.699 48.8951 250.629 48.9913 250.58 49.0984C250.532 49.2056 250.505 49.3216 250.503 49.4393C250.474 49.6011 250.504 49.7678 250.588 49.9094C250.672 50.0509 250.804 50.1579 250.96 50.2109C252.09 50.5455 253.611 51.1405 254.329 50.5269C255.701 49.2905 257.129 49.5322 258.66 49.4578C259.789 49.4021 260.284 48.9837 260.377 47.8588C260.508 46.3156 260.75 44.7817 260.974 43.2106C261.721 38.0045 260.62 39.0457 265.855 39.1294C267.264 39.1294 267.722 39.6686 267.722 41.091C268.142 62.0826 268.59 83.0648 268.562 104.056C268.562 106.325 268.244 108.221 266.294 109.634C265.793 110.047 265.393 110.568 265.127 111.159C265.045 111.301 264.998 111.461 264.992 111.625C264.986 111.789 265.021 111.952 265.092 112.1C265.164 112.248 265.271 112.375 265.404 112.472C265.537 112.569 265.692 112.632 265.855 112.656C266.278 112.777 266.721 112.808 267.157 112.746C267.592 112.684 268.009 112.53 268.38 112.295C268.752 112.061 269.069 111.75 269.311 111.385C269.553 111.019 269.714 110.606 269.784 110.174C269.915 109.188 269.672 108.138 270.624 107.31C272.431 105.641 274.389 104.144 276.475 102.839C279.21 101.258 281.935 100.914 284.688 102.839C285.808 103.61 286.984 104.298 288.15 104.986C290.297 106.241 292.079 107.663 291.79 110.564C291.701 110.805 291.668 111.063 291.692 111.318C291.716 111.574 291.797 111.821 291.93 112.041C292.062 112.261 292.242 112.449 292.457 112.591C292.672 112.733 292.916 112.825 293.171 112.86C294.375 113 294.767 111.931 295.234 111.103C295.7 110.276 296.055 109.309 294.991 108.733C292.863 107.58 292.63 105.739 292.77 103.638C292.854 102.411 292.77 101.184 292.77 99.9195C292.425 81.0568 292.397 62.2034 293.237 43.35C293.367 40.3844 293.498 40.2914 296.372 39.7151C296.82 39.6314 297.306 39.6128 297.716 39.5198C298.827 39.2967 299.424 39.7151 299.583 40.8492C300.012 43.5266 300.516 46.1855 300.955 48.8629C301.393 51.5403 301.3 51.5589 298.566 52.1538C298.125 52.2535 297.694 52.3903 297.278 52.5629C297.062 52.6437 296.878 52.7909 296.752 52.9832C296.626 53.1755 296.565 53.4028 296.578 53.632C296.578 54.1898 297.007 54.4129 297.446 54.5616C298.79 54.9521 300.367 55.1752 301.375 54.3013C302.364 53.5026 303.624 53.1161 304.893 53.2229C307.207 53.1672 307.767 52.5536 307.581 50.2666C307.316 47.486 307.235 44.691 307.338 41.8998C307.413 40.4588 307.973 39.7615 309.541 40.0404C311.06 40.3716 312.6 40.6014 314.151 40.7284C315.859 40.8307 316.381 41.5279 316.372 43.2663C316.251 58.9589 316.213 74.6608 316.167 90.3533C316.092 115.875 316.017 141.391 315.943 166.901C316.064 167.695 315.947 168.507 315.607 169.235C315.383 168.305 315.196 167.691 315.065 167.022C314.073 161.099 312.774 155.231 311.174 149.442C310.865 148.13 310.348 146.874 309.643 145.724C308.803 144.534 307.777 144.571 307.095 145.863C306.704 146.681 306.392 147.534 306.162 148.41C303.876 156.573 302.56 164.94 300.703 173.195C300.339 174.775 300.227 176.449 299.256 178.094C297.203 175.184 295.308 172.423 293.339 169.727C292.272 168.099 290.9 166.692 289.298 165.581C287.553 164.475 286.181 164.893 285.379 166.762C285.035 167.601 284.779 168.473 284.613 169.365C284.137 171.968 283.764 174.589 283.288 177.192C282.495 181.552 282.476 181.459 278.043 181.367C267.871 181.162 257.689 180.939 247.507 181.125C246.798 181.125 245.744 180.874 245.585 181.943C245.426 183.012 246.518 183.244 247.283 183.402C257.088 185.608 267.097 186.792 277.147 186.935C278.194 186.972 279.232 186.726 280.15 186.223C281.069 185.721 281.834 184.981 282.364 184.081C282.593 183.665 282.946 183.33 283.374 183.122C283.802 182.914 284.284 182.843 284.753 182.919C297.324 183.235 309.905 183.477 322.475 183.849C324.342 183.849 324.781 183.328 324.781 181.552C324.781 173.186 324.949 164.763 325.014 156.368C325.219 128.212 325.415 100.05 325.602 71.8811C325.602 65.2248 325.602 58.5778 325.676 51.9214C325.676 51.0661 325.424 50.1272 326.806 49.8762C332.125 48.9465 337.174 47.0872 342.242 45.2279C343.716 44.7073 344.108 45.1164 343.987 46.5201C343.782 50.3968 343.623 54.2642 343.446 58.1408C343.114 63.6854 343.18 69.2464 343.642 74.7816C343.726 75.5904 343.278 77.0965 344.668 77.0686C346.059 77.0407 345.499 75.6369 345.527 74.8467C345.648 71.9462 345.667 69.0364 345.648 66.1265C345.648 59.4795 345.237 52.8139 345.564 46.1762C345.956 38.0603 346.936 29.963 347.673 21.8657C347.879 19.6252 347.888 19.6624 350.109 20.3039C356.642 22.1632 362.699 25.0544 368.774 27.8899C369.533 28.1337 370.188 28.6247 370.633 29.284C371.078 29.9433 371.288 30.7325 371.228 31.5248C371.266 36.5573 371.266 41.593 371.228 46.6317C371.126 65.1039 370.808 83.5762 370.473 102.039C370.071 124.193 369.539 146.337 368.709 168.482C368.709 168.956 368.998 169.578 368.223 170.034C368.13 169.104 368.018 168.296 367.962 167.468C366.674 148.875 365.657 130.208 363.958 111.615C363.637 106.586 362.954 101.587 361.915 96.6564C361.719 95.8104 361.569 94.6762 360.421 94.6391C359.273 94.6019 359.161 95.736 358.9 96.582C358.779 97.019 358.695 97.5117 358.611 97.9114C356.082 111.382 354.831 125.02 353.179 138.612C352.657 142.907 352.128 147.205 351.593 151.506C351.146 150.682 350.9 149.765 350.874 148.829C350.24 140.462 349.474 132.095 348.448 123.728C348.15 120.512 347.579 117.328 346.74 114.208C346.535 113.539 346.227 112.786 345.312 112.87C344.397 112.953 344.285 113.604 344.155 114.245C343.903 115.51 343.632 116.783 343.502 118.057C341.635 135.99 340.45 153.97 339.722 171.977C339.591 175.333 339.722 178.698 339.722 182.054C339.722 183.691 340.431 184.574 342.148 184.63C343.866 184.685 345.639 184.89 347.384 184.89C358.676 184.89 369.941 184.221 381.205 183.579C382.241 183.514 383.463 183.133 384.275 183.579C387.346 185.094 390.257 183.672 393.234 183.449C393.888 183.449 394.392 183.133 394.336 182.389C394.28 181.645 393.636 181.701 393.15 181.71C391.461 181.71 389.781 181.803 388.092 181.869C385.134 181.989 385.134 181.999 385.003 179.08C385.003 178.884 385.003 178.689 385.003 178.494C384.667 166.483 384.863 154.472 385.003 142.46C385.059 138.231 385.078 138.258 389.212 138.231C390.313 138.231 390.976 138.5 390.929 139.709C390.883 141.14 391.704 141.568 393.001 141.67C394.942 141.763 396.884 141.977 398.825 142.024C399.935 142.024 400.309 142.433 400.187 143.548C399.982 145.473 399.842 147.406 399.739 149.34C399.366 156.498 398.806 163.657 399.413 170.824C399.497 171.847 399.273 173.353 400.682 173.548C402.091 173.743 402.268 172.228 402.651 171.261C404.751 165.916 406.776 160.533 408.876 155.187C409.519 153.42 410.425 151.759 411.564 150.26C412.749 148.773 413.589 148.829 414.419 150.567C415.148 152.148 415.772 153.776 416.286 155.438C418.152 161.165 419.002 167.134 420.607 172.925C420.924 174.078 420.905 175.909 422.613 175.789C424.321 175.668 424.106 173.873 424.302 172.684C424.76 169.095 424.947 165.478 424.862 161.862C424.803 157.985 425.052 154.108 425.609 150.27C425.861 148.819 426.029 147.109 427.569 146.467C429.689 145.668 431.852 144.982 434.046 144.413C434.745 144.199 435.445 144.283 435.305 145.259C434.717 149.396 435.875 153.719 433.999 157.725C433.912 157.874 433.88 158.049 433.909 158.219C433.938 158.389 434.026 158.543 434.158 158.655C434.801 159.222 434.624 159.966 434.587 160.654C434.242 167.292 433.84 173.939 433.579 180.586C433.514 182.101 433 182.51 431.526 182.519C423.546 182.584 415.577 182.966 407.635 183.719C406.701 183.802 404.947 183.319 405.096 184.862C405.217 186.126 406.832 185.485 407.737 185.466C418.003 185.197 428.269 184.955 438.534 183.923C439.57 183.811 439.748 183.226 439.962 182.436C441.045 178.713 442.36 175.062 443.901 171.503C444.05 171.15 444.059 170.573 444.834 170.573C445.534 174.766 445.879 178.996 446.178 183.217C446.271 184.565 446.775 184.955 448.044 184.955C464.911 184.955 481.772 184.955 498.626 184.955C526.624 184.955 554.528 185.029 582.47 185.438C583.104 185.438 583.86 185.215 584.336 185.689C585.493 186.796 586.959 186.721 588.359 186.796C592.505 187.022 596.661 186.96 600.799 186.61C601.237 186.61 601.928 186.61 602.077 186.349C602.927 184.936 604.177 185.355 605.316 185.578C605.576 185.68 605.857 185.717 606.135 185.685C606.413 185.653 606.679 185.554 606.909 185.396C607.139 185.238 607.327 185.027 607.456 184.779C607.585 184.532 607.651 184.257 607.649 183.979C607.807 182.817 608.498 182.547 609.515 182.464C611.587 182.287 613.65 182.073 615.712 181.85C616.375 181.822 617.121 181.785 617.009 180.957ZM437.265 107.282C437.919 107.282 438.702 106.492 439.132 107.282C439.477 107.868 438.805 108.482 438.348 108.891C437.545 109.625 437.107 108.77 436.593 108.361C436.402 108.149 436.233 107.919 436.089 107.673C436.456 107.477 436.854 107.345 437.265 107.282ZM127.239 173.939C127.239 173.325 127.127 172.572 128.173 172.581C128.919 172.581 129.591 172.73 129.796 173.604C130.002 174.478 130.142 175.231 130.338 176.04C130.786 177.899 129.255 178.057 128.173 178.206C126.67 178.42 127.491 177.081 127.286 176.43C127.241 176.122 127.241 175.809 127.286 175.5C127.239 174.961 127.211 174.45 127.239 173.939ZM31.4692 107.561C35.5475 106.511 39.6725 106.799 43.7974 107.078C39.7214 107.722 35.5834 107.884 31.4692 107.561ZM29.0614 127.939C31.8612 126.192 43.6108 125.987 51.6834 127.558C48.445 128.534 31.9358 128.813 29.0614 127.939ZM29.9947 149.117C33.8098 148.46 37.6979 148.332 41.5483 148.736C37.762 149.398 33.9009 149.527 30.0786 149.117H29.9947ZM109.508 147.787C109.452 146.542 109.806 146.049 111.103 146.077C113.493 146.077 115.891 146.077 118.29 146.002C119.167 146.002 119.605 146.253 119.605 147.202C119.605 150.279 119.605 153.347 119.605 156.703C116.908 154.267 115.63 154.444 113.773 157.372C113.137 158.419 112.558 159.499 112.037 160.607C111.533 161.639 111.103 162.699 110.628 163.768C110.04 163.378 110.142 162.894 110.133 162.476C110.002 157.577 109.844 152.677 109.592 147.787H109.508ZM120.137 162.783C120.231 164.393 120.427 165.995 120.725 167.58C120.875 168.379 121.229 169.346 122.349 169.104C123.469 168.863 123.208 167.942 123.105 167.189C123.034 166.354 122.862 165.529 122.592 164.735C120.445 159.055 121.444 153.114 121.08 147.295C121.024 146.365 121.397 145.844 122.424 145.928C122.942 145.989 123.465 145.989 123.982 145.928C125.41 145.668 125.905 146.161 125.849 147.648C125.746 151.264 125.849 154.881 125.849 158.497C125.849 162.113 125.849 165.73 125.849 169.337C125.849 170.499 125.513 170.917 124.29 170.861C120.147 170.685 116.003 170.564 111.85 170.527C110.553 170.527 110.142 169.839 110.46 168.844C111.775 164.726 113.259 160.654 115.835 157.121C116.572 156.126 117.347 156.322 117.982 157.307C119.179 158.907 119.923 160.798 120.137 162.783ZM111.598 120.019C112.354 120.223 112.354 120.223 112.354 122.994C111.915 123.793 113.343 125.569 110.963 125.699C109.312 125.792 108.36 125.411 108.574 123.551C108.602 123.171 108.602 122.788 108.574 122.408C108.462 120.019 109.321 119.386 111.598 120.019ZM105.429 118.578C103.292 118.494 101.155 118.578 99.0179 118.578V118.494C96.8807 118.494 94.7529 118.494 92.6158 118.494C91.4306 118.494 91.1039 118.094 91.4959 116.997C91.7478 116.272 91.8598 115.491 92.1305 114.766C92.3911 114.281 92.4776 113.721 92.3758 113.181C92.274 112.64 91.9899 112.149 91.5705 111.791C90.8333 111.122 90.6373 110.471 91.9718 110.304C96.08 109.771 100.228 109.609 104.365 109.82C105.877 109.904 106.867 110.583 106.736 112.405C106.682 113.957 106.751 115.511 106.941 117.053C107.053 118.159 106.624 118.606 105.429 118.559V118.578ZM106.913 141.698C105.98 141.884 105.868 140.769 105.551 140.099C104.739 138.416 104.095 136.641 103.19 135.014C102.014 132.885 100.39 132.513 98.3179 133.768C95.7795 135.293 93.941 137.58 92.0558 139.783C91.0199 140.982 90.4786 140.871 90.0493 139.402C89.5081 137.543 88.9761 135.683 88.3788 133.824C88.0988 132.987 87.8842 131.965 86.7176 131.965C85.5511 131.965 85.1684 132.82 84.7951 133.629C84.1699 134.967 83.6659 136.418 83.0686 137.729C82.826 138.286 82.854 139.021 82.0141 139.411C81.571 135.364 81.387 131.294 81.4634 127.223C81.4634 126.675 81.6407 126.47 82.294 126.563C88.8268 127.493 95.3595 127 101.892 127.14C103.628 127.14 105.803 126.424 106.979 127.456C108.154 128.488 107.426 130.747 107.566 132.457C107.762 134.828 107.753 137.217 107.856 139.606C107.874 140.471 107.884 141.503 106.913 141.68V141.698ZM91.1692 105.795C91.1692 105.795 91.1692 105.683 91.0293 105.367C93.0544 104.754 95.0609 104.242 96.9927 103.508C99.5685 102.578 99.5405 102.578 101.883 104.019C103.763 105.036 105.759 105.822 107.828 106.362C108.435 106.562 109.017 106.83 109.564 107.162C109.67 107.278 109.751 107.414 109.803 107.563C109.854 107.712 109.874 107.869 109.862 108.026C109.862 108.407 109.489 108.5 109.134 108.482C103.068 108.201 97.0476 107.294 91.1692 105.776V105.795ZM108.584 165.293C106.988 162.002 105.653 158.915 104.048 155.996C101.248 150.911 98.7846 150.837 95.4809 155.615C93.0451 159.148 91.4119 163.108 89.3401 166.836C89.0414 167.384 88.8548 168.286 88.1828 168.268C87.3336 168.268 87.3149 167.245 87.1469 166.632C86.2137 163.145 85.3831 159.613 84.3472 156.154C83.9272 154.751 83.7406 152.696 81.8087 152.668C79.8769 152.64 79.5223 154.732 79.009 156.182C77.9544 159.213 77.1425 162.318 75.9293 165.367C75.0707 158.172 75.6866 151.013 76.0972 143.715C77.4411 146.021 79.6249 145.817 81.6407 145.854C89.7414 146.002 97.842 146.114 105.905 146.133C107.52 146.133 108.173 146.458 108.192 148.234C108.257 153.077 108.565 157.911 108.761 162.755C108.906 163.584 108.845 164.436 108.584 165.237V165.293ZM108.826 138.165C108.826 134.893 108.826 131.658 108.826 128.367C108.826 127.27 109.33 126.991 110.236 127.103C111.141 127.214 112.326 126.582 112.41 128.209C112.627 130.06 112.714 131.924 112.671 133.787C112.494 135.73 110.581 136.715 109.75 138.351L108.826 138.165ZM109.685 140.954C110.506 139.523 111.607 138.249 112.811 136.585C113.353 138.444 113.745 139.904 114.174 141.289C114.315 141.791 114.568 142.255 114.914 142.646C115.259 143.037 115.689 143.345 116.171 143.548C117.534 144.078 118.625 143.548 118.635 142.098C118.635 139.095 117.935 135.72 115.77 134.131C113.278 132.271 113.651 130.217 113.969 128.348C114.435 125.559 117.039 127.67 118.635 127.103C119.699 126.712 119.904 127.493 119.895 128.404C119.82 133.368 119.745 138.342 119.727 143.279C119.727 144.422 119.213 144.701 118.196 144.692C116.115 144.692 114.043 144.692 111.971 144.766C109.536 144.766 108.444 143.037 109.685 140.852V140.954ZM114.585 135.116C115.93 136.847 116.818 138.886 117.17 141.047C117.235 141.41 117.394 141.884 116.983 142.089C116.572 142.293 116.134 141.865 115.928 141.503C114.871 139.511 114.405 137.26 114.585 135.014V135.116ZM206.248 13.6104C206.071 28.3268 204.923 42.9967 203.542 57.6574C203.673 42.8573 204.774 28.1595 206.248 13.5081V13.6104ZM206.099 184.211C214.795 183.155 223.557 182.748 232.314 182.993C223.604 183.853 214.851 184.226 206.099 184.109V184.211ZM280.526 184.304C279.978 184.811 279.329 185.196 278.622 185.437C277.914 185.677 277.164 185.766 276.419 185.699C269.747 185.563 263.094 184.942 256.513 183.839C254.889 183.697 253.285 183.385 251.726 182.91H280.106C280.479 182.91 281.039 182.835 281.039 183.291C281.104 183.542 280.778 183.932 280.526 184.165V184.304ZM314.272 182.333C304.753 182.061 295.231 181.859 285.705 181.729C284.203 181.729 283.839 181.432 284.221 179.87C285.043 176.291 285.481 172.618 286.265 169.03C286.909 166.102 287.74 165.916 289.886 168.1C292.789 171.001 294.861 174.534 297.166 177.88C297.539 178.419 297.866 178.977 298.267 179.479C299.331 180.818 300.199 180.734 300.721 179.126C301.337 177.267 301.795 175.268 302.224 173.316C303.941 165.572 305.238 157.725 307.273 150.074C307.475 148.97 307.883 147.914 308.477 146.96C309.423 148.667 310.094 150.512 310.464 152.426C312.826 161.723 314.384 171.243 315.849 180.753C316.064 181.98 315.7 182.305 314.272 182.231V182.333ZM403.5 138.277C413.766 138.277 423.966 138.184 434.176 139.039C434.363 139.039 434.54 139.132 435.268 139.318C432.406 140.073 429.465 140.491 426.505 140.564C418.871 141.047 411.234 141.159 403.594 140.899C402.819 140.899 401.811 141.14 401.914 139.709C401.998 138.547 402.455 138.175 403.5 138.175V138.277ZM393.57 100.673C394.826 99.9835 395.868 98.965 396.584 97.7276C397.3 96.4903 397.661 95.0813 397.63 93.6536C397.63 91.3481 397.826 89.0053 397.929 86.7556C398.685 86.6626 398.787 87.2204 399.077 87.5179C400.523 89.0704 401.942 89.1541 403.407 87.648C404.34 86.7184 405.059 85.6679 405.889 84.6732C406.72 83.6784 407.756 83.4553 408.838 84.5244C409.66 85.3518 410.5 86.1606 411.386 86.9136C414.065 89.2099 416.482 89.089 418.787 86.3837C419.72 85.3053 420.168 85.454 420.653 86.5975C422.679 91.5619 424.76 96.4984 428.269 100.673C428.754 101.24 428.549 101.602 427.793 101.602C426.859 101.602 425.852 101.695 424.881 101.714C414.13 101.974 403.416 102.364 392.647 102.987C391.983 103.107 391.299 103.009 390.696 102.708C391.499 101.809 392.477 101.082 393.57 100.57V100.673ZM389.268 109.969C387.075 110.685 384.537 110.099 381.662 109.597C385.451 106.604 388.867 104.4 393.561 104.577C405.115 104.995 416.631 104.056 428.091 103.22C430.322 103.062 431.04 104.363 432.02 105.655C432.44 106.204 432.02 106.455 431.488 106.492C430.023 106.585 428.539 106.492 427.457 107.887C427.223 108.193 426.356 108.054 425.777 108.045C415.857 107.97 405.936 108.184 396.034 108.863C393.756 108.915 391.493 109.246 389.296 109.848L389.268 109.969ZM422.865 109.56C415.421 110.259 407.94 110.489 400.467 110.248C407.961 109.253 415.427 109.504 422.893 109.439L422.865 109.56ZM390.901 113.558C390.901 112.126 391.265 111.698 392.768 111.698C404.042 112.022 415.326 111.746 426.57 110.871C427.373 110.806 427.998 110.871 427.998 111.884C427.998 117.862 428.185 123.84 427.485 129.91C426.076 127.121 424.685 124.407 423.248 121.683C422.574 120.431 421.836 119.214 421.036 118.038C420.504 117.267 419.944 116.179 418.768 116.616C417.592 117.053 417.835 118.094 417.891 118.968C418.012 121.543 418.227 124.118 418.414 126.694C418.414 127.065 418.47 127.447 418.498 127.837C417.695 127.837 417.639 127.242 417.396 126.852C415.603 123.714 413.407 120.824 410.864 118.252C410.448 117.843 409.999 117.47 409.52 117.137C406.431 115.054 404.676 115.64 403.659 119.21C402.353 124.142 401.531 129.189 401.204 134.28C401.046 136.278 400.458 137.245 398.321 136.92C397.414 136.845 396.502 136.845 395.596 136.92C392.217 136.92 392.152 136.92 391.947 133.685C391.471 126.861 390.976 120.158 390.892 113.437L390.901 113.558ZM399.235 140.769C397.313 140.601 395.39 140.508 393.468 140.406C393.307 140.42 393.146 140.397 392.995 140.339C392.845 140.28 392.711 140.188 392.602 140.069C392.494 139.95 392.414 139.808 392.37 139.654C392.326 139.499 392.318 139.337 392.348 139.179C392.348 138.305 393.02 138.389 393.589 138.379C394.616 138.379 395.642 138.379 396.669 138.379H399.17C399.898 138.379 400.635 138.324 400.551 139.43C400.495 140.099 400.337 140.741 399.226 140.648L399.235 140.769ZM592.362 151.246C594.593 151.608 596.823 152.008 599.072 152.175C600.425 152.296 600.873 152.835 600.799 154.1C600.724 155.364 600.799 156.415 600.799 157.577H601.107C601.046 158.601 601.046 159.629 601.107 160.654C601.275 162.132 600.827 162.653 599.287 162.336C596.426 161.842 593.598 161.169 590.822 160.319C588.34 159.464 587.528 158.348 587.379 155.773C587.071 150.297 587.145 150.26 592.353 151.125L592.362 151.246ZM571.373 147.648C575.106 148.299 578.755 149.005 582.47 149.563C583.916 149.786 584.336 150.363 583.972 151.729C583.681 152.788 583.444 153.862 583.263 154.946C583.244 155.292 583.151 155.63 582.99 155.937C582.829 156.245 582.604 156.514 582.33 156.728C582.056 156.942 581.74 157.095 581.402 157.177C581.064 157.259 580.712 157.269 580.37 157.205C576.273 156.275 572.167 155.345 568.079 154.416C567.677 154.293 567.323 154.048 567.069 153.714C566.814 153.38 566.671 152.975 566.66 152.557C566.66 152.426 566.66 152.296 566.66 152.175C566.25 147.694 567.22 146.793 571.364 147.527L571.373 147.648ZM550.431 143.929C554.407 144.496 558.336 145.361 562.312 145.928C564.122 146.188 565.018 146.793 564.542 148.717C564.403 149.547 564.325 150.386 564.309 151.227C564.197 152.705 564.019 154.183 563.982 155.671C563.945 157.158 563.142 157.53 561.817 157.27C559.725 156.826 557.686 156.165 555.732 155.299C553.866 154.537 552.074 153.626 550.189 152.938C547.473 151.943 546.381 150.028 546.521 147.248C546.754 142.711 546.176 143.26 550.422 143.855L550.431 143.929ZM520.511 142.516C520.511 141.698 520.912 141.391 521.734 141.438C528.397 141.791 535.061 142.182 541.696 142.86C542.536 142.944 542.807 143.362 542.788 144.125C542.788 145.156 542.788 146.188 542.788 147.22C542.788 147.416 542.788 147.611 542.788 147.806C542.667 153.021 542.555 153.161 537.188 152.882C532.595 152.588 528.028 151.985 523.516 151.078C522.738 150.972 522.021 150.599 521.488 150.024C520.956 149.45 520.64 148.708 520.595 147.927C520.382 146.106 520.351 144.269 520.502 142.442L520.511 142.516ZM486.56 141.782C486.56 140.452 487.493 140.629 488.342 140.638C494.035 140.713 499.728 140.787 505.421 140.899C508.976 140.973 512.532 141.159 516.088 141.205C517.282 141.205 517.665 141.652 517.618 142.814C517.515 145.194 517.459 147.583 517.534 149.963C517.534 151.329 516.965 151.748 515.752 151.896C512.742 152.169 509.719 152.25 506.699 152.138C500.502 151.841 494.949 151.515 489.415 150.874C488.733 150.863 488.081 150.595 487.589 150.124C487.097 149.653 486.803 149.014 486.765 148.336C486.474 146.139 486.402 143.919 486.55 141.707L486.56 141.782ZM485.356 134.782C485.573 136.19 485.399 137.63 484.852 138.946C484.544 137.518 484.718 136.028 485.346 134.707L485.356 134.782ZM469.976 141.754C470.069 140.936 470.573 140.694 471.32 140.703C473.065 140.703 474.819 140.703 476.564 140.703V140.638C478.188 140.638 479.812 140.638 481.427 140.638C482.481 140.638 482.798 141.001 482.603 142.033C482.145 144.376 481.837 146.746 481.324 149.08C480.811 151.413 479.756 151.962 477.488 151.413C475.221 150.865 472.887 149.684 470.452 149.219C469.518 149.052 469.518 148.289 469.462 147.546C469.447 145.579 469.616 143.615 469.966 141.68L469.976 141.754ZM467.979 149.768C471.376 150.818 474.633 151.989 477.983 152.798C480.363 153.375 482.005 152.203 482.593 149.768C483.181 147.332 483.526 144.822 483.974 142.33C484.086 141.735 483.909 141.01 484.693 140.648C485.477 141.15 485.085 141.931 485.094 142.572C485.094 144.822 484.945 147.09 485.561 149.303C485.692 150.038 486.063 150.711 486.616 151.215C487.17 151.719 487.875 152.027 488.622 152.092C496.975 153.172 505.4 153.595 513.82 153.356C514.146 153.356 514.473 153.356 514.753 153.291C518.421 153.021 518.626 152.826 519.083 148.698C520.306 152.315 523.134 152.417 525.765 152.835C529.837 153.619 533.967 154.07 538.112 154.183C539.019 154.197 539.926 154.16 540.828 154.072C543.171 153.802 543.749 153.217 543.889 150.902C544.029 148.587 544.076 146.384 544.178 144.125C544.178 143.771 544.178 143.26 544.692 143.279C545.205 143.297 545.177 143.79 545.168 144.152C545.168 145.445 545.028 146.737 545.065 148.02C545.016 149.289 545.371 150.541 546.078 151.597C546.785 152.654 547.809 153.461 549.003 153.905C552.464 155.525 556.017 156.943 559.642 158.153C563.945 159.389 564.607 159.008 565.578 154.788C569.721 156.387 574.117 157.019 578.401 158.079C579.351 158.278 580.323 158.356 581.294 158.311C582.016 158.358 582.731 158.137 583.299 157.691C583.868 157.245 584.251 156.605 584.374 155.894C584.784 154.007 585.301 152.145 585.923 150.316C585.829 155.373 584.616 160.951 592.25 162.02L591.858 162.476L586.893 161.955L581.863 161.435C580.258 161.258 578.653 161.054 577.038 160.896C575.853 160.775 574.836 160.654 574.313 159.241C573.893 158.116 572.913 158.404 572.447 159.297C571.98 160.189 571.252 160.226 570.328 160.143C549.153 157.725 527.959 155.383 506.68 153.923C493.357 153.035 479.984 153.175 466.681 154.341C466.243 154.341 465.748 154.341 465.356 154.341C466.751 153.178 467.681 151.555 467.979 149.768ZM570.524 163.062C568.135 168.277 565.858 173.548 563.515 178.782C562.582 180.781 562.498 180.799 561.229 179.154C556.497 173.018 552.298 166.511 548.079 160.031C547.942 159.732 547.833 159.42 547.753 159.101C551.85 159.538 555.741 159.947 559.633 160.375C562.909 160.728 566.166 161.137 569.469 161.472C570.589 161.565 571.14 161.732 570.524 163.071V163.062ZM448.446 141.159C449.246 139.808 450.301 138.624 451.553 137.673C451.423 140.954 451.376 141.001 448.446 141.159ZM458.357 153.244L455.688 153.086C452.888 152.919 451.861 151.952 451.637 149.21C451.105 142.767 451.796 141.884 458.235 141.196C460.55 140.945 462.902 140.889 465.207 140.694C466.495 140.592 467.073 140.927 466.971 142.395C466.756 144.506 466.812 146.644 466.588 148.754C466.252 152.027 465.16 153.031 461.922 153.235C460.793 153.319 459.691 153.263 458.357 153.263V153.244ZM443.182 169.681C441.417 173.279 440.007 177.041 438.973 180.911C438.432 182.956 437.032 182.491 435.8 182.371C434.335 182.231 435.063 180.976 435.044 180.214C435.044 178.931 435.184 177.639 435.268 176.346C435.548 171.066 435.856 165.776 436.08 160.486C436.08 159.334 436.472 158.785 437.676 158.99C437.872 159.004 438.068 159.004 438.264 158.99C442.659 159.12 442.585 159.138 443.751 163.517C444.371 165.574 444.167 167.79 443.182 169.699V169.681ZM444.003 159.687C443.761 158.943 444.181 158.757 444.75 158.702L449.995 157.883C448.27 159.916 446.777 162.133 445.543 164.493C444.937 162.597 444.489 161.137 444.003 159.706V159.687ZM495.687 183.309C495.351 183.784 494.604 183.514 494.035 183.514C486.653 183.514 479.262 183.514 471.88 183.514C464.497 183.514 457.237 183.458 449.92 183.57C448.119 183.57 447.652 182.956 447.503 181.311C447.12 176.941 446.57 172.581 446.056 168.23C445.94 167.533 446.048 166.818 446.364 166.185C447.435 163.833 448.833 161.642 450.517 159.678C451.852 158.283 452.543 158.404 453.317 160.17C455.828 165.553 458.282 170.954 460.783 176.328C461.501 177.846 462.315 179.318 463.219 180.734C464.404 182.594 465.151 182.594 466.261 180.734C469.938 174.645 473.727 168.649 477.983 162.931C478.916 161.742 479.849 160.645 480.783 159.492C481.716 158.339 482.22 158.562 482.864 159.78C485.651 165.098 488.479 170.397 491.347 175.677C492.486 177.769 493.783 179.786 494.968 181.859C495.313 182.305 496.069 182.733 495.687 183.309ZM527.417 183.626C518.402 183.626 509.381 183.604 500.353 183.561C499.821 183.561 499.074 183.877 498.794 183.217C498.58 182.724 499.149 182.287 499.429 181.878C504.095 174.738 508.706 167.561 513.689 160.635C514.622 159.287 515.145 159.185 515.976 160.737C518.346 165.191 520.819 169.578 523.292 173.966C525.085 177.362 527.174 180.595 529.536 183.626H527.417ZM529.022 180.539C525.523 175.314 522.63 169.755 519.578 164.279C518.561 162.476 517.59 160.654 516.554 158.86C515.518 157.065 514.856 156.917 513.456 158.683C510.572 162.346 508.034 166.25 505.449 170.127C503.19 173.511 500.978 176.932 498.748 180.353C497.283 182.584 497.264 182.594 495.817 180.251C491.954 174.013 488.678 167.431 485.234 161.016C484.74 160.087 484.301 159.157 483.75 158.293C482.817 156.628 481.987 156.433 480.559 157.79C479.439 158.864 478.406 160.023 477.47 161.258C473.328 166.802 469.481 172.558 465.944 178.503C464.712 180.502 464.656 180.521 463.508 178.392C460.354 172.526 457.731 166.408 455.025 160.328C454.596 159.343 453.308 158.237 453.774 157.539C454.241 156.842 455.912 156.963 457.05 156.824C468.505 155.413 480.038 154.724 491.58 154.76C509.648 155.206 527.259 157.01 544.869 158.767C546.138 158.887 546.502 159.157 545.625 160.347C540.648 167.134 535.714 173.951 530.824 180.799C529.928 182.036 529.508 181.376 528.948 180.539H529.022ZM530.665 183.7C531.738 182.12 532.531 180.911 533.315 179.805C537.459 174.103 541.612 168.407 545.774 162.718C547.025 160.998 547.025 161.016 548.247 162.857C552.074 168.621 555.816 174.441 560.072 179.916C560.426 180.372 560.79 180.846 561.192 181.255C562.601 182.761 563.319 182.715 564.178 180.837C566.791 175.147 569.302 169.402 571.896 163.703C572.213 163.006 572.232 161.844 573.389 161.946C574.546 162.048 574.49 163.09 574.78 163.805C577.327 170.313 579.605 176.904 582.843 183.105C582.921 183.288 582.969 183.483 582.983 183.681L530.665 183.7ZM605.512 184.165L601.993 183.728C603.088 183.252 604.271 183.012 605.465 183.021C605.866 182.966 606.454 182.826 606.454 183.523C606.454 184.221 605.941 184.23 605.437 184.165H605.512ZM604.989 181.655C602.927 181.776 600.873 182.11 598.82 182.38C597.887 182.51 596.851 182.575 596.655 183.877C596.543 184.648 595.843 184.341 595.386 184.351C593.893 184.351 592.409 184.351 590.916 184.351V184.221C590.147 184.105 589.367 184.077 588.592 184.137C585.568 184.695 584.243 183.049 583.114 180.558C580.613 175.026 578.447 169.346 576.273 163.703C575.741 162.355 576.189 162.197 577.439 162.336C583.748 163.034 590.066 163.592 596.366 164.372C599.026 164.698 601.639 164.149 604.28 164.372C605.409 164.465 605.801 164.94 605.894 166.046C606.296 170.545 606.678 175.045 606.828 179.563C606.744 180.93 606.38 181.571 604.877 181.655H604.989Z" fill="#AEAEAE"/>
</g>
<defs>
<clipPath id="clip0_57_1691">
<rect width="617" height="187" fill="white"/>
</clipPath>
</defs>
</svg>
