<svg width="23" height="14" viewBox="0 0 23 14" fill="none" xmlns="http://www.w3.org/2000/svg">
<path d="M19.5936 1.19918C18.3273 0.869058 16.9821 1.04854 15.8466 1.69911L13.729 2.91598L8.7469 0.607397C8.6018 0.539232 8.44245 0.50695 8.28226 0.513274C8.12207 0.519597 7.96575 0.564341 7.82648 0.643731L4.84067 2.38824C4.68884 2.47634 4.56287 2.60284 4.47543 2.75505C4.38799 2.90726 4.34215 3.0798 4.34253 3.25534C4.33879 3.42848 4.38008 3.59962 4.46235 3.75201C4.54462 3.9044 4.66506 4.0328 4.81186 4.12466L8.11883 6.19745L6.38 7.21674L1.617 7.77883C1.42527 7.80281 1.24459 7.88182 1.09682 8.00631C0.949043 8.1308 0.840498 8.29544 0.78431 8.48031C0.728121 8.66518 0.726696 8.86237 0.780207 9.04804C0.833718 9.23371 0.939872 9.39989 1.08583 9.52651L4.64979 12.5773C5.11621 13.02 5.71252 13.3011 6.35082 13.3791C6.98911 13.4572 7.63559 13.3281 8.19495 13.0109L22.2309 4.85932C22.4588 4.72957 22.6265 4.51553 22.6981 4.26328C22.7697 4.01104 22.7393 3.74077 22.6135 3.51069C22.2892 2.94394 21.855 2.44759 21.3365 2.05068C20.8179 1.65378 20.2254 1.3643 19.5936 1.19918ZM20.1919 3.71102L7.193 11.282C7.00088 11.3873 6.77949 11.4266 6.56288 11.3938C6.34626 11.361 6.14639 11.258 5.994 11.1006L4.10742 9.48632L6.84194 9.14283C6.97701 9.12746 7.10751 9.08471 7.2255 9.0172L10.5764 7.07879C10.7258 6.99229 10.8502 6.86862 10.9375 6.7198C11.0249 6.57098 11.0723 6.40208 11.0751 6.22952C11.0778 6.05697 11.0359 5.88663 10.9533 5.73509C10.8708 5.58354 10.7504 5.45594 10.6039 5.36469L7.30194 3.28323L8.39118 2.65192L13.3733 4.9605C13.5198 5.02821 13.6804 5.05947 13.8416 5.05164C14.0027 5.0438 14.1595 4.99709 14.2987 4.9155L16.8833 3.4479C17.2158 3.25483 17.5832 3.12957 17.9644 3.07935C18.3456 3.02913 18.733 3.05495 19.1042 3.15533C19.504 3.25635 19.8758 3.4463 20.1919 3.71102Z" fill="#9B9B9B"/>
</svg>
