<svg width="33" height="32" viewBox="0 0 33 32" fill="none" xmlns="http://www.w3.org/2000/svg">
<path d="M24.5 13.3334C24.5 12.9798 24.3595 12.6406 24.1095 12.3906C23.8594 12.1405 23.5203 12 23.1666 12H7.71332L10.78 8.94671C11.0311 8.69564 11.1721 8.35511 11.1721 8.00004C11.1721 7.64498 11.0311 7.30445 10.78 7.05338C10.5289 6.80231 10.1884 6.66125 9.83332 6.66125C9.47825 6.66125 9.13772 6.80231 8.88665 7.05338L3.55332 12.3867C3.36831 12.5742 3.24298 12.8123 3.19315 13.071C3.14331 13.3296 3.17121 13.5972 3.27332 13.84C3.37334 14.0835 3.54321 14.292 3.7615 14.4391C3.97979 14.5862 4.23675 14.6654 4.49998 14.6667H23.1666C23.5203 14.6667 23.8594 14.5262 24.1095 14.2762C24.3595 14.0261 24.5 13.687 24.5 13.3334ZM29.7266 18.16C29.6266 17.9166 29.4568 17.7081 29.2385 17.561C29.0202 17.4139 28.7632 17.3347 28.5 17.3334H9.83332C9.47969 17.3334 9.14056 17.4739 8.89051 17.7239C8.64046 17.974 8.49998 18.3131 8.49998 18.6667C8.49998 19.0203 8.64046 19.3595 8.89051 19.6095C9.14056 19.8596 9.47969 20 9.83332 20H25.2866L22.22 23.0534C22.095 23.1773 21.9958 23.3248 21.9281 23.4873C21.8604 23.6498 21.8256 23.824 21.8256 24C21.8256 24.1761 21.8604 24.3503 21.9281 24.5128C21.9958 24.6753 22.095 24.8228 22.22 24.9467C22.3439 25.0717 22.4914 25.1709 22.6539 25.2386C22.8164 25.3063 22.9906 25.3411 23.1666 25.3411C23.3427 25.3411 23.5169 25.3063 23.6794 25.2386C23.8419 25.1709 23.9894 25.0717 24.1133 24.9467L29.4466 19.6134C29.6317 19.4259 29.757 19.1878 29.8068 18.9291C29.8566 18.6705 29.8288 18.4029 29.7266 18.16Z" fill="black"/>
</svg>
