<svg width="14" height="16" viewBox="0 0 14 16" fill="none" xmlns="http://www.w3.org/2000/svg">
<path d="M6.99967 12.6667C7.13153 12.6667 7.26042 12.6276 7.37006 12.5543C7.47969 12.4811 7.56514 12.377 7.61559 12.2551C7.66605 12.1333 7.67926 11.9993 7.65353 11.87C7.62781 11.7406 7.56431 11.6219 7.47108 11.5286C7.37784 11.4354 7.25906 11.3719 7.12973 11.3462C7.00041 11.3204 6.86637 11.3336 6.74455 11.3841C6.62273 11.4346 6.51862 11.52 6.44536 11.6296C6.37211 11.7393 6.33301 11.8682 6.33301 12C6.33301 12.1768 6.40325 12.3464 6.52827 12.4714C6.65329 12.5964 6.82286 12.6667 6.99967 12.6667ZM10.333 12.6667C10.4649 12.6667 10.5938 12.6276 10.7034 12.5543C10.813 12.4811 10.8985 12.377 10.9489 12.2551C10.9994 12.1333 11.0126 11.9993 10.9869 11.87C10.9611 11.7406 10.8976 11.6219 10.8044 11.5286C10.7112 11.4354 10.5924 11.3719 10.4631 11.3462C10.3337 11.3204 10.1997 11.3336 10.0779 11.3841C9.95607 11.4346 9.85195 11.52 9.77869 11.6296C9.70544 11.7393 9.66634 11.8682 9.66634 12C9.66634 12.1768 9.73658 12.3464 9.8616 12.4714C9.98663 12.5964 10.1562 12.6667 10.333 12.6667ZM10.333 10C10.4649 10 10.5938 9.96092 10.7034 9.88767C10.813 9.81441 10.8985 9.71029 10.9489 9.58848C10.9994 9.46666 11.0126 9.33261 10.9869 9.20329C10.9611 9.07397 10.8976 8.95518 10.8044 8.86195C10.7112 8.76871 10.5924 8.70522 10.4631 8.6795C10.3337 8.65377 10.1997 8.66698 10.0779 8.71743C9.95607 8.76789 9.85195 8.85334 9.77869 8.96297C9.70544 9.07261 9.66634 9.2015 9.66634 9.33335C9.66634 9.51016 9.73658 9.67973 9.8616 9.80476C9.98663 9.92978 10.1562 10 10.333 10ZM6.99967 10C7.13153 10 7.26042 9.96092 7.37006 9.88767C7.47969 9.81441 7.56514 9.71029 7.61559 9.58848C7.66605 9.46666 7.67926 9.33261 7.65353 9.20329C7.62781 9.07397 7.56431 8.95518 7.47108 8.86195C7.37784 8.76871 7.25906 8.70522 7.12973 8.6795C7.00041 8.65377 6.86637 8.66698 6.74455 8.71743C6.62273 8.76789 6.51862 8.85334 6.44536 8.96297C6.37211 9.07261 6.33301 9.2015 6.33301 9.33335C6.33301 9.51016 6.40325 9.67973 6.52827 9.80476C6.65329 9.92978 6.82286 10 6.99967 10ZM11.6663 2.00002H10.9997V1.33335C10.9997 1.15654 10.9294 0.986973 10.8044 0.861949C10.6794 0.736925 10.5098 0.666687 10.333 0.666687C10.1562 0.666687 9.98663 0.736925 9.8616 0.861949C9.73658 0.986973 9.66634 1.15654 9.66634 1.33335V2.00002H4.33301V1.33335C4.33301 1.15654 4.26277 0.986973 4.13775 0.861949C4.01272 0.736925 3.84315 0.666687 3.66634 0.666687C3.48953 0.666687 3.31996 0.736925 3.19494 0.861949C3.06991 0.986973 2.99967 1.15654 2.99967 1.33335V2.00002H2.33301C1.80257 2.00002 1.29387 2.21073 0.918794 2.58581C0.543722 2.96088 0.333008 3.46959 0.333008 4.00002V13.3334C0.333008 13.8638 0.543722 14.3725 0.918794 14.7476C1.29387 15.1226 1.80257 15.3334 2.33301 15.3334H11.6663C12.1968 15.3334 12.7055 15.1226 13.0806 14.7476C13.4556 14.3725 13.6663 13.8638 13.6663 13.3334V4.00002C13.6663 3.46959 13.4556 2.96088 13.0806 2.58581C12.7055 2.21073 12.1968 2.00002 11.6663 2.00002ZM12.333 13.3334C12.333 13.5102 12.2628 13.6797 12.1377 13.8048C12.0127 13.9298 11.8432 14 11.6663 14H2.33301C2.1562 14 1.98663 13.9298 1.8616 13.8048C1.73658 13.6797 1.66634 13.5102 1.66634 13.3334V7.33335H12.333V13.3334ZM12.333 6.00002H1.66634V4.00002C1.66634 3.82321 1.73658 3.65364 1.8616 3.52862C1.98663 3.40359 2.1562 3.33335 2.33301 3.33335H2.99967V4.00002C2.99967 4.17683 3.06991 4.3464 3.19494 4.47142C3.31996 4.59645 3.48953 4.66669 3.66634 4.66669C3.84315 4.66669 4.01272 4.59645 4.13775 4.47142C4.26277 4.3464 4.33301 4.17683 4.33301 4.00002V3.33335H9.66634V4.00002C9.66634 4.17683 9.73658 4.3464 9.8616 4.47142C9.98663 4.59645 10.1562 4.66669 10.333 4.66669C10.5098 4.66669 10.6794 4.59645 10.8044 4.47142C10.9294 4.3464 10.9997 4.17683 10.9997 4.00002V3.33335H11.6663C11.8432 3.33335 12.0127 3.40359 12.1377 3.52862C12.2628 3.65364 12.333 3.82321 12.333 4.00002V6.00002ZM3.66634 10C3.7982 10 3.92709 9.96092 4.03672 9.88767C4.14635 9.81441 4.2318 9.71029 4.28226 9.58848C4.33272 9.46666 4.34592 9.33261 4.3202 9.20329C4.29447 9.07397 4.23098 8.95518 4.13775 8.86195C4.04451 8.76871 3.92572 8.70522 3.7964 8.6795C3.66708 8.65377 3.53304 8.66698 3.41122 8.71743C3.2894 8.76789 3.18528 8.85334 3.11203 8.96297C3.03877 9.07261 2.99967 9.2015 2.99967 9.33335C2.99967 9.51016 3.06991 9.67973 3.19494 9.80476C3.31996 9.92978 3.48953 10 3.66634 10ZM3.66634 12.6667C3.7982 12.6667 3.92709 12.6276 4.03672 12.5543C4.14635 12.4811 4.2318 12.377 4.28226 12.2551C4.33272 12.1333 4.34592 11.9993 4.3202 11.87C4.29447 11.7406 4.23098 11.6219 4.13775 11.5286C4.04451 11.4354 3.92572 11.3719 3.7964 11.3462C3.66708 11.3204 3.53304 11.3336 3.41122 11.3841C3.2894 11.4346 3.18528 11.52 3.11203 11.6296C3.03877 11.7393 2.99967 11.8682 2.99967 12C2.99967 12.1768 3.06991 12.3464 3.19494 12.4714C3.31996 12.5964 3.48953 12.6667 3.66634 12.6667Z" fill="#9D9D9D"/>
</svg>
