<svg width="56" height="57" viewBox="0 0 56 57" fill="none" xmlns="http://www.w3.org/2000/svg">
<g clip-path="url(#clip0_49_249)">
<path fill-rule="evenodd" clip-rule="evenodd" d="M27.6556 31.2529C28.4757 30.6296 29.3615 29.7438 30.4769 28.5628C30.0176 26.8897 29.6239 25.3806 29.3287 24.4292C28.7053 25.2166 27.6884 26.332 26.3105 27.2505L27.6556 31.2529ZM26.5401 31.9746L25.1623 27.9067C23.9157 28.53 22.4394 28.8908 20.8319 28.694L22.8003 32.3683C24.1453 32.5323 25.1623 32.4667 26.0809 32.1714C26.2121 32.1058 26.3761 32.0402 26.5401 31.9746ZM21.1599 32.1386L19.126 28.3331C18.9619 28.2675 18.8307 28.2347 18.6667 28.1691C17.5841 27.7426 16.4687 27.6442 15.4189 27.7426L17.8793 31.8762C18.6667 31.8106 19.4868 31.8106 20.307 31.9746C20.6022 32.0402 20.8975 32.073 21.1599 32.1386ZM16.5015 32.1386L14.041 28.0051C13.4505 28.1691 12.86 28.3659 12.3023 28.6284C11.4493 29.0221 10.4652 29.6454 9.48098 30.3671L12.2367 34.107C12.8928 33.6805 13.5817 33.2869 14.2707 32.9588C14.9924 32.6307 15.7469 32.3355 16.5015 32.1386ZM11.1541 34.8287L8.46399 31.1545C7.47981 32.0074 6.59404 32.926 6.00353 33.8118L8.29996 37.1908C9.0873 36.4362 10.0387 35.6161 11.1541 34.8287ZM5.21619 32.6635C5.93792 31.6794 6.98771 30.6952 8.07032 29.8094C8.10312 29.7766 8.13593 29.711 8.20154 29.6782C8.23435 29.6454 8.26715 29.6454 8.29996 29.6126C9.48098 28.694 10.7276 27.9067 11.7446 27.4474C12.5319 27.0865 13.3521 26.7913 14.1722 26.6272L14.2379 26.5944C15.8126 26.2664 17.4857 26.2992 19.126 26.9553C21.6192 27.9067 23.7516 27.3161 25.3591 26.332C26.9994 25.2822 28.1805 23.8059 28.7053 23.0842L28.771 23.0185C28.9022 22.8545 29.0006 22.7233 29.099 22.6249C29.4599 22.2312 30.0504 22.4608 30.2472 22.9857C30.3457 23.1498 30.4113 23.4122 30.4769 23.6091V23.6747C31.0674 25.5774 31.5595 27.5458 32.0844 29.4814C33.2654 34.0086 34.5776 39.2248 34.8401 40.2417C34.9385 40.5042 34.8401 40.7995 34.5776 40.9635C30.4441 43.6208 29.4271 43.6536 25.9824 43.7192C25.3591 43.752 24.6702 43.752 23.85 43.7848C23.8172 43.7848 23.7844 43.7848 23.7844 43.7848C23.4892 43.8176 23.1939 43.8176 22.8659 43.8504C21.3568 43.916 20.1758 44.3097 19.2244 44.8346L19.1588 44.8674C18.9619 44.9986 18.7323 45.1299 18.5355 45.2611C16.9936 46.3765 16.2718 47.8528 15.9766 48.5417L19.7493 54.1187L19.7821 54.1515C19.9789 54.4468 19.9133 54.8733 19.6181 55.0701L18.1746 56.0215L18.109 56.0871C17.8137 56.2839 17.4201 56.1855 17.2232 55.8903L2.29644 33.8446L2.26364 33.8118C2.0668 33.5165 2.13241 33.09 2.42767 32.8932L3.87114 31.909L3.93675 31.8762C4.232 31.6794 4.62568 31.7778 4.82251 32.073L5.21619 32.6635ZM4.69129 34.1726L4.10078 33.3525L3.70711 33.6149L17.9449 54.6108L18.3386 54.3484L14.73 49.0338L14.6971 48.9682L11.5478 44.3097L11.515 44.2441L7.67664 38.6014C7.64384 38.5686 7.64384 38.5686 7.64384 38.5358L4.72409 34.2382L4.69129 34.1726ZM31.7563 33.5165C31.4611 32.3683 31.1658 31.1873 30.8705 30.0391C29.8208 31.1545 28.9678 31.9746 28.1148 32.5651L28.9022 34.9272L29.1974 35.7801C29.952 35.2224 30.7721 34.4679 31.7563 33.5165ZM26.5073 33.3853C25.6216 33.7133 24.6702 33.8118 23.522 33.7461L25.4575 37.3548C26.1137 37.2892 26.7042 37.158 27.2291 36.9611C27.5243 36.8299 27.7868 36.6987 28.082 36.5347L27.6884 35.3536L26.9666 33.2212C26.8026 33.2869 26.6714 33.3525 26.5073 33.3853ZM23.9813 37.3548L21.9473 33.5821C21.3896 33.5165 20.7335 33.3853 20.0445 33.2541C19.5853 33.1556 19.0932 33.1228 18.6011 33.1556L20.9959 37.1252C21.1928 37.1252 21.4224 37.158 21.652 37.158C22.5378 37.2564 23.2923 37.3548 23.9813 37.3548ZM28.5085 37.8141C28.2461 37.9453 27.9836 38.0765 27.7212 38.175C27.1963 38.3718 26.6714 38.503 26.1137 38.6014L28.1476 42.3413C28.771 42.2757 29.3287 42.1773 29.9192 41.9805C29.5583 40.9307 29.0662 39.4544 28.5085 37.8141ZM24.703 38.6999C23.85 38.6999 22.9315 38.6343 21.7833 38.503L24.1453 42.4726C24.8014 42.4398 25.4247 42.4398 25.9496 42.407H26.7042L24.703 38.6999ZM22.669 42.5382L20.2742 38.4702C19.2244 38.6343 18.2074 39.0607 17.256 39.6512C17.0264 39.8153 16.8295 39.9465 16.6327 40.1105L19.0604 43.4567C20.0445 42.9647 21.2584 42.6366 22.669 42.5382ZM19.5524 37.2892L17.1904 33.3197C16.4031 33.5165 15.6157 33.7789 14.8284 34.1398C14.2051 34.4351 13.5817 34.7959 12.9912 35.1568L15.8454 39.0279C16.075 38.8639 16.3046 38.6999 16.5343 38.5686C17.4857 37.9453 18.5027 37.486 19.5524 37.2892ZM14.8284 39.8809L11.9086 35.8785C10.7932 36.6987 9.80904 37.5516 9.0545 38.2734L12.1055 42.8006C12.86 41.8164 13.7786 40.7666 14.8284 39.8809ZM32.15 34.96C31.1986 35.8457 30.3785 36.5347 29.6567 37.0924C30.1816 38.6999 30.7065 40.2089 31.133 41.4556C31.7891 41.1603 32.5437 40.7338 33.4622 40.1433C33.2326 39.192 32.7405 37.2236 32.15 34.96ZM17.9121 44.1129L15.6157 40.9307C14.5659 41.8492 13.6145 42.9318 12.86 43.916L15.1236 47.2951C15.6157 46.3765 16.4359 45.1955 17.7809 44.2113L17.9121 44.1129Z" fill="#EFCC13"/>
<path fill-rule="evenodd" clip-rule="evenodd" d="M28.3116 9.01034C27.4915 8.41983 26.6057 7.53407 25.5231 6.32024C25.9496 4.64713 26.3761 3.13805 26.6385 2.18667C27.2947 2.97402 28.3116 4.12223 29.6895 5.008L28.3116 9.01034ZM29.4599 9.73207L30.8377 5.69693C32.0843 6.28744 33.5278 6.6483 35.1681 6.48427L33.1997 10.1257C31.8547 10.2898 30.8377 10.257 29.9191 9.92891C29.7551 9.8633 29.6239 9.79769 29.4599 9.73207ZM34.8072 9.89611L36.874 6.0906C37.0053 6.05779 37.1693 5.99218 37.3333 5.92657C38.4159 5.50009 39.4985 5.40167 40.5811 5.50009L38.1207 9.66646C37.3005 9.56804 36.5132 9.56804 35.693 9.73207C35.3978 9.79769 35.1025 9.8633 34.8072 9.89611ZM39.4985 9.89611L41.959 5.76254C42.5495 5.92657 43.14 6.1234 43.6977 6.38585C44.5178 6.77953 45.5348 7.40284 46.4862 8.12458L43.7633 11.8645C43.1072 11.438 42.4183 11.0443 41.6965 10.7163C40.9748 10.3882 40.2531 10.0929 39.4985 9.89611ZM44.8459 12.5862L47.536 8.91192C48.5202 9.76488 49.406 10.6835 49.9637 11.5692L47.7 14.9482C46.9127 14.2265 45.9285 13.3736 44.8459 12.5862ZM50.751 10.421C50.0293 9.43682 49.0123 8.45264 47.9297 7.56687C47.8969 7.53407 47.8313 7.50126 47.7985 7.46845C47.7656 7.43565 47.7328 7.40284 47.7 7.40284C46.519 6.45147 45.2724 5.69693 44.2554 5.20483C43.4681 4.84397 42.6479 4.54871 41.7949 4.38468L41.7621 4.35188C40.1546 4.02381 38.5143 4.05662 36.8412 4.71274C34.348 5.66412 32.2484 5.07361 30.6409 4.08943C28.9678 3.03963 27.8195 1.56336 27.2947 0.87443L27.229 0.776012C27.0978 0.611982 26.9994 0.480757 26.901 0.415145C26.5401 -0.0113342 25.9496 0.218308 25.72 0.743206C25.6543 0.940042 25.5887 1.20249 25.5231 1.36652L25.4903 1.43213C24.9326 3.33489 24.4077 5.33606 23.9156 7.27162C22.7346 11.7661 21.3896 16.9822 21.1271 17.9992C21.0615 18.2617 21.1599 18.5897 21.4224 18.7537C25.5559 21.411 26.5401 21.411 30.0176 21.4767C30.6409 21.5095 31.3298 21.5095 32.15 21.5423C32.1828 21.5423 32.1828 21.5423 32.2156 21.5423C32.5108 21.5751 32.8061 21.5751 33.1341 21.6079C34.6432 21.6735 35.8242 22.0672 36.7756 22.5921L36.8084 22.6249C37.0381 22.7561 37.2349 22.8873 37.4317 23.0185C38.9736 24.1339 39.7282 25.6102 39.9906 26.2992L36.2507 31.8762L36.2179 31.909C35.9883 32.2042 36.0867 32.6307 36.3819 32.8276L37.8254 33.8117L37.8582 33.8446C38.1535 34.0414 38.5799 33.9758 38.7768 33.6477L53.7036 11.6348L53.7364 11.5692C53.9332 11.274 53.8676 10.8475 53.5395 10.6506L52.1289 9.69927L52.0632 9.66646C51.768 9.43682 51.3743 9.53524 51.1447 9.83049L50.751 10.421ZM51.3087 11.9629L51.8664 11.1099L52.2929 11.3724L38.055 32.4011L37.6614 32.1058L41.27 26.7912L41.3029 26.7256L44.4522 22.0672L44.485 22.0016L48.3234 16.3589C48.3234 16.3261 48.3562 16.3261 48.3562 16.2933L51.2759 11.9957L51.3087 11.9629ZM24.2109 11.274C24.5061 10.1257 24.8342 8.94473 25.1294 7.82932C26.1464 8.91192 27.0322 9.73207 27.8852 10.3226L27.065 12.6846L26.7698 13.5376C26.048 12.9799 25.2279 12.2253 24.2109 11.274ZM29.4927 11.1427C30.3784 11.4708 31.3298 11.5692 32.4452 11.5036L30.5425 15.1123C29.8863 15.0467 29.2958 14.9154 28.7709 14.7186C28.4757 14.6202 28.1804 14.4562 27.918 14.2921L28.3116 13.1111L29.0334 10.9787C29.1974 11.0443 29.3286 11.1099 29.4927 11.1427ZM32.0187 15.1451L34.0199 11.3396C34.6104 11.274 35.2337 11.1755 35.9555 11.0115C36.4147 10.9459 36.9068 10.9131 37.3661 10.9131L35.0041 14.8826C34.8072 14.8826 34.5776 14.9154 34.348 14.9482C33.4622 15.0467 32.6748 15.1123 32.0187 15.1451ZM27.4915 15.5716C27.7539 15.7028 28.0164 15.834 28.2788 15.9324C28.8037 16.1293 29.2958 16.2605 29.8535 16.3589L27.8524 20.0988C27.229 20.0332 26.6713 19.9348 26.0808 19.7379C26.4417 18.6881 26.9338 17.2447 27.4915 15.5716ZM31.297 16.4573C32.1171 16.4573 33.0685 16.3917 34.1839 16.2605L31.8547 20.23C31.1658 20.1972 30.5753 20.1972 30.0504 20.1972L29.2958 20.1644L31.297 16.4573ZM33.331 20.2956L35.7258 16.2605C36.7756 16.3917 37.7926 16.8182 38.744 17.4415C38.9408 17.5727 39.1705 17.704 39.3673 17.868L36.9068 21.2142C35.9227 20.7221 34.7416 20.3941 33.331 20.2956ZM36.4475 15.0467L38.7768 11.0771C39.5969 11.274 40.3843 11.5364 41.1716 11.8973C41.7949 12.1925 42.3855 12.5534 42.976 12.9143L40.1546 16.8182C39.925 16.6542 39.6954 16.4901 39.4329 16.3261C38.5143 15.7356 37.4973 15.2763 36.4475 15.0467ZM41.1716 17.6383L44.0586 13.636C45.174 14.4562 46.1582 15.3091 46.9455 16.0637L43.8945 20.5581C43.1072 19.5739 42.1886 18.5241 41.1716 17.6383ZM23.85 12.7174C24.8014 13.6032 25.5887 14.2921 26.3433 14.8498C25.7856 16.4573 25.2935 17.9664 24.867 19.2458C24.2109 18.9178 23.4563 18.4913 22.505 17.9008C22.7674 16.9494 23.2595 14.981 23.85 12.7174ZM38.055 21.8703L40.3843 18.6881C41.4341 19.6067 42.3526 20.6893 43.14 21.7063L40.8436 25.0525C40.3843 24.1668 39.5641 22.9529 38.2191 21.9687L38.055 21.8703Z" fill="#EFCC13"/>
</g>
<defs>
<clipPath id="clip0_49_249">
<rect width="56" height="56" fill="white" transform="translate(0 0.185486)"/>
</clipPath>
</defs>
</svg>
