<svg width="233" height="37" viewBox="0 0 233 37" fill="none" xmlns="http://www.w3.org/2000/svg">
<path d="M119.256 32.8956C89.7227 33.4012 60.2868 36.112 30.7812 36.8283C22.0518 37.2559 13.3018 36.8845 4.63921 35.7187C3.82968 35.5923 3.02018 35.3957 2.21066 35.185C1.09407 34.89 0.0891274 34.4125 0.0053838 33.0641C-0.0783598 31.7157 0.828862 31.2663 1.75004 30.8168C6.89105 28.5494 12.2779 26.8949 17.8009 25.8869C28.5834 23.5009 39.537 21.9792 50.5586 21.3361C51.9334 21.3159 53.2877 20.9967 54.5284 20.4003C55.7691 19.8039 56.867 18.9444 57.7466 17.8809C58.9333 16.3244 60.5102 15.1137 62.3155 14.3732C64.1208 13.6327 66.0893 13.389 68.0191 13.6672C68.5602 13.7528 69.1138 13.7041 69.6319 13.5254C70.15 13.3467 70.6169 13.0435 70.992 12.6419C73.5741 10.2401 76.2958 8.8496 80.1759 9.57997C84.056 10.3103 87.7826 8.56869 91.3417 7.16414C94.6217 5.84386 97.7621 4.91689 101.21 5.61916C101.949 5.81484 102.726 5.80863 103.462 5.60125C104.198 5.39387 104.866 4.99278 105.397 4.4393C106.227 3.70359 107.119 3.04106 108.063 2.45892C112.724 -0.72942 116.172 -0.8699 120.778 2.34653C121.564 2.96743 122.519 3.33234 123.517 3.39257C124.514 3.4528 125.506 3.20547 126.36 2.68361C135.447 -1.65646 142.481 -0.125472 148.943 7.62767C149.56 8.5469 150.477 9.21917 151.536 9.52721C152.594 9.83524 153.727 9.75946 154.736 9.3131C158.838 7.8919 163.175 7.2861 167.507 7.52934C170.647 7.59245 173.737 8.33072 176.571 9.69459C179.404 11.0585 181.915 13.0164 183.934 15.437C184.294 15.9682 184.791 16.3911 185.371 16.6607C185.951 16.9303 186.593 17.0365 187.228 16.9679C190.926 16.7102 194.617 17.545 197.85 19.3697C198.48 19.7401 199.189 19.9526 199.918 19.9893C200.646 20.0259 201.373 19.8857 202.037 19.5804C209.476 16.687 215.059 18.3304 219.553 24.9318C221.242 27.4038 222.666 29.3982 226.211 28.8645C227.375 28.7911 228.537 29.0339 229.576 29.5677C230.614 30.1014 231.491 30.9064 232.115 31.8984C232.673 32.6287 233.301 33.4012 232.84 34.4125C232.38 35.4238 231.333 35.3816 230.44 35.3676C225.387 35.2412 220.349 34.7074 215.282 34.7355C194.025 34.876 172.838 32.8956 151.581 32.9237L119.256 32.8956ZM212.295 33.6681C217.627 33.6681 222.959 33.6681 228.29 33.6681C228.891 33.6681 229.686 33.9911 229.979 33.1905C230.272 32.3899 229.547 31.786 228.946 31.4208C227.299 30.2831 225.387 30.55 223.587 30.7045C222.749 30.8807 221.876 30.7329 221.141 30.2904C220.406 29.8479 219.865 29.1432 219.623 28.3167C216.036 20.4231 209.323 17.9371 201.66 21.5889C201.074 21.9138 200.409 22.0638 199.741 22.0216C199.074 21.9793 198.432 21.7464 197.892 21.3501C194.594 19.251 190.716 18.2668 186.823 18.541C186.056 18.6494 185.275 18.5459 184.562 18.2416C183.849 17.9373 183.231 17.4436 182.776 16.8134C180.366 13.6228 176.999 11.2983 173.173 10.184C167.256 8.62919 161.014 8.87848 155.238 10.9003C153.933 11.4655 152.476 11.5648 151.107 11.1815C149.739 10.7983 148.542 9.95564 147.715 8.79343C141.267 1.34929 135.628 0.183519 126.668 4.36909C125.623 4.9473 124.434 5.20859 123.245 5.12135C122.057 5.0341 120.918 4.60206 119.968 3.87749C115.558 0.871742 112.641 1.06839 108.384 4.20055C107.355 4.98127 106.376 5.82562 105.453 6.72873C104.973 7.18835 104.378 7.50923 103.732 7.65754C103.086 7.80585 102.412 7.77611 101.782 7.57147C97.8319 6.91133 93.6307 6.26524 90.7974 10.3806C90.3508 11.0267 89.5273 11.5604 88.9271 10.9284C87.6291 9.52382 86.3869 10.3384 85.1168 10.7317C83.4851 11.3957 81.7033 11.5949 79.9666 11.3076C76.547 10.4227 74.1045 11.8273 71.8574 14.1167C71.02 14.9735 70.0848 15.9286 68.7449 15.5213C64.2227 14.201 61.0963 16.4483 58.3886 19.6085C57.5141 20.6085 56.4416 21.4137 55.2398 21.9724C54.0381 22.5311 52.7336 22.8311 51.41 22.853C40.3086 23.567 29.2725 25.0831 18.3871 27.3897C13.543 28.4853 8.77372 29.8928 4.10882 31.6034C3.45283 31.8422 2.47583 31.9264 2.54562 32.8534C2.6154 33.7804 3.62033 33.7664 4.29027 33.8788C6.09399 34.2332 7.91591 34.4864 9.74757 34.6372C22.4232 35.2802 35.124 35.238 47.7951 34.5108C70.2104 33.4995 92.5839 31.786 115.013 31.2944C147.436 30.6904 179.873 31.7719 212.295 33.6681Z" fill="#9D9D9D"/>
</svg>
