<svg width="56" height="57" viewBox="0 0 56 57" fill="none" xmlns="http://www.w3.org/2000/svg">
<path d="M49.7 16.0029C47.9842 16.0059 46.2892 16.378 44.73 17.094L25.8483 25.809L14.9546 22.2941L11.2796 16.4141C11.1754 16.2478 11.0184 16.1213 10.8337 16.0549C10.6489 15.9886 10.4473 15.9863 10.2611 16.0484L7.6361 16.9234C7.44267 16.9878 7.27781 17.1177 7.16998 17.2907C7.06214 17.4637 7.01811 17.669 7.04547 17.871L7.31322 19.8293L6.43122 19.5449C6.21322 19.4741 5.97609 19.4924 5.77147 19.5956L2.27147 21.3456C2.12609 21.4183 2.00383 21.53 1.91837 21.6682C1.83292 21.8065 1.78766 21.9658 1.78766 22.1283C1.78766 22.2908 1.83292 22.4501 1.91837 22.5884C2.00383 22.7266 2.12609 22.8383 2.27147 22.911L8.13397 25.8414L9.3196 34.5406L3.68985 33.5178C3.55073 33.4911 3.40717 33.4991 3.27193 33.5413C3.13668 33.5834 3.01394 33.6583 2.9146 33.7593L1.1646 35.5093C1.06096 35.6128 0.984966 35.7407 0.94359 35.8812C0.902215 36.0217 0.896778 36.1703 0.92778 36.3135C0.958781 36.4567 1.02523 36.5898 1.12103 36.7006C1.21683 36.8114 1.33892 36.8964 1.4761 36.9478L6.6281 38.8798C6.76547 38.9305 6.90635 38.9673 7.0446 39.0145C7.07317 39.8816 7.43725 40.7038 8.06013 41.3077C8.683 41.9117 9.51601 42.2502 10.3836 42.252H16.6582C16.8621 42.252 17.0625 42.231 17.2655 42.2223L20.6421 43.9101C20.7639 43.9692 20.8978 43.9991 21.0332 43.9976C21.1273 43.9982 21.2208 43.9828 21.3097 43.9521L23.9347 43.0771C24.0861 43.0266 24.2207 42.9356 24.3241 42.8141C24.4275 42.6925 24.4957 42.545 24.5213 42.3875C24.5469 42.23 24.5289 42.0685 24.4693 41.9204C24.4097 41.7724 24.3108 41.6435 24.1832 41.5476L23.0728 40.7155L31.423 37.1735L43.3982 43.036C43.5179 43.094 43.6493 43.1239 43.7823 43.1235C43.8537 43.1235 43.9249 43.1147 43.9941 43.0973L47.4941 42.2223C47.6495 42.1835 47.7913 42.1028 47.9041 41.989C48.0168 41.8752 48.0961 41.7327 48.1334 41.5769C48.1707 41.4211 48.1645 41.258 48.1155 41.1055C48.0665 40.953 47.9765 40.8169 47.8555 40.712L39.718 33.656L42.14 32.6288C46.4466 30.8069 50.3601 28.169 53.6646 24.8605C54.6209 23.9042 55.1582 22.6071 55.1582 21.2546C55.1582 19.9022 54.6209 18.6051 53.6646 17.6488C53.1454 17.1259 52.5276 16.7113 51.8471 16.4288C51.1666 16.1463 50.4368 16.0015 49.7 16.0029ZM45.4632 18.6839C46.7922 18.0727 48.2372 17.7552 49.7 17.7529C50.2256 17.7536 50.7456 17.862 51.2277 18.0714C49.8527 18.3382 48.5198 18.7888 47.2648 19.411L45.1456 20.4706L45.9278 22.036L48.048 20.9764C49.5814 20.2135 51.2427 19.741 52.948 19.5825C53.2466 20.0887 53.4054 20.6652 53.4082 21.2529C53.4082 21.3141 53.3942 21.3719 53.3907 21.4279C51.291 21.6792 49.2393 22.236 47.3007 23.0808L33.7496 29.0308C33.4166 28.4888 32.9018 28.0828 32.2971 27.8854L28.3036 26.6018L45.4632 18.6839ZM12.3655 21.4603L11.4905 21.1776L11.2035 19.6026L12.3655 21.4603ZM8.87335 18.354L9.17785 18.2516L9.5996 20.5678L9.15597 20.4251L8.87335 18.354ZM6.22997 21.3203L31.7625 29.5549C31.9502 29.6158 32.1139 29.7344 32.2303 29.8937C32.3468 30.0531 32.4099 30.2451 32.4109 30.4425C32.4119 30.6398 32.3506 30.8325 32.2357 30.9929C32.1209 31.1534 31.9583 31.2736 31.7712 31.3364L28.7743 32.3348C27.336 32.8072 25.7696 32.696 24.4125 32.025L4.61472 22.1279L6.22997 21.3203ZM13.4662 32.0565L12.7575 28.1558L16.695 30.1236C15.5864 30.7123 14.5087 31.3575 13.4662 32.0565ZM10.801 27.1775L11.8912 33.173C11.5858 33.4031 11.291 33.6481 10.9917 33.8888L10.024 26.7855L10.801 27.1775ZM3.36347 35.7866L3.82897 35.3211L11.011 36.6275C11.1491 36.686 11.2627 36.7904 11.3327 36.9231C11.4027 37.0557 11.4247 37.2085 11.3951 37.3555C11.3654 37.5025 11.286 37.6348 11.1701 37.73C11.0542 37.8252 10.9089 37.8774 10.759 37.8779C9.55801 37.8785 8.36677 37.6628 7.24235 37.2409L3.36347 35.7866ZM8.89347 39.4713C9.51015 39.573 10.134 39.6254 10.759 39.6279C11.2728 39.629 11.7733 39.4649 12.1868 39.1598C12.6002 38.8548 12.9046 38.4248 13.055 37.9335C13.2055 37.4422 13.194 36.9156 13.0222 36.4313C12.8505 35.9471 12.5276 35.5309 12.1012 35.2441C14.1168 33.6228 16.306 32.23 18.6287 31.0914L23.5086 33.5309L21.6903 34.3289C18.317 35.8094 15.2475 37.9028 12.6376 40.5029H10.3836C10.0601 40.5021 9.74438 40.4033 9.47819 40.2195C9.21199 40.0356 9.00781 39.7753 8.8926 39.473L8.89347 39.4713ZM21.1006 42.1855L20.2545 41.7629C20.5613 41.6795 20.8658 41.5858 21.168 41.482L21.7971 41.9536L21.1006 42.1855ZM45.4387 40.9369L43.8803 41.3263L33.5553 36.274L37.9198 34.4216L45.4387 40.9369ZM41.4531 31.0214L21.3578 39.5465C19.8721 40.1797 18.2733 40.505 16.6582 40.5029H15.2031C17.3527 38.6218 19.7773 37.0806 22.393 35.9328L26.068 34.321C27.1657 34.4581 28.2803 34.3466 29.3291 33.9946L32.3207 32.998C32.8016 32.8378 33.2271 32.5444 33.5477 32.1519C33.8684 31.7594 34.071 31.2839 34.132 30.7808L48.0042 24.6855C49.5072 24.0273 51.0857 23.5571 52.7038 23.2855C52.6193 23.4038 52.5269 23.5164 52.4273 23.6224C49.2813 26.7741 45.5546 29.2867 41.4531 31.0214Z" fill="#EFCC13"/>
<path d="M35 5.43551C34.3876 5.43422 33.7858 5.59545 33.2561 5.90276C32.3925 5.12799 31.2962 4.66176 30.1391 4.5772C28.982 4.49264 27.8295 4.79452 26.8625 5.43551C26.4804 4.14546 25.6838 3.0173 24.596 2.22562C23.5081 1.43394 22.1896 1.02288 20.8446 1.05606C19.4996 1.08924 18.203 1.5648 17.1555 2.40915C16.108 3.25351 15.368 4.41957 15.05 5.72688C14.0958 6.09371 13.3002 6.78309 12.8013 7.67534C12.3024 8.5676 12.1317 9.60638 12.3188 10.6114C12.5059 11.6164 13.0391 12.5241 13.8257 13.177C14.6123 13.8299 15.6027 14.1867 16.625 14.1855H21.1242C21.3176 14.9346 21.7538 15.5986 22.3646 16.0735C22.9754 16.5484 23.7263 16.8076 24.5 16.8105H37.625C38.7177 16.811 39.7711 16.4025 40.5778 15.6654C41.3846 14.9284 41.8863 13.9161 41.9842 12.8278C42.0822 11.7394 41.7694 10.6538 41.1072 9.78452C40.4451 8.91523 39.4816 8.3252 38.4064 8.13051C38.2242 7.36377 37.7889 6.68078 37.1709 6.19181C36.5529 5.70283 35.7881 5.4364 35 5.43551ZM21.1242 12.4355H16.625C15.9823 12.4353 15.362 12.1994 14.8817 11.7724C14.4014 11.3455 14.0944 10.7571 14.0188 10.1189C13.9433 9.48069 14.1046 8.83694 14.472 8.30968C14.8395 7.78241 15.3876 7.40826 16.0125 7.25813C16.1823 7.21762 16.3361 7.12724 16.4542 6.99859C16.5722 6.86995 16.6491 6.70894 16.6748 6.53626C16.8385 5.47792 17.3847 4.51636 18.2099 3.83377C19.0351 3.15117 20.082 2.79495 21.1522 2.83259C22.2225 2.87022 23.2418 3.29911 24.017 4.03799C24.7922 4.77686 25.2694 5.77441 25.3583 6.84163C25.3625 6.86642 25.3681 6.89096 25.375 6.91513C24.8035 7.77254 24.499 8.78011 24.5 9.81051C23.7263 9.81341 22.9754 10.0726 22.3646 10.5475C21.7538 11.0225 21.3176 11.6864 21.1242 12.4355ZM40.25 12.4355C40.25 13.1317 39.9734 13.7994 39.4811 14.2917C38.9888 14.7839 38.3212 15.0605 37.625 15.0605H24.5C24.0358 15.0605 23.5907 14.8761 23.2625 14.5479C22.9343 14.2198 22.75 13.7746 22.75 13.3105C22.75 12.8464 22.9343 12.4013 23.2625 12.0731C23.5907 11.7449 24.0358 11.5605 24.5 11.5605C24.7269 11.5586 24.9517 11.6045 25.1597 11.6953C25.3111 11.7625 25.4785 11.7853 25.6424 11.7612C25.8063 11.737 25.96 11.6668 26.0855 11.5587C26.2111 11.4507 26.3034 11.3092 26.3517 11.1507C26.4 10.9923 26.4024 10.8234 26.3585 10.6636C26.284 10.3855 26.2475 10.0985 26.25 9.81051C26.2501 9.08548 26.4754 8.37838 26.8947 7.78689C27.314 7.19541 27.9066 6.74875 28.5907 6.50861C29.2748 6.26847 30.0166 6.24671 30.7136 6.44634C31.4107 6.64596 32.0285 7.05712 32.4817 7.62301C32.5588 7.7186 32.6551 7.7969 32.7644 7.85283C32.8737 7.90876 32.9935 7.94106 33.1161 7.94764C33.2388 7.95549 33.3618 7.93672 33.4765 7.89262C33.5913 7.84852 33.6952 7.78013 33.7811 7.69214C33.9407 7.53129 34.1306 7.40369 34.3398 7.31673C34.549 7.22976 34.7734 7.18516 35 7.18551C35.4641 7.18551 35.9092 7.36988 36.2374 7.69807C36.5656 8.02626 36.75 8.47138 36.75 8.93551C36.75 9.16757 36.8422 9.39013 37.0063 9.55423C37.1704 9.71832 37.3929 9.81051 37.625 9.81051C38.3212 9.81051 38.9888 10.0871 39.4811 10.5794C39.9734 11.0716 40.25 11.7393 40.25 12.4355Z" fill="#EFCC13"/>
<path d="M17.9828 44.0275L12.7338 46.652L13.5164 48.2172L18.7654 45.5927L17.9828 44.0275Z" fill="#EFCC13"/>
<path d="M12.7335 43.153L0.483887 49.2778L1.26651 50.843L13.5161 44.7182L12.7335 43.153Z" fill="#EFCC13"/>
<path d="M39.8125 42.301L36.4989 44.198C35.8719 43.3974 35.0258 42.7963 34.0634 42.4679C33.101 42.1395 32.0639 42.0979 31.0784 42.3482C30.0928 42.5986 29.2013 43.13 28.5123 43.8779C27.8233 44.6257 27.3665 45.5578 27.1976 46.5605H27.125C25.9647 46.5605 24.8519 47.0214 24.0314 47.8419C23.2109 48.6624 22.75 49.7752 22.75 50.9355C22.75 52.0958 23.2109 53.2086 24.0314 54.0291C24.8519 54.8496 25.9647 55.3105 27.125 55.3105H36.75C37.6114 55.3129 38.4433 54.9976 39.0868 54.425C39.7302 53.8523 40.1399 53.0625 40.2374 52.2067C40.3348 51.3509 40.1133 50.4892 39.6152 49.7865C39.1171 49.0837 38.3773 48.5894 37.5375 48.398C37.7048 47.5071 37.636 46.588 37.338 45.7319L40.6875 43.82L39.8125 42.301ZM35.875 47.4355C35.8738 47.9299 35.7704 48.4188 35.5714 48.8714C35.507 49.019 35.4847 49.1815 35.5068 49.3411C35.5289 49.5006 35.5945 49.6509 35.6966 49.7755C35.7987 49.9001 35.9331 49.9941 36.0852 50.0472C36.2372 50.1002 36.401 50.1103 36.5584 50.0763C36.6215 50.0643 36.6857 50.059 36.75 50.0605C37.2141 50.0605 37.6592 50.2449 37.9874 50.5731C38.3156 50.9013 38.5 51.3464 38.5 51.8105C38.5 52.2746 38.3156 52.7198 37.9874 53.048C37.6592 53.3761 37.2141 53.5605 36.75 53.5605H27.125C26.4288 53.5605 25.7611 53.2839 25.2688 52.7917C24.7766 52.2994 24.5 51.6317 24.5 50.9355C24.5 50.2393 24.7766 49.5716 25.2688 49.0794C25.7611 48.5871 26.4288 48.3105 27.125 48.3105C27.3515 48.3119 27.5769 48.3413 27.7961 48.398C27.9352 48.4328 28.0807 48.4329 28.2199 48.3983C28.359 48.3637 28.4875 48.2954 28.594 48.1995C28.7006 48.1036 28.7819 47.9829 28.8309 47.8482C28.8799 47.7134 28.8951 47.5687 28.875 47.4268C28.8743 46.7219 29.0872 46.0334 29.4856 45.4519C29.8841 44.8705 30.4493 44.4234 31.1069 44.1696C31.7645 43.9157 32.4835 43.8671 33.1693 44.0301C33.855 44.1931 34.4753 44.5601 34.9484 45.0826L33.691 45.801L34.559 47.32L35.7717 46.627C35.8378 46.8915 35.8724 47.1629 35.875 47.4355Z" fill="#EFCC13"/>
</svg>
