<svg width="268" height="209" viewBox="0 0 268 209" fill="none" xmlns="http://www.w3.org/2000/svg">
<path d="M79.724 122.787L83.3887 125.122C87.3396 127.651 91.2905 130.183 95.2413 132.716C96.4487 133.457 97.5525 134.354 98.5238 135.385C98.9007 135.747 99.1469 136.223 99.2236 136.739C99.3004 137.255 99.2034 137.782 98.9479 138.238C98.2832 139.529 97.3809 140.683 96.2884 141.64C95.6759 142.205 95.0843 141.949 94.4665 141.703C88.1528 139.196 81.8495 136.657 75.5148 134.197C69.1802 131.737 62.8141 129.366 56.3276 127.33C54.8869 126.861 53.367 126.683 51.8567 126.807C47.5903 127.152 43.3035 127.162 39.0355 126.838C36.8315 126.676 35.5855 125.551 35.109 123.384C34.8665 122.411 34.7608 121.408 34.7949 120.406C34.8413 120.102 34.7686 119.792 34.5921 119.541C34.4156 119.289 34.1488 119.115 33.8473 119.055C24.9474 115.664 16.0474 112.251 7.18412 108.828C-4.29159 104.369 -15.8511 100.088 -27.2116 95.3564C-28.1064 94.9935 -28.9803 94.5811 -29.8292 94.1212C-30.7349 93.5978 -30.7192 92.9017 -29.8292 92.4254C-28.6094 91.7816 -27.353 91.2059 -26.1122 90.5988C-25.5994 90.3796 -25.0278 90.339 -24.4893 90.4836C-4.82035 94.3201 14.8747 98.0204 34.4285 102.433C35.107 102.565 35.7767 102.74 36.4336 102.956C37.3288 103.281 37.512 102.883 37.5277 102.092C37.5853 98.5752 37.6691 95.0581 37.7476 91.5409C37.8157 88.4372 37.8523 85.3335 37.9884 82.2298C38.0356 81.183 37.6796 80.7434 36.6639 80.4607C24.9928 77.2541 13.3286 74.0143 1.67138 70.7414C-8.52169 67.8627 -18.5368 64.4188 -28.7298 61.5454C-33.2426 60.2736 -37.813 59.2268 -42.2996 57.8398C-43.3562 57.5298 -44.3246 56.9748 -45.1261 56.2199C-45.9276 55.465 -46.5394 54.5316 -46.9119 53.4957C-49.5296 47.215 -52.0634 40.9343 -54.2413 34.4862C-54.6654 33.23 -54.5449 32.916 -53.2885 32.6334C-48.7076 31.5342 -49.9955 30.9585 -47.8124 34.9258C-46.0167 38.1918 -44.3728 41.5362 -42.5771 44.8022C-41.0798 47.5395 -39.3312 50.0884 -36.6508 51.8627C-35.7141 52.5086 -34.6922 53.0211 -33.6143 53.3858C-26.5781 55.6416 -19.3587 57.2117 -12.1497 58.8918C0.545792 61.8647 13.2413 64.8428 25.9944 67.5435C29.7377 68.3338 33.5175 68.9828 37.266 69.7522C38.1769 69.9406 38.313 69.6161 38.313 68.831C38.423 62.969 38.58 57.1071 38.6795 51.2399C38.6637 50.8845 38.745 50.5316 38.9147 50.219C39.0844 49.9064 39.3361 49.6459 39.6428 49.4656C41.2844 48.3204 43.0099 47.3004 44.8048 46.4142C47.2025 45.268 49.0767 45.8908 50.3803 48.2042C51.1948 49.7674 51.7717 51.4432 52.0923 53.1764C53.6621 60.3191 55.7263 67.3442 58.2699 74.201C58.3639 74.4949 58.5162 74.7669 58.7177 75.0007C58.9192 75.2345 59.1657 75.4253 59.4426 75.5618C61.0816 76.3749 62.8182 76.9747 64.6098 77.3465C65.5332 77.5396 66.4954 77.3789 67.306 76.8964C68.4211 76.2736 69.5257 75.6351 70.646 75.0227C74.3107 73.0181 78.1115 73.3688 81.3731 75.991C82.3155 76.7446 83.284 77.4669 84.2316 78.2154C85.0064 78.8277 85.6974 78.7754 86.5665 78.2625C93.7022 74.0754 100.869 69.9144 108.031 65.7535C113.905 62.3357 119.826 58.9965 125.637 55.4793C130.967 52.25 136.631 51.9569 142.5 53.1973C144.602 53.6716 146.543 54.6854 148.133 56.1388C150.165 57.9288 151.274 60.1375 151.112 62.8905C150.816 67.875 149.211 72.6933 146.458 76.8598C145.615 78.0923 144.55 79.1572 143.317 80.0001C139.888 82.5019 136.485 85.0351 133.056 87.5369C131.846 88.4046 130.858 89.545 130.171 90.8657C130.083 90.9841 130.02 91.1189 129.984 91.2621C129.949 91.4053 129.943 91.5541 129.965 91.6998C129.988 91.8455 130.04 91.9852 130.118 92.1107C130.195 92.2362 130.297 92.345 130.417 92.4306C133.684 95.2517 137.123 97.8477 140.642 100.35C140.816 100.487 141.027 100.569 141.248 100.585C141.47 100.601 141.691 100.55 141.882 100.438C142.786 100.007 143.734 99.6748 144.709 99.4493C145.09 99.3313 145.493 99.2997 145.888 99.3568C146.283 99.4138 146.66 99.558 146.992 99.779C147.351 99.989 147.777 100.051 148.18 99.9518C149.533 99.8209 150.886 100.194 151.981 100.999C154.248 102.71 154.342 105.186 152.227 107.049C151.285 107.886 151.28 107.892 152.342 108.551C160.974 113.884 169.872 118.776 179 123.206C191.199 129.214 203.046 135.882 214.878 142.571C217.097 143.828 219.401 144.937 221.652 146.136C222.317 146.492 222.699 146.387 223.191 145.754C226.223 141.682 229.72 137.992 232.819 133.977C233.128 133.574 233.489 133.197 234.028 133.506C234.568 133.815 234.29 134.291 234.138 134.7C232.84 138.191 230.845 141.294 228.715 144.314C227.202 146.455 225.668 148.585 223.678 150.333C221.553 152.197 219.296 152.882 216.438 151.945C211.307 150.265 206.418 148.025 201.465 145.932C190.759 141.399 180.084 136.804 169.394 132.24C168.82 132.016 168.289 131.695 167.823 131.292C167.364 130.938 166.81 130.728 166.232 130.688C165.653 130.648 165.076 130.78 164.572 131.067C163.342 131.821 162.159 132.69 160.667 132.889C159.174 133.088 158.693 132.459 159.096 131.093C159.283 130.465 159.547 129.862 159.881 129.298C160.326 128.555 160.201 128.204 159.358 127.854C155.892 126.393 152.421 124.938 149.034 123.316C147.343 122.51 145.845 122.128 144.144 123.222C143.334 123.7 142.41 123.95 141.469 123.944C140.464 123.944 140.045 123.473 140.333 122.52C140.479 122.098 140.684 121.698 140.94 121.332C141.6 120.312 141.61 120.317 140.469 119.788C139.998 119.574 139.511 119.401 139.05 119.165C137.919 118.59 136.836 118.386 135.658 119.165C135.311 119.37 134.919 119.483 134.517 119.495C134.115 119.507 133.717 119.417 133.359 119.233C132.506 118.851 131.899 118.213 132.15 117.218C132.318 116.548 132.103 116.308 131.527 116.077C129.572 115.296 127.632 114.485 125.705 113.644C125.447 113.513 125.159 113.454 124.87 113.471C124.581 113.489 124.302 113.582 124.061 113.743C123.141 114.292 122.147 114.706 121.109 114.973C120.87 115.077 120.606 115.11 120.349 115.069C120.092 115.027 119.852 114.912 119.659 114.738C119.235 114.282 119.392 113.78 119.575 113.282C120.219 111.54 120.214 111.534 118.465 110.948C116.24 110.205 114.005 109.488 111.795 108.708C111.394 108.554 110.963 108.493 110.534 108.528C110.105 108.564 109.69 108.695 109.319 108.912C106.675 110.405 103.944 111.738 101.141 112.906C99.3912 113.649 97.5305 114.1 95.634 114.24C94.9767 114.292 94.3465 114.524 93.8121 114.91C92.341 115.873 90.8437 116.805 89.3988 117.81C86.7487 119.746 83.8203 121.269 80.7135 122.327C80.3758 122.463 80.0455 122.617 79.724 122.787ZM50.1081 125.792C49.8463 125.268 49.417 125.305 49.0872 125.19C47.1711 124.514 45.166 124.075 43.3284 123.164C41.1505 122.086 40.9621 120.73 42.7054 119.082C43.8376 118.065 45.1472 117.264 46.569 116.721C50.8096 114.952 55.1863 113.581 59.5682 112.23C60.258 111.98 60.9973 111.897 61.7253 111.988C62.4534 112.079 63.1495 112.342 63.7564 112.754C68.2012 115.601 72.6826 118.38 77.1378 121.212C77.4489 121.457 77.8155 121.622 78.2052 121.692C78.595 121.762 78.9961 121.736 79.3732 121.615C82.3722 120.65 85.2268 119.283 87.8596 117.553C89.9537 116.135 92.074 114.8 94.189 113.429C94.5346 113.204 94.8749 112.906 95.3199 113.01C96.3669 113.256 97.3145 112.963 98.2726 112.696C101.691 111.754 104.79 110.079 107.895 108.415C108.11 108.3 108.419 108.164 108.335 107.892C107.932 106.641 108.9 106.049 109.57 105.374C114.318 100.605 119.427 96.2095 124.852 92.2265C125.7 91.5638 126.714 91.1489 127.784 91.028C128.125 91.0249 128.458 90.9188 128.738 90.7237C129.018 90.5285 129.233 90.2533 129.354 89.9341C129.745 89.0029 130.373 88.1906 131.176 87.5788C134.171 85.3597 137.139 83.1038 140.207 80.9946C143.348 78.8173 145.966 76.2527 147.536 72.6203C148.753 69.8002 149.572 66.8253 149.971 63.7803C150.198 62.3905 150.027 60.9648 149.478 59.668C148.928 58.3713 148.023 57.2566 146.866 56.4528C145.953 55.7117 144.926 55.1231 143.825 54.7099C137.945 52.7368 132.119 52.9357 126.716 55.9975C115.313 62.4613 104.042 69.1503 92.6865 75.745C85.3571 80.0123 78.0278 84.2815 70.6984 88.5523C70.4262 88.7093 69.9236 88.7931 70.0649 89.2223C70.1749 89.5468 70.5885 89.374 70.9078 89.4002C71.0125 89.4002 71.112 89.4002 71.2167 89.4002L78.2529 89.2432C78.6717 89.2432 79.1638 89.2432 79.3732 89.6253C79.6245 90.1016 79.1115 90.3423 78.8497 90.6145C77.1761 92.2601 75.4033 93.8018 73.5411 95.2308C67.1594 100.276 60.1441 104.348 53.1236 108.384C48.2234 111.236 43.475 114.413 38.0146 116.109C37.5641 116.25 37.1613 116.513 36.8509 116.868C36.5404 117.224 36.3344 117.658 36.2556 118.124C35.9035 119.532 35.8253 120.994 36.0252 122.431C36.4597 124.907 37.177 125.619 39.6899 125.812C42.3399 126 44.9982 126.042 47.6527 125.938C48.438 125.928 49.239 125.849 50.1081 125.792ZM38.8732 86.867C38.7999 93.2471 38.3497 103.553 38.3497 113.863C38.3497 114.701 38.5486 114.795 39.2763 114.523C40.7379 113.998 42.1618 113.374 43.5378 112.654C49.2129 109.582 54.7047 106.201 60.2907 102.956C66.0384 99.6583 71.4465 95.8014 76.4363 91.4414C76.698 91.2111 77.253 91.0541 77.0645 90.6197C76.876 90.1853 76.3787 90.447 76.0174 90.447C73.5359 90.447 71.0492 90.447 68.5676 90.4051C65.2014 90.3162 62.6623 88.9292 61.4372 85.6109C61.2487 85.0875 60.966 84.6112 60.7723 84.0983C57.071 74.3999 53.4429 64.6805 51.2441 54.4954C50.7991 52.4437 50.2913 50.3867 49.2129 48.5496C48.2705 46.9533 47.1449 46.6026 45.4487 47.3668C43.8781 48.0734 42.4489 49.0573 40.9516 49.9157C40.5124 50.1413 40.1499 50.4918 39.9095 50.923C39.6692 51.3542 39.5618 51.8469 39.6009 52.339C39.3967 62.5294 39.1716 72.7355 38.8732 86.867ZM231.107 138.128C230.835 138.07 230.735 138.28 230.615 138.426C228.343 141.158 225.903 143.77 223.861 146.67C223.212 147.58 222.547 147.784 221.589 147.287C219.417 146.162 217.197 145.12 215.066 143.911C205.528 138.494 195.942 133.156 186.209 128.1C177.98 123.818 169.561 119.898 161.494 115.292C155.829 112.058 150.285 108.63 144.741 105.159C143.903 104.636 143.233 104.463 142.317 105.013C141.111 105.682 139.87 106.287 138.6 106.824C138.045 107.08 137.427 107.426 136.883 106.824C136.338 106.222 136.537 105.526 136.883 104.908C137.487 103.857 138.282 102.929 139.228 102.171C139.935 101.611 140.055 101.276 139.228 100.669C135.841 98.2298 132.569 95.6338 129.312 93.0221C127.836 91.834 127.601 91.8235 125.941 92.7865C125.761 92.8876 125.586 92.9977 125.417 93.1163C121.175 96.2614 117.115 99.6444 113.256 103.249C112.628 103.82 112.795 104.087 113.523 104.348C115.015 104.872 116.486 105.479 117.968 106.044C121.807 107.499 125.646 108.947 129.485 110.388C129.946 110.561 130.438 110.864 130.904 110.331C131.506 109.634 132.197 109.729 132.967 110.069C135.616 111.247 138.26 112.435 140.935 113.544C149.924 117.271 158.85 121.128 167.593 125.399C168.26 125.682 168.881 126.063 169.436 126.529C170.027 127.079 170.174 127.676 169.655 128.351C169.299 128.817 168.954 129.293 168.577 129.738C168.2 130.183 168.299 130.481 168.755 130.738C169.025 130.892 169.302 131.032 169.587 131.156C181.545 136.261 193.507 141.359 205.475 146.45C208.773 147.842 211.993 149.47 215.501 150.318C219.438 151.265 222.715 150.223 225.285 147.041C227.3 144.544 229.124 141.899 230.741 139.127C230.934 138.845 231.248 138.557 231.107 138.128ZM38.1141 73.7038H38.1979C38.1644 73.1809 38.1644 72.6564 38.1979 72.1336C38.3078 71.2909 38.0094 70.9298 37.1508 70.7728C23.8375 68.3809 10.6813 65.2667 -2.48542 62.2154C-12.5947 59.8758 -22.7616 57.7613 -32.7296 54.8199C-34.3261 54.3814 -35.8449 53.6981 -37.2319 52.7943C-39.7596 51.0253 -41.8216 48.6711 -43.242 45.9327C-45.3099 42.1905 -47.2574 38.3802 -49.2887 34.6222C-50.2415 32.8584 -49.9013 32.7694 -52.1105 33.4027C-53.3147 33.7482 -53.3618 33.7744 -52.9587 34.9415C-50.9221 40.8453 -48.5872 46.6288 -46.2523 52.4175C-45.3728 54.6 -44.1582 56.3743 -41.6557 56.8297C-41.3867 56.8962 -41.1266 56.9946 -40.8809 57.1228C-40.5268 57.3075 -40.1279 57.3889 -39.7297 57.3574C-39.3316 57.3259 -38.9503 57.1829 -38.6297 56.9448C-38.351 56.7402 -38.0296 56.6014 -37.6896 56.5389C-37.3495 56.4763 -36.9998 56.4917 -36.6665 56.5837C-34.8917 57.0181 -33.1117 57.4263 -31.3265 57.8293C-21.9292 59.9805 -12.8251 63.1208 -3.60577 65.9262C1.26826 67.4126 6.22607 68.6792 10.9587 70.6105C11.0667 70.6617 11.1848 70.6883 11.3043 70.6883C11.4238 70.6883 11.5418 70.6617 11.6498 70.6105C12.1083 70.4455 12.61 70.4455 13.0686 70.6105C18.0787 71.7463 23.0941 72.8663 28.099 74.023C31.125 74.7244 34.1248 75.5252 37.088 76.4463C37.8576 76.6871 38.1874 76.5405 38.135 75.6926C38.0774 75.0122 38.1141 74.358 38.1141 73.7038ZM-26.8818 92.3626C-26.3648 92.7226 -25.7864 92.9851 -25.1751 93.1372C-11.4796 97.9367 2.37814 102.255 16.2254 106.594C22.7695 108.645 29.3136 110.697 35.9362 112.497C37.2764 112.864 37.3026 112.827 37.3236 111.424C37.355 109.462 37.3497 107.494 37.4283 105.531C37.4597 104.678 37.245 104.223 36.3289 104.034C34.3028 103.621 32.3082 103.066 30.2874 102.616C15.7857 99.3865 1.17926 96.6492 -13.3905 93.7182C-16.8405 93.0273 -20.2958 92.3783 -23.7459 91.7188C-24.84 91.5304 -25.9237 91.4467 -26.8818 92.3626ZM61.0707 113.005C60.9097 113.015 60.7501 113.042 60.5943 113.084C57.2123 114.047 53.8618 115.104 50.5583 116.313C50.328 116.397 49.9249 116.412 49.9772 116.774C50.0296 117.135 50.3751 117.108 50.6264 117.208C57.8929 120.034 64.9605 123.311 71.9025 126.844C79.9544 130.942 88.3308 134.344 96.3355 138.536C97.0161 138.892 97.4192 138.84 97.7909 138.107C98.1626 137.374 98.2254 136.626 97.5605 135.951C97.1019 135.484 96.6045 135.056 96.0737 134.673C92.6708 132.208 89.0585 130.052 85.4985 127.801C78.0121 123.065 70.6199 118.181 63.0287 113.607C62.4603 113.192 61.7689 112.98 61.0655 113.005H61.0707ZM47.5794 117.522C45.9146 118.14 44.0404 118.904 42.8101 120.662C42.4332 121.186 42.8101 121.568 43.2289 121.856C44.1312 122.434 45.1239 122.856 46.1659 123.107C60.5525 127.205 74.5097 132.491 88.3622 138.086C90.5348 138.965 92.7232 139.813 94.8853 140.703C95.6706 141.033 96.0423 140.483 96.2831 140.022C96.524 139.562 95.8643 139.541 95.6026 139.326C95.4294 139.214 95.2452 139.119 95.0529 139.044C88.5611 135.673 81.8129 132.836 75.2478 129.623C66.7667 125.436 58.3275 121.201 49.4432 117.909C48.8583 117.638 48.2187 117.506 47.5742 117.522H47.5794ZM84.1792 79.5919C82.6871 78.4404 81.3522 77.2942 79.902 76.3207C77.1064 74.4313 74.1432 74.3737 71.1958 75.9386C70.2534 76.462 69.332 76.9854 68.4211 77.5402C67.6453 78.0293 66.7681 78.335 65.8563 78.4338C64.9445 78.5327 64.0222 78.4222 63.1596 78.1107L60.0184 77.0639C59.7933 76.9906 59.542 76.8546 59.3483 77.0639C59.1546 77.2733 59.3483 77.4565 59.4007 77.6449C60.4477 80.4555 61.3796 83.308 62.7513 85.9825C63.0295 86.5401 63.3665 87.0665 63.7564 87.5526C64.3735 88.3084 65.2417 88.8173 66.2027 88.9864C67.1638 89.1555 68.1536 88.9736 68.9917 88.4738C73.2148 85.9999 77.4432 83.5365 81.6767 81.0836C82.483 80.6125 83.2683 80.131 84.174 79.5919H84.1792ZM-28.6879 93.2471C-28.6879 93.5664 -28.4367 93.6344 -28.2272 93.7234C-26.7718 94.3515 -25.3164 94.9848 -23.8453 95.5814C-8.78345 101.663 6.44071 107.326 21.5759 113.209C25.7222 114.821 29.8842 116.391 34.0253 118.014C34.7059 118.281 35.0724 118.26 35.3342 117.491C35.5527 116.715 36.0655 116.056 36.7634 115.653C37.2869 115.345 37.177 114.837 37.1665 114.371C37.156 113.905 36.7477 113.89 36.4283 113.795C35.2347 113.45 34.041 113.115 32.8474 112.749C12.3984 106.745 -7.87775 100.187 -28.0283 93.2576C-28.2482 93.1843 -28.4628 93.0221 -28.6879 93.2471ZM166.734 129.764C167.195 129.822 167.441 129.466 167.724 129.162C169.19 127.561 169.179 127.383 167.252 126.446C162.415 124.09 157.525 121.861 152.594 119.642C146.207 116.779 139.615 114.408 133.276 111.43C131.82 110.749 131.831 110.755 131.239 112.204C131.087 112.626 130.883 113.026 130.632 113.398C130.108 114.089 130.286 114.392 131.066 114.717C142.641 119.474 154.164 124.352 165.619 129.434C165.961 129.627 166.342 129.74 166.734 129.764ZM109.633 107.185C110.346 107.151 111.059 107.263 111.727 107.515C117.313 109.388 122.904 111.241 128.323 113.565C129.443 114.047 129.585 113.042 129.93 112.482C130.412 111.67 129.585 111.681 129.182 111.529C124.041 109.544 118.894 107.569 113.743 105.604C111.418 104.715 111.298 104.746 109.795 106.782C109.731 106.912 109.677 107.047 109.633 107.185ZM38.0146 78.6446C38.1769 77.917 37.69 77.7234 37.1142 77.5454C29.2298 75.1169 21.1466 73.5049 13.1052 71.7306C12.6759 71.6364 12.2728 71.5369 12.1524 72.1441C12.032 72.7512 12.5293 72.7198 12.8591 72.814C20.8953 75.0436 28.9367 77.2576 36.9728 79.5029C37.8366 79.7384 38.1298 79.5081 38.0094 78.6393L38.0146 78.6446ZM10.6289 72.0184C10.1054 71.1967 9.22587 71.024 8.43534 70.7728C4.29425 69.4591 0.137444 68.1925 -4.01412 66.9154C-14.7255 63.6233 -25.374 60.1113 -36.3681 57.8084C-36.6095 57.7053 -36.8737 57.667 -37.1344 57.6973C-37.3952 57.7276 -37.6436 57.8254 -37.8549 57.9811C-21.4057 62.1473 -5.62135 67.8889 10.6289 72.0184ZM148.62 101.129C148.287 101.118 147.954 101.178 147.645 101.303C147.336 101.428 147.056 101.617 146.824 101.857C146.301 102.38 145.777 102.93 145.191 103.427C144.73 103.83 144.84 104.06 145.311 104.338C146.756 105.201 148.186 106.091 149.625 106.955C149.824 107.075 150.034 107.274 150.285 107.106C151.264 106.463 152.348 105.861 152.583 104.599C152.798 103.464 152.112 102.637 151.29 101.983C150.531 101.387 149.584 101.082 148.62 101.124V101.129ZM145.359 100.501C143.055 100.501 138.72 103.349 137.883 105.385C137.815 105.547 137.72 105.714 137.883 105.845C138.045 105.976 138.28 105.845 138.458 105.772C140.433 104.96 142.332 103.976 144.134 102.83C144.723 102.413 145.281 101.953 145.804 101.454C145.919 101.375 146.006 101.262 146.052 101.13C146.098 100.998 146.101 100.855 146.06 100.721C145.919 100.391 145.599 100.538 145.359 100.491V100.501ZM163.839 130.073C163.839 129.874 163.672 129.785 163.52 129.712L161.949 129C161.826 128.939 161.684 128.93 161.554 128.973C161.424 129.016 161.316 129.108 161.253 129.23C160.808 129.876 160.456 130.581 160.206 131.324C160.122 131.564 160.091 131.795 160.462 131.847C160.918 131.905 163.666 130.539 163.818 130.162C163.823 130.128 163.83 130.095 163.839 130.062V130.073ZM141.516 122.787C142.683 122.73 143.806 122.325 144.741 121.625C142.84 120.531 142.17 120.772 141.516 122.787ZM120.727 113.79C121.484 113.753 122.213 113.49 122.821 113.036C123.109 112.827 123.14 112.66 122.779 112.445C121.711 111.838 121.056 112.241 120.727 113.816V113.79ZM134.501 118.354C134.851 118.291 135.511 118.192 135.412 117.925C135.176 117.281 134.401 117.229 133.799 117.061C133.454 116.967 133.276 117.297 133.312 117.585C133.396 118.276 133.977 118.276 134.501 118.38V118.354Z" fill="white"/>
<path d="M-12.5633 171.379C-11.1759 171.625 -10.1341 171.808 -9.09753 172.002C-6.50154 172.42 -3.9582 173.116 -1.51162 174.079C-0.825401 174.319 -0.193661 174.693 0.346901 175.179C1.12696 175.969 0.964661 176.639 -0.113804 176.88C-1.12788 177.099 -2.16644 177.183 -3.20261 177.131C-10.0608 176.853 -16.9242 176.56 -23.7825 176.278C-34.4345 175.845 -45.0917 175.568 -55.7542 175.445C-57.2358 175.445 -58.7226 175.409 -60.2042 175.372C-60.4922 175.372 -60.9947 175.592 -60.9476 174.985C-60.9005 174.378 -60.4241 174.645 -60.1309 174.65C-55.5762 174.739 -51.0268 174.885 -46.4721 174.933C-32.562 175.074 -18.6833 176.021 -4.78366 176.393C-3.5429 176.424 -2.30215 176.393 -1.05616 176.393C-0.684452 176.393 -0.166161 176.456 -0.0509834 176.058C0.0851326 175.566 -0.459332 175.404 -0.799625 175.215C-3.12932 173.922 -5.69983 173.399 -8.26511 172.86C-9.95118 172.493 -11.66 172.239 -13.38 172.101C-13.6627 172.101 -14.0867 172.164 -14.1496 171.756C-14.2124 171.347 -13.7779 171.321 -13.5161 171.19C-12.6697 170.79 -11.9345 170.188 -11.3749 169.437C-10.3802 168.066 -10.5215 167.155 -12.0293 166.443C-14.6733 165.122 -17.6633 164.658 -20.5837 165.114C-20.7198 165.114 -20.8507 165.182 -20.9921 165.192C-21.2172 165.192 -21.4685 165.428 -21.6674 165.192C-21.8663 164.957 -21.6674 164.669 -21.5418 164.444C-20.6989 163.141 -19.8351 161.827 -18.9974 160.545C-17.3344 158.099 -16.5029 155.183 -16.6258 152.228C-16.6332 151.276 -16.8719 150.339 -17.3215 149.499C-17.7712 148.66 -18.4182 147.942 -19.2068 147.408C-22.2956 145.262 -25.6672 144.21 -29.4575 144.649C-30.5797 144.741 -31.6682 145.078 -32.6467 145.634C-33.6252 146.191 -34.4701 146.956 -35.122 147.873C-35.7468 148.742 -36.3768 149.614 -37.012 150.49C-37.1533 150.679 -37.2842 150.935 -37.5669 150.893C-37.8496 150.851 -37.9229 150.522 -37.9805 150.255C-38.0693 149.922 -38.1409 149.585 -38.1952 149.245C-38.5354 146.465 -40.2893 145.094 -42.8755 144.602C-45.0486 144.158 -47.2958 144.232 -49.4353 144.817C-53.7439 146.031 -55.6129 149.26 -56.4348 153.343C-56.8312 155.411 -56.9545 157.523 -56.8013 159.623C-56.8013 159.953 -56.5919 160.361 -56.9688 160.571C-57.3458 160.78 -57.5342 160.409 -57.7751 160.241C-58.5867 159.654 -59.4986 159.219 -60.466 158.959C-60.8325 158.87 -61.0576 158.702 -60.9267 158.325C-60.7958 157.949 -60.4503 158.184 -60.2356 158.252C-59.779 158.412 -59.3316 158.597 -58.8954 158.807C-57.5971 159.388 -57.6075 159.388 -57.5761 158.022C-57.5733 155.95 -57.3184 153.887 -56.817 151.877C-55.2883 146.204 -51.4561 143.639 -45.4669 143.618C-44.0405 143.62 -42.6246 143.863 -41.2787 144.335C-40.349 144.623 -39.514 145.156 -38.8617 145.878C-38.2094 146.6 -37.764 147.485 -37.5722 148.439C-37.4989 148.732 -37.5722 149.182 -37.2528 149.255C-36.8549 149.349 -36.7293 148.873 -36.546 148.611C-35.1168 146.612 -33.5201 144.817 -30.9705 144.267C-26.0336 143.22 -21.6412 144.424 -17.8823 147.669C-15.8824 149.381 -15.7306 151.825 -15.9662 154.264C-16.2437 157.195 -17.5368 159.733 -19.1597 162.115C-19.61 162.774 -20.5418 163.497 -20.2329 164.177C-20.0026 164.7 -18.8404 164.224 -18.0917 164.266C-16.0546 164.385 -14.0525 164.848 -12.1706 165.637C-9.78334 166.632 -9.3907 168.327 -11.1236 170.233C-11.5811 170.642 -12.0618 171.025 -12.5633 171.379Z" fill="white"/>
<path d="M131.721 157.886C120.643 158.074 109.602 159.084 98.5344 159.351C95.26 159.511 91.978 159.372 88.7287 158.938C88.4251 158.891 88.1214 158.817 87.8178 158.739C87.399 158.629 87.022 158.451 86.9906 157.949C86.9592 157.446 87.2995 157.279 87.645 157.111C89.5734 156.266 91.5939 155.65 93.6656 155.274C97.71 154.385 101.819 153.818 105.953 153.578C106.468 153.571 106.976 153.452 107.442 153.23C107.907 153.007 108.319 152.687 108.649 152.291C109.094 151.711 109.686 151.26 110.363 150.984C111.04 150.708 111.778 150.617 112.502 150.721C112.705 150.752 112.913 150.734 113.107 150.668C113.301 150.601 113.476 150.488 113.617 150.338C114.586 149.443 115.607 148.925 117.062 149.197C118.517 149.47 119.915 148.821 121.25 148.297C122.48 147.805 123.658 147.46 124.952 147.722C125.229 147.794 125.52 147.792 125.797 147.715C126.073 147.638 126.323 147.488 126.522 147.282C126.834 147.008 127.168 146.761 127.522 146.544C129.271 145.356 130.564 145.303 132.291 146.502C132.586 146.733 132.945 146.869 133.319 146.892C133.693 146.914 134.065 146.822 134.385 146.628C137.794 145.01 140.432 145.581 142.856 148.47C143.087 148.813 143.432 149.063 143.829 149.178C144.226 149.293 144.65 149.264 145.029 149.098C146.567 148.568 148.194 148.343 149.819 148.433C150.997 148.457 152.156 148.732 153.219 149.24C154.282 149.748 155.223 150.478 155.981 151.38C156.116 151.578 156.302 151.736 156.52 151.836C156.737 151.937 156.978 151.976 157.217 151.951C158.603 151.854 159.988 152.166 161.201 152.846C161.437 152.984 161.703 153.063 161.976 153.076C162.25 153.09 162.522 153.038 162.771 152.924C165.562 151.846 167.656 152.458 169.341 154.918C169.975 155.839 170.509 156.583 171.839 156.384C172.275 156.356 172.711 156.447 173.101 156.646C173.49 156.845 173.819 157.145 174.053 157.514C174.263 157.786 174.498 158.074 174.325 158.451C174.153 158.828 173.76 158.812 173.425 158.807C171.53 158.76 169.64 158.561 167.739 158.571C159.766 158.624 151.819 157.886 143.846 157.896L131.721 157.886ZM166.619 158.174C168.619 158.174 170.619 158.174 172.619 158.174C172.844 158.174 173.142 158.294 173.252 157.996C173.362 157.697 173.09 157.472 172.865 157.336C172.247 156.912 171.53 157.012 170.854 157.069C170.54 157.135 170.213 157.08 169.937 156.915C169.661 156.75 169.458 156.487 169.368 156.18C168.022 153.238 165.504 152.312 162.63 153.672C162.41 153.794 162.16 153.849 161.91 153.834C161.66 153.818 161.419 153.731 161.216 153.583C159.979 152.801 158.525 152.435 157.065 152.537C156.777 152.577 156.484 152.539 156.216 152.425C155.949 152.312 155.717 152.128 155.546 151.893C154.642 150.704 153.38 149.838 151.945 149.423C149.725 148.843 147.384 148.936 145.217 149.689C144.728 149.9 144.181 149.937 143.668 149.794C143.155 149.651 142.706 149.337 142.395 148.904C139.977 146.13 137.862 145.696 134.501 147.256C134.109 147.471 133.663 147.569 133.217 147.536C132.771 147.504 132.344 147.343 131.988 147.073C130.333 145.952 129.239 146.026 127.642 147.193C127.257 147.484 126.89 147.798 126.543 148.135C126.363 148.306 126.14 148.426 125.898 148.481C125.655 148.536 125.403 148.525 125.166 148.449C123.685 148.203 122.109 147.962 121.046 149.496C120.879 149.737 120.57 149.935 120.345 149.7C119.858 149.177 119.392 149.48 118.915 149.627C118.303 149.874 117.635 149.948 116.983 149.841C115.701 149.512 114.785 150.035 113.942 150.888C113.628 151.207 113.277 151.563 112.774 151.411C111.078 150.919 109.905 151.757 108.89 152.934C108.562 153.307 108.159 153.607 107.709 153.815C107.258 154.024 106.769 154.135 106.272 154.144C102.108 154.41 97.9685 154.975 93.8855 155.834C92.0685 156.242 90.2795 156.767 88.5298 157.404C88.2837 157.493 87.9173 157.525 87.9434 157.87C87.9696 158.215 88.3465 158.21 88.5978 158.252C89.2744 158.384 89.9578 158.479 90.6448 158.535C95.3994 158.774 100.163 158.759 104.916 158.488C113.324 158.111 121.716 157.472 130.129 157.289C142.291 157.064 154.458 157.467 166.619 158.174Z" fill="white"/>
<path d="M87.2314 36.4803C76.1955 36.7681 65.1543 36.967 54.1235 36.3389C52.6399 36.2942 51.1639 36.1084 49.7155 35.7842C49.1082 35.6324 48.2129 35.669 48.2182 34.8211C48.2234 33.9732 49.1134 33.968 49.7155 33.8005C52.1502 33.1838 54.6257 32.7413 57.1234 32.4763C64.9763 31.4295 72.9025 30.8434 80.8391 30.566C81.2527 30.566 81.6663 30.5031 82.0799 30.4979C83.2474 30.4979 84.0274 30.1158 84.4462 28.8335C85.0221 27.0802 86.3833 26.6824 87.9591 27.635C88.446 27.9281 88.5821 27.7763 88.802 27.3785C89.4466 26.1464 90.4411 25.1321 91.6604 24.4632C93.4404 23.5002 94.922 23.9032 96.0005 25.6199C96.4536 26.3959 96.7921 27.2332 97.0056 28.106C97.0502 28.3427 97.1721 28.5579 97.352 28.7179C97.532 28.878 97.76 28.9739 98.0003 28.9905C98.55 29.0743 98.7961 28.8074 99.0788 28.4096C100.414 26.5306 101.838 26.316 103.571 27.9281C104.298 28.5928 104.859 28.6922 105.712 28.2264C106.657 27.7109 107.719 27.4494 108.795 27.4675C109.565 27.4196 110.325 27.6617 110.925 28.1462C111.525 28.6306 111.921 29.3221 112.036 30.0844C112.157 30.6549 112.397 30.8119 112.931 30.7962C113.934 30.7261 114.938 30.9077 115.852 31.3245C116.767 31.7414 117.562 32.3802 118.167 33.1829C118.296 33.3408 118.465 33.4624 118.656 33.5358C118.847 33.6092 119.053 33.6318 119.256 33.6016C120.094 33.5792 120.909 33.8746 121.538 34.4286C121.863 34.7164 122.151 35.0619 122.015 35.4753C121.878 35.8888 121.397 35.8627 121.041 35.8731C117.868 35.9516 114.696 36.0563 111.523 36.072C103.44 36.1191 95.3408 36.2866 87.2314 36.4803ZM49.2076 34.8054C49.8254 35.2084 49.9196 35.2451 51.0295 35.3864C55.352 35.8469 59.6975 36.0583 64.0444 36.0197C80.5407 36.1662 97.0266 35.4649 113.512 35.334C115.79 35.334 118.067 35.2555 120.318 35.2032C120.538 35.2032 120.842 35.2974 120.926 34.9781C121.009 34.6589 120.695 34.5961 120.491 34.4861C119.996 34.2454 119.431 34.1915 118.9 34.3344C118.702 34.3992 118.488 34.391 118.295 34.3113C118.103 34.2316 117.946 34.0856 117.852 33.8999C116.627 31.9843 114.811 31.283 112.617 31.5028C111.832 31.5813 111.518 31.3772 111.424 30.545C111.225 28.776 110.136 27.9752 108.34 28.1427C107.441 28.2151 106.568 28.4849 105.785 28.933C104.785 29.5192 104.063 29.3517 103.241 28.5352C101.723 27.0226 100.539 27.2529 99.4557 29.1162C99.3092 29.3726 99.2568 29.6971 98.8694 29.7704C98.3285 29.8872 97.7634 29.7885 97.2941 29.4953C96.8248 29.2021 96.4885 28.7375 96.3565 28.2002C96.1251 27.2245 95.7015 26.3046 95.1105 25.4943C94.3828 24.5941 93.5399 24.3376 92.5504 24.7877C90.8385 25.5519 89.5506 26.7295 89.0637 28.6294C88.9904 28.912 89.0637 29.3412 88.692 29.4145C88.3203 29.4878 88.2575 29.0481 88.1057 28.8021C87.9656 28.5029 87.7439 28.2494 87.4661 28.0707C87.1882 27.892 86.8655 27.7954 86.5351 27.792C86.182 27.7994 85.8423 27.9285 85.5733 28.1573C85.3043 28.3862 85.1226 28.7008 85.0588 29.0481C84.6661 30.8329 83.3992 31.1103 81.8757 31.1678C77.6875 31.3249 73.4626 31.4714 69.2692 31.8483C62.9869 32.4135 56.7045 32.9264 50.506 34.2873C50.0236 34.2993 49.5613 34.483 49.2024 34.8054H49.2076Z" fill="white"/>
<path d="M92.896 105.515C92.896 105.07 92.8698 104.626 92.896 104.186C92.9076 104.065 92.9609 103.952 93.0469 103.866C93.1329 103.78 93.2461 103.727 93.3672 103.715C93.4912 103.702 93.6155 103.737 93.7134 103.815C93.8113 103.892 93.875 104.005 93.8907 104.128C94.0793 105.137 94.1339 106.167 94.053 107.19C94.0537 107.252 94.0421 107.312 94.0189 107.369C93.9958 107.426 93.9615 107.478 93.9181 107.521C93.8747 107.565 93.823 107.599 93.7662 107.622C93.7093 107.645 93.6484 107.657 93.587 107.656C93.5171 107.661 93.447 107.65 93.3813 107.626C93.3157 107.601 93.2561 107.563 93.2066 107.513C93.157 107.463 93.1186 107.404 93.0939 107.338C93.0693 107.273 93.0589 107.203 93.0635 107.133C93.0112 106.609 92.9745 106.039 92.9326 105.494L92.896 105.515Z" fill="white"/>
<path d="M99.639 102.051C99.639 102.495 99.639 102.946 99.639 103.39C99.639 103.529 99.5839 103.662 99.4857 103.761C99.3875 103.859 99.2543 103.914 99.1155 103.914C98.9916 103.914 98.8723 103.867 98.7819 103.783C98.6914 103.698 98.6366 103.582 98.6286 103.458C98.4983 102.537 98.4842 101.604 98.5867 100.679C98.5867 100.54 98.6419 100.407 98.7401 100.309C98.8382 100.211 98.9714 100.156 99.1103 100.156C99.461 100.156 99.5762 100.407 99.6024 100.679C99.6443 101.124 99.66 101.574 99.6861 102.019L99.639 102.051Z" fill="white"/>
<path d="M88.9014 108.394C88.9014 107.949 88.9014 107.504 88.9014 107.059C88.9014 106.703 89.069 106.442 89.425 106.452C89.5631 106.464 89.6907 106.53 89.78 106.636C89.8693 106.742 89.913 106.879 89.9014 107.017C89.9014 107.975 89.9014 108.933 89.9014 109.891C89.8974 109.96 89.8798 110.027 89.8497 110.089C89.8197 110.151 89.7776 110.206 89.7261 110.252C89.6745 110.298 89.6145 110.333 89.5493 110.355C89.4842 110.378 89.4152 110.387 89.3464 110.383C88.9957 110.383 88.8857 110.137 88.8857 109.859C88.8857 109.383 88.8857 108.902 88.8857 108.42L88.9014 108.394Z" fill="white"/>
<path d="M90.9432 107.086C90.9432 106.672 90.9432 106.259 90.9432 105.85C90.936 105.78 90.943 105.71 90.9638 105.642C90.9846 105.575 91.0188 105.513 91.0642 105.459C91.1097 105.405 91.1655 105.361 91.2284 105.33C91.2912 105.298 91.3598 105.279 91.4301 105.275C91.4995 105.266 91.5701 105.272 91.637 105.292C91.7039 105.313 91.7656 105.348 91.8178 105.395C91.8699 105.441 91.9114 105.499 91.9394 105.563C91.9674 105.627 91.9811 105.697 91.9798 105.767C92.0321 106.693 92.0583 107.619 92.0688 108.551C92.0772 108.622 92.0695 108.694 92.0461 108.761C92.0228 108.828 91.9845 108.889 91.9341 108.94C91.8837 108.99 91.8225 109.028 91.7552 109.052C91.6878 109.075 91.6161 109.083 91.5453 109.074C91.205 109.074 91.0636 108.828 91.0217 108.551C90.9746 108.07 90.9589 107.588 90.9327 107.106L90.9432 107.086Z" fill="white"/>
<path d="M95.7596 104.877C95.7596 105.228 95.7596 105.641 95.7596 106.049C95.7627 106.173 95.7182 106.293 95.6354 106.384C95.5526 106.476 95.4378 106.532 95.3147 106.541C95.2544 106.554 95.1922 106.554 95.132 106.541C95.0718 106.528 95.0151 106.502 94.9656 106.466C94.916 106.429 94.8749 106.382 94.8448 106.328C94.8148 106.275 94.7965 106.215 94.7911 106.154C94.7178 105.269 94.477 104.39 94.6184 103.495C94.6707 103.176 94.7911 102.867 95.1942 102.898C95.5974 102.93 95.6445 103.197 95.6759 103.479C95.723 103.945 95.7335 104.369 95.7596 104.877Z" fill="white"/>
<path d="M106.754 97.1412C106.754 97.5546 106.754 97.9629 106.754 98.3763C106.754 98.6747 106.633 98.9259 106.293 98.9521C106.226 98.9588 106.158 98.9511 106.094 98.9295C106.03 98.9079 105.971 98.873 105.921 98.8269C105.872 98.7809 105.833 98.7248 105.806 98.6625C105.78 98.6001 105.768 98.5329 105.77 98.4653C105.743 97.5442 105.738 96.6178 105.77 95.6914C105.768 95.6212 105.782 95.5515 105.81 95.4873C105.838 95.4231 105.88 95.3659 105.933 95.3199C105.987 95.2739 106.049 95.2402 106.117 95.2211C106.184 95.2021 106.255 95.1983 106.324 95.2098C106.447 95.2192 106.56 95.2759 106.642 95.3677C106.723 95.4596 106.765 95.5794 106.759 95.7018C106.759 96.1781 106.759 96.6596 106.759 97.1412H106.754Z" fill="white"/>
<path d="M138.82 75.7973C138.689 76.2056 139.165 76.9488 138.411 77.043C137.658 77.1372 137.778 76.3469 137.678 75.8968C137.59 75.3924 137.562 74.8794 137.595 74.3685C137.586 74.2914 137.593 74.2134 137.614 74.1389C137.636 74.0645 137.672 73.995 137.721 73.9347C137.77 73.8743 137.83 73.8242 137.898 73.7873C137.966 73.7503 138.041 73.7273 138.118 73.7195C138.506 73.7195 138.642 74.0073 138.678 74.3266C138.746 74.8029 138.794 75.2792 138.82 75.7973Z" fill="white"/>
<path d="M97.8433 103.103C97.8433 103.479 97.8433 103.856 97.8433 104.233C97.8433 104.516 97.7857 104.804 97.4402 104.856C97.371 104.865 97.3007 104.859 97.2335 104.841C97.1663 104.822 97.1036 104.79 97.0489 104.746C96.9943 104.703 96.9489 104.649 96.9154 104.588C96.8819 104.527 96.861 104.459 96.8539 104.39C96.7087 103.474 96.6928 102.542 96.8067 101.621C96.8124 101.559 96.8308 101.499 96.8606 101.445C96.8904 101.39 96.9311 101.342 96.9802 101.304C97.0292 101.266 97.0856 101.238 97.1458 101.222C97.206 101.207 97.2688 101.204 97.3303 101.213C97.6653 101.213 97.8067 101.449 97.8119 101.763C97.8119 102.208 97.8119 102.658 97.8119 103.103H97.8433Z" fill="white"/>
<path d="M110.246 94.9167C110.104 95.2883 110.664 96.2357 109.811 96.309C108.958 96.3822 109.288 95.3826 109.131 94.8539C109.028 94.3829 109.044 93.8936 109.178 93.4303C109.24 93.132 109.387 92.9069 109.701 92.9069C110.015 92.9069 110.225 93.1948 110.225 93.5298C110.225 93.8647 110.246 94.3462 110.246 94.9167Z" fill="white"/>
<path d="M140.437 74.8657C140.437 75.4309 140.605 76.0067 139.998 76.0904C139.39 76.1741 139.349 75.567 139.291 75.1535C139.227 74.5399 139.208 73.9224 139.233 73.306C139.223 73.2436 139.226 73.1797 139.242 73.1185C139.258 73.0573 139.286 73.0002 139.326 72.9508C139.365 72.9014 139.415 72.8609 139.471 72.8319C139.527 72.8029 139.589 72.7861 139.652 72.7826C139.79 72.7648 139.928 72.8021 140.038 72.8865C140.148 72.9709 140.22 73.0954 140.239 73.2327C140.328 73.8294 140.364 74.4103 140.437 74.8657Z" fill="white"/>
<path d="M137.223 76.9121C137.113 77.2942 137.647 78.1002 136.815 78.1787C135.982 78.2572 136.213 77.4303 136.134 76.9278C136.066 76.5227 136.024 76.1136 136.008 75.7031C136.008 75.3472 136.076 74.9808 136.532 74.9337C136.987 74.8866 137.108 75.2268 137.144 75.5932C137.181 75.9595 137.181 76.4097 137.223 76.9121Z" fill="white"/>
<path d="M111.015 93.7653C111.006 93.591 111.006 93.4162 111.015 93.2419C111.104 92.8127 110.801 92.1271 111.539 92.0852C112.277 92.0433 112.062 92.7499 112.13 93.1791C112.261 93.7151 112.289 94.2708 112.214 94.8173C112.156 95.0947 112.062 95.3407 111.717 95.393C111.371 95.4454 111.24 95.147 111.193 94.8697C111.088 94.4143 111.047 93.938 111.015 93.7653Z" fill="white"/>
<path d="M126.752 84.4856C126.752 84.9305 126.716 85.2497 126.334 85.323C125.951 85.3963 125.768 85.1346 125.711 84.7996C125.592 84.1018 125.486 83.3865 125.391 82.6537C125.355 82.3606 125.417 82.078 125.747 81.9942C125.822 81.9721 125.902 81.9671 125.979 81.9797C126.056 81.9922 126.13 82.0219 126.194 82.0666C126.258 82.1113 126.312 82.1699 126.35 82.2379C126.389 82.306 126.412 82.3819 126.417 82.4601C126.564 83.1719 126.663 83.8837 126.752 84.4856Z" fill="white"/>
<path d="M132.391 79.7175C132.391 80.0786 132.427 80.2409 132.433 80.4241C132.433 80.7224 132.354 80.9841 132.019 81.0417C131.951 81.0521 131.882 81.0489 131.815 81.0325C131.748 81.016 131.685 80.9865 131.629 80.9456C131.574 80.9048 131.527 80.8534 131.492 80.7945C131.456 80.7355 131.433 80.6701 131.422 80.602C131.241 79.8674 131.151 79.1133 131.155 78.3567C131.155 78.0165 131.286 77.7181 131.679 77.6763C132.071 77.6344 132.202 77.9327 132.239 78.2677L132.391 79.7175Z" fill="white"/>
<path d="M101.529 100.763C101.529 101.103 101.529 101.449 101.529 101.81C101.529 102.171 101.388 102.333 101.058 102.375C100.99 102.379 100.922 102.37 100.858 102.347C100.795 102.323 100.736 102.287 100.687 102.241C100.638 102.194 100.599 102.138 100.573 102.075C100.546 102.013 100.533 101.946 100.534 101.878C100.51 101.058 100.51 100.238 100.534 99.4179C100.536 99.3566 100.55 99.2964 100.577 99.2409C100.603 99.1855 100.64 99.1361 100.686 99.0958C100.733 99.0555 100.787 99.0252 100.845 99.0068C100.904 98.9883 100.965 98.9822 101.026 98.9887C101.149 98.99 101.267 99.0386 101.354 99.1244C101.442 99.2102 101.493 99.3266 101.497 99.4493C101.529 99.8942 101.497 100.339 101.497 100.784L101.529 100.763Z" fill="white"/>
<path d="M103.194 99.4127C103.194 99.8209 103.194 100.229 103.194 100.637C103.199 100.768 103.153 100.895 103.064 100.991C102.976 101.088 102.853 101.145 102.723 101.15C102.592 101.156 102.465 101.109 102.368 101.021C102.272 100.933 102.215 100.81 102.21 100.679C102.157 99.8628 102.141 99.0463 102.136 98.2298C102.125 98.1557 102.13 98.0799 102.153 98.0082C102.175 97.9366 102.213 97.871 102.265 97.8164C102.316 97.7619 102.38 97.7198 102.45 97.6935C102.52 97.6672 102.596 97.6573 102.67 97.6646C102.809 97.6646 102.942 97.7197 103.04 97.8179C103.139 97.916 103.194 98.0491 103.194 98.1879C103.225 98.591 103.194 99.0044 103.194 99.4127Z" fill="white"/>
<path d="M115.392 91.1326C115.392 91.5409 115.392 91.9491 115.392 92.3574C115.389 92.4805 115.338 92.5976 115.25 92.6837C115.162 92.7698 115.044 92.818 114.921 92.8179C114.796 92.8284 114.671 92.7901 114.574 92.7111C114.476 92.6321 114.413 92.5185 114.397 92.394C114.256 91.5871 114.256 90.7619 114.397 89.955C114.418 89.8185 114.492 89.6958 114.603 89.6134C114.713 89.5311 114.852 89.4959 114.989 89.5154C115.114 89.5299 115.229 89.5926 115.309 89.6902C115.389 89.7879 115.428 89.9129 115.418 90.0387C115.418 90.4104 115.418 90.7872 115.418 91.164L115.392 91.1326Z" fill="white"/>
<path d="M117.046 89.9393C117.046 90.2115 117.046 90.5569 116.978 90.8919C116.91 91.2268 116.779 91.5095 116.392 91.4728C116.313 91.4695 116.236 91.4494 116.165 91.4139C116.095 91.3784 116.033 91.3282 115.983 91.2668C115.934 91.2054 115.898 91.1341 115.878 91.0577C115.858 90.9813 115.855 90.9016 115.868 90.8238C115.868 90.2115 115.926 89.5991 115.973 88.9867C115.973 88.6675 116.072 88.3482 116.497 88.3482C116.921 88.3482 117.02 88.6832 117.02 89.0548C117.051 89.3269 117.046 89.5991 117.046 89.9393Z" fill="white"/>
<path d="M108.576 95.8745C108.576 96.1833 108.576 96.4974 108.576 96.8062C108.576 97.115 108.471 97.4499 108.052 97.4395C107.633 97.429 107.529 97.1411 107.529 96.8009C107.508 96.1031 107.494 95.4052 107.487 94.7074C107.487 94.3619 107.597 94.0636 108.01 94.0636C108.424 94.0636 108.502 94.3776 108.534 94.7126C108.565 95.0476 108.57 95.4715 108.586 95.8484L108.576 95.8745Z" fill="white"/>
<path d="M112.926 92.0904C112.926 91.7816 112.926 91.4781 112.926 91.1693C112.926 90.8605 113.047 90.5307 113.45 90.5464C113.527 90.5508 113.602 90.571 113.671 90.6059C113.74 90.6407 113.801 90.6894 113.85 90.7488C113.899 90.8083 113.935 90.8772 113.956 90.9514C113.978 91.0255 113.983 91.1033 113.973 91.1797C113.973 91.8287 113.973 92.4778 113.947 93.1215C113.947 93.4827 113.795 93.8333 113.371 93.8333C112.947 93.8333 112.848 93.4513 112.848 93.1006C112.854 92.7593 112.878 92.4186 112.921 92.08L112.926 92.0904Z" fill="white"/>
<path d="M143.39 72.7459C143.39 73.0861 143.39 73.4316 143.39 73.7927C143.39 74.1539 143.264 74.3161 142.929 74.358C142.868 74.366 142.806 74.3618 142.746 74.3456C142.687 74.3293 142.631 74.3014 142.582 74.2634C142.533 74.2254 142.493 74.1781 142.462 74.1243C142.432 74.0704 142.413 74.0111 142.406 73.9497C142.354 73.1333 142.338 72.3115 142.343 71.4898C142.344 71.4259 142.359 71.3629 142.387 71.3056C142.415 71.2482 142.456 71.1979 142.506 71.1583C142.556 71.1186 142.615 71.0907 142.677 71.0765C142.739 71.0624 142.804 71.0623 142.867 71.0763C142.989 71.0763 143.106 71.1237 143.194 71.2087C143.282 71.2937 143.334 71.4095 143.338 71.5317C143.338 71.9399 143.338 72.3534 143.338 72.7616L143.39 72.7459Z" fill="white"/>
<path d="M135.6 78.2677C135.618 78.4012 135.585 78.5366 135.506 78.6458C135.427 78.755 135.309 78.8295 135.176 78.8539C134.789 78.9272 134.595 78.6916 134.537 78.3305C134.438 77.7548 134.354 77.179 134.296 76.6033C134.277 76.5169 134.275 76.4274 134.29 76.3402C134.306 76.2529 134.34 76.1698 134.389 76.0959C134.438 76.022 134.501 75.9588 134.575 75.9102C134.649 75.8615 134.733 75.8285 134.82 75.813C135.265 75.745 135.375 76.1375 135.422 76.4829C135.48 77.0482 135.527 77.5925 135.6 78.2677Z" fill="white"/>
<path d="M133.893 79.3721C133.893 79.8484 133.851 80.2095 133.406 80.2409C132.961 80.2723 132.883 79.974 132.82 79.6442C132.715 79.0685 132.595 78.498 132.516 77.9223C132.469 77.5873 132.59 77.2733 132.961 77.2209C133.333 77.1686 133.532 77.4146 133.6 77.7443C133.715 78.3253 133.81 78.901 133.893 79.3721Z" fill="white"/>
<path d="M105.084 98.3083C105.084 98.5124 105.084 98.7218 105.084 98.9259C105.084 99.3289 105.141 99.8575 104.534 99.8314C104.052 99.8314 104.01 99.3551 104.01 98.9625C104.01 98.4391 104.01 97.9158 104.01 97.3924C104.01 96.9998 104.084 96.5759 104.597 96.5863C105.11 96.5968 105.068 97.0051 105.078 97.3557C105.089 97.7064 105.084 97.9995 105.084 98.3083Z" fill="white"/>
<path d="M118.643 88.9815C118.449 89.5049 118.905 90.515 118.088 90.5098C117.161 90.5098 117.565 89.5154 117.565 88.9396C117.565 88.3639 117.266 87.5265 118.088 87.5265C119.067 87.5317 118.46 88.4738 118.643 88.9815Z" fill="white"/>
<path d="M125.224 84.8205C125.287 85.3805 125.313 85.7574 124.852 85.8411C124.391 85.9249 124.208 85.5533 124.145 85.1555C124.082 84.7577 124.004 84.271 123.978 83.8261C123.952 83.3812 124.025 83.0148 124.501 82.9887C124.978 82.9625 125.051 83.3393 125.098 83.6952C125.182 84.1349 125.182 84.5798 125.224 84.8205Z" fill="white"/>
<path d="M127.187 82.0675C127.187 81.4813 127.088 80.8899 127.711 80.848C128.334 80.8061 128.234 81.429 128.292 81.8372C128.349 82.2455 128.396 82.7165 128.433 83.1562C128.464 83.5016 128.334 83.7842 127.957 83.8156C127.58 83.847 127.433 83.622 127.407 83.3237C127.302 82.8578 127.239 82.3868 127.187 82.0675Z" fill="white"/>
<path d="M120.376 87.8405C120.376 88.0865 120.376 88.2592 120.376 88.4267C120.376 88.8192 120.334 89.2432 119.852 89.2536C119.371 89.2641 119.329 88.8663 119.329 88.5104C119.287 88.0341 119.224 87.5631 119.203 87.0868C119.203 86.7204 119.292 86.3698 119.727 86.3279C120.161 86.286 120.276 86.6576 120.334 87.0031C120.392 87.3485 120.355 87.6102 120.376 87.8405Z" fill="white"/>
<path d="M141.977 73.5415C141.977 73.7823 141.977 74.023 141.977 74.2638C141.986 74.387 141.949 74.5093 141.872 74.6062C141.795 74.7032 141.685 74.7678 141.563 74.7872C141.503 74.8002 141.441 74.8012 141.38 74.79C141.32 74.7789 141.262 74.7559 141.21 74.7223C141.159 74.6887 141.114 74.6453 141.079 74.5944C141.045 74.5436 141.021 74.4863 141.008 74.426C140.834 73.7962 140.765 73.1419 140.804 72.4895C140.804 72.1964 140.95 71.9399 141.291 71.9242C141.631 71.9085 141.814 72.1755 141.861 72.5157C141.909 72.8559 141.909 73.2013 141.935 73.5624L141.977 73.5415Z" fill="white"/>
<path d="M129.805 81.6436C129.798 81.9276 129.752 82.2095 129.669 82.481C129.475 82.884 129.046 82.9416 128.878 82.5647C128.597 81.8657 128.526 81.1 128.674 80.3613C128.694 80.2764 128.743 80.2014 128.813 80.1496C128.883 80.0978 128.969 80.0726 129.056 80.0786C129.176 80.0659 129.296 80.0987 129.393 80.1704C129.49 80.2421 129.557 80.3476 129.579 80.4659C129.679 80.8585 129.737 81.2667 129.805 81.6436Z" fill="white"/>
</svg>
