<svg width="250" height="76" viewBox="0 0 250 76" fill="none" xmlns="http://www.w3.org/2000/svg">
<path d="M250.004 73.5441C249.955 73.2683 249.675 73.3325 249.478 73.3514C248.692 73.4232 247.905 73.4723 247.126 73.6008C246.551 73.6953 246.404 73.5063 246.408 72.9509C246.408 71.1109 246.188 69.286 246.075 67.4535C246.022 66.6261 245.753 66.1765 244.865 66.2294C244.351 66.2634 244.146 66.014 244.146 65.4737C244.146 64.3402 244.022 63.2068 244.025 62.0733C244.025 61.4801 243.802 61.3176 243.269 61.2723C241.809 61.1023 240.361 60.8302 238.902 60.6489C238.353 60.5809 238.145 60.3882 238.145 59.8139C238.145 59.4058 238.198 58.7673 237.631 58.7182C237.064 58.669 237.075 59.3265 236.999 59.7232C236.901 60.2181 236.682 60.2824 236.243 60.1993C234.413 59.8517 232.575 59.5192 230.737 59.2245C230.231 59.1413 229.981 58.9751 230.042 58.431C230.076 58.0532 230.042 57.596 229.603 57.528C229.1 57.4449 229.055 57.9436 229.013 58.2837C228.956 58.7824 228.745 58.8617 228.28 58.7748C226.343 58.4159 224.404 58.0645 222.456 57.7887C221.825 57.698 221.53 57.5318 221.5 56.8555C221.5 56.3756 221.333 55.7484 220.721 55.722C220.108 55.6955 220.153 56.3643 220.089 56.8064C220.025 57.2484 219.942 57.4751 219.416 57.4147C216.829 57.1313 214.232 56.9764 211.634 56.8668C211.101 56.8441 210.995 56.6023 210.972 56.1338C210.949 55.6653 211.048 55.0003 210.443 55.0003C209.838 55.0003 209.925 55.6955 209.902 56.1338C209.872 56.6552 209.664 56.7988 209.168 56.7761C205.413 56.5948 201.658 56.557 197.9 56.5343C197.37 56.5343 197.219 56.3567 197.264 55.8467C197.382 54.8805 197.382 53.9036 197.264 52.9374C197.219 52.6578 197.219 52.2951 196.856 52.2611C196.493 52.2271 196.357 52.5823 196.304 52.9034C196.138 53.8858 195.964 54.8681 195.839 55.8542C195.782 56.3265 195.635 56.5457 195.113 56.5381C193.801 56.5154 192.466 56.5381 191.173 56.5683C190.76 56.5683 190.594 56.4399 190.67 56.0129C190.79 55.4169 190.754 54.7998 190.564 54.222C190.537 54.0913 190.466 53.9738 190.363 53.8892C190.259 53.8046 190.13 53.758 189.997 53.7573C189.671 53.7573 189.539 54.0029 189.501 54.2787C189.422 54.8757 189.358 55.4726 189.308 56.0734C189.282 56.4134 189.169 56.6023 188.787 56.5986C187.182 56.599 185.581 56.7342 183.999 57.0028C183.572 57.0746 183.504 56.931 183.553 56.5494C183.614 56.0847 183.931 55.4764 183.326 55.2195C182.721 54.9626 182.483 55.5973 182.124 55.9185C182.026 56.0062 181.937 56.1037 181.859 56.2094C181.103 57.1842 180.29 58.0381 178.989 58.2421C178.761 58.3033 178.545 58.403 178.35 58.5368C178.089 58.6766 177.809 58.8429 177.915 59.1942C178.021 59.5456 178.369 59.6023 178.694 59.5721C179.252 59.5168 179.769 59.2538 180.142 58.8353C180.706 58.227 181.451 58.1061 182.184 57.9247C182.608 57.8189 182.699 57.9814 182.627 58.3706C182.459 59.1688 182.405 59.9866 182.464 60.8C182.593 62.0922 183.266 62.7156 184.563 62.776L186.022 62.8516C185.668 63.03 185.283 63.1378 184.888 63.169C182.419 63.475 179.972 64.1211 177.469 63.9586C176.917 63.9208 176.766 63.8 176.811 63.2332C176.924 61.873 176.958 60.5053 177.015 59.1413C177.053 58.1363 176.705 57.8567 175.718 58.1325C174.984 58.3366 174.277 58.6388 173.536 58.8013C173.198 58.8624 172.886 59.0214 172.638 59.2586C172.39 59.4957 172.217 59.8005 172.141 60.135C172.011 60.5623 171.916 60.9995 171.857 61.4423C171.566 63.7924 171.668 66.1576 171.562 68.519C171.546 69.1963 171.458 69.87 171.301 70.5291C171.071 70.2618 170.928 69.9312 170.889 69.5807C170.473 67.8163 170.072 66.0518 169.653 64.2911C169.405 63.2162 169.058 62.1664 168.617 61.1552C168.386 60.6451 168.136 60.1048 167.509 60.0217C166.881 59.9386 166.461 60.4524 166.159 60.9511C165.806 61.5036 165.501 62.085 165.247 62.6891C164.491 64.6161 163.765 66.5619 163.02 68.4963C162.941 68.8538 162.76 69.1807 162.498 69.4371C162.459 69.2983 162.428 69.1569 162.408 69.014C162.335 65.4437 162.45 61.8721 162.752 58.3139C162.786 57.8114 163.043 57.7283 163.478 57.7509C166.317 57.8832 169.15 57.8152 171.99 57.6791C173.619 57.6511 175.24 57.4497 176.826 57.0784C177.144 56.9953 177.582 56.9499 177.556 56.4965C177.529 56.0431 177.129 56.0091 176.8 55.9714C175.809 55.8618 174.814 55.7371 173.82 55.6993C170.458 55.5784 167.096 55.5142 163.731 55.5558C163.266 55.5558 162.975 55.518 163.065 54.9248C163.254 53.0705 163.535 51.2269 163.909 49.4009C164.052 48.7889 163.981 47.8896 164.665 47.7158C165.349 47.542 165.932 48.2372 166.412 48.7473C167.554 50.0191 168.524 51.4355 169.297 52.9601C169.433 53.2094 169.535 53.5419 169.906 53.4626C170.341 53.3719 170.25 52.9865 170.231 52.688C170.137 51.3808 170.019 50.0735 169.929 48.7662C169.929 48.5848 169.793 48.3392 170.091 48.2183C170.529 48.7764 170.9 49.3838 171.196 50.0281C171.804 51.2183 172.372 52.4311 172.973 53.6288C173.101 53.8858 173.12 54.3165 173.57 54.222C174.02 54.1276 173.884 53.7271 173.922 53.4361C173.967 53.0979 173.991 52.7572 173.994 52.416C173.994 50.149 174.016 47.8821 173.994 45.6416C173.994 45.1428 174.024 44.7726 174.652 44.731C174.996 44.7083 175.325 44.4854 175.083 44.1038C174.841 43.7222 175.128 43.7978 175.298 43.7524C175.888 43.5862 176.126 44.0736 176.459 44.3834C177.397 45.2675 178.259 45.0181 178.577 43.7713C178.755 43.0723 178.407 42.7096 177.692 42.8532C177.314 42.9288 176.936 43.0081 176.535 43.0761C176.407 43.109 176.273 43.1027 176.149 43.0583C176.025 43.0138 175.917 42.9332 175.839 42.8267C174.27 40.794 172.519 38.886 171.634 36.4037C171.417 35.6727 171.087 34.9804 170.655 34.3521C170.277 33.876 169.921 33.8344 169.52 34.3521C168.431 35.648 167.978 35.6594 166.715 34.4805C165.085 32.9692 164.843 32.9692 163.466 34.711C162.71 35.6405 162.551 35.6367 161.863 34.6921C161.681 34.4427 161.526 34.0914 161.148 34.1745C160.77 34.2576 160.713 34.6694 160.695 35.0019C160.634 35.9427 160.555 36.8911 160.574 37.8319C160.596 39.0862 160.01 39.8986 158.97 40.5107C158.361 40.8885 157.598 41.1114 157.458 41.988C157.458 42.09 157.223 42.1807 157.08 42.2373C155.945 42.6794 155.06 43.4539 154.1 44.1265C153.926 44.2474 153.722 44.3532 153.775 44.6139C153.827 44.8746 154.07 44.9917 154.296 45.0144C154.867 45.1013 155.431 45.1542 156.017 45.2259C156.603 45.2977 157.314 45.037 157.688 45.4073C158.063 45.7776 157.809 46.5408 157.847 47.1453C158.006 49.7145 158.123 52.2838 158.297 54.8492C158.339 55.4462 158.184 55.6615 157.594 55.6313C157.098 55.6011 156.595 55.6313 156.081 55.6313C155.567 55.6313 155.435 55.8127 155.435 56.2887C155.435 61.9562 155.291 67.6236 155.491 73.291C155.491 73.7822 155.461 73.9862 154.909 74.0164C149.872 74.2847 144.839 74.636 139.783 74.5454C138.225 74.5189 138.203 74.5 138.222 72.9698C138.343 64.5367 138.978 56.1376 139.825 47.7498C139.848 47.5307 139.825 47.2738 140.109 47.0962C140.18 47.4211 140.26 47.7234 140.309 48.0294C140.929 51.8681 141.228 55.7409 141.564 59.6098C141.674 60.868 141.769 62.1224 141.874 63.3881C141.901 63.7017 141.893 64.1022 142.298 64.1249C142.703 64.1475 142.699 63.7093 142.771 63.4259C142.862 63.0424 142.93 62.6538 142.975 62.2622C143.708 56.3001 144.431 50.3304 145.183 44.3683C145.347 42.7536 145.643 41.1551 146.068 39.5888C146.369 40.5065 146.552 41.4587 146.613 42.4225C147.452 49.9375 147.819 57.494 148.352 65.0317C148.526 67.4951 148.73 69.9434 148.946 72.4106C148.972 72.6864 148.855 73.1285 149.324 73.1361C149.872 73.1361 149.702 72.66 149.744 72.3804C149.827 71.7041 149.868 71.0202 149.906 70.3401C150.19 65.0506 150.315 59.795 150.443 54.5205C150.713 43.4199 150.902 32.3181 151.01 21.215C151.037 18.3549 151.01 15.4909 151.01 12.6308C151.01 11.9582 150.863 11.3613 150.197 11.0552C147.437 9.77062 144.699 8.42933 141.746 7.62078C140.453 7.2694 140.456 7.24295 140.328 8.60313C140.067 11.3499 139.81 14.093 139.572 16.836C139.587 17.029 139.535 17.2215 139.424 17.3801C139.313 17.5388 139.15 17.6537 138.963 17.705C137.049 18.3586 135.147 19.0425 133.185 19.5412C132.78 19.6432 132.36 19.8359 131.952 19.7075C131.404 19.5337 131.389 19.8095 131.389 20.2175C131.389 22.9984 131.389 25.7792 131.362 28.5638C131.302 38.0674 131.236 47.5697 131.166 57.0708C131.125 62.5317 131.074 67.9926 131.011 73.4534C131.011 73.7104 131.132 74.1222 130.682 74.1071C129.971 74.0844 129.233 74.2847 128.56 73.9106C128.522 73.8879 128.56 73.7141 128.56 73.6121L128.628 51.0067C128.628 46.0723 128.628 41.1341 128.658 36.1996C128.676 29.769 128.705 23.3371 128.745 16.904C128.745 16.4053 128.56 16.2012 128.076 16.1483C127.24 16.0463 126.416 15.8839 125.584 15.7705C124.321 15.5929 124.041 15.8083 123.939 17.0891C123.882 18.1111 123.91 19.136 124.022 20.1533C124.057 20.5878 124.178 21.0601 123.44 21.079C122.835 21.079 122.555 20.9808 122.529 20.2893C122.445 18.9523 122.234 17.6264 121.897 16.3297C121.825 16.0237 121.769 15.6647 121.413 15.574C120.475 15.3871 119.5 15.5483 118.672 16.0274C118.101 16.3108 118.241 16.9418 118.218 17.4443C117.881 25.1293 117.889 32.8219 118.014 40.5144C118.083 41.2996 118.069 42.0898 117.972 42.8721C116.513 42.09 115.367 40.7676 113.65 40.8016C111.933 40.8356 110.75 42.0786 109.358 43.0988C109.358 42.721 109.358 42.5169 109.358 42.3091C109.324 38.0283 109.305 33.7513 109.249 29.463C109.192 25.0802 109.086 20.6974 109.029 16.3146C109.029 15.7025 108.81 15.4758 108.201 15.4758C107.519 15.479 106.837 15.4386 106.159 15.3549C105.562 15.2831 105.369 15.5514 105.316 16.1106C105.225 17.0476 105.032 17.9997 104.994 18.9216C104.957 19.8435 104.333 19.5979 103.826 19.6772C103.191 19.7604 103.255 19.3259 103.244 18.9216C103.213 17.7881 103.16 16.6546 103.145 15.5211C103.145 14.9809 102.956 14.7882 102.389 14.8524C100.899 15.0224 99.4055 15.1282 97.9157 15.268C96.8606 15.37 96.8569 15.3776 96.8606 16.4544C96.8833 25.0663 96.9073 33.677 96.9325 42.2864C96.9552 49.7448 96.9804 57.2006 97.0081 64.6538C97.0081 67.4384 97.0081 70.2192 97.0497 73.0038C97.0497 74.0164 96.2934 73.5366 95.8586 73.6272C95.3405 73.7368 95.1968 73.4723 95.2044 72.9623C95.2952 63.9322 95.1325 54.9021 94.9964 45.872C94.8225 34.114 94.6183 22.356 94.399 10.5981C94.3536 7.87014 94.3006 5.14097 94.2401 2.41053C94.2401 2.03271 94.278 1.53775 93.6238 1.74556C91.3549 2.46343 89.0861 3.13596 86.9572 4.14476C86.677 4.26016 86.4315 4.44611 86.2446 4.68447C86.0577 4.92284 85.9358 5.20551 85.8908 5.50494C85.7736 6.18125 85.6337 6.85001 85.5126 7.52254C85.3934 6.42479 85.3454 5.32049 85.369 4.21655C85.369 2.62212 85.369 2.64101 83.743 2.85259C83.2552 2.91682 82.9262 3.04906 82.964 3.60825C83.0094 4.3639 82.6842 4.25433 82.1699 4.03519C79.7309 2.99239 77.2805 1.97603 74.8264 0.967236C73.5899 0.457168 73.5861 0.468502 73.571 1.84002C73.4954 8.45452 73.421 15.069 73.3479 21.6835C73.2369 31.8697 73.1273 42.0547 73.0189 52.2384C72.9357 59.1678 72.8223 66.0971 72.7164 73.0189C72.7164 73.2607 72.826 73.6235 72.4971 73.699C72.0735 73.7935 72.0924 73.3628 72.013 73.1209C70.8837 69.6802 69.7618 66.2369 68.6476 62.7911C68.1674 61.2798 67.7363 59.795 67.2825 58.2988C67.8538 59.0491 68.3743 59.8367 68.8404 60.6564C69.1467 61.1325 69.3245 61.9788 70.0278 61.8164C70.6631 61.6728 70.5345 60.8567 70.595 60.305C71.166 55.2648 71.2605 50.1982 71.4799 45.139C71.5275 43.9316 71.3148 42.7281 70.8559 41.6101C69.8992 39.192 68.8064 36.8344 67.7438 34.4654C67.2749 33.4264 66.8136 32.3836 66.3485 31.3446C66.6172 31.5641 66.8341 31.8402 66.9838 32.1531C67.8686 33.8231 68.7421 35.5007 69.6308 37.1593C69.7896 37.4578 69.8955 37.9717 70.3568 37.8545C70.8181 37.7374 70.5837 37.2689 70.595 36.9629C70.769 31.2955 70.9278 25.628 71.1093 19.9606C71.1264 19.4898 70.9941 19.0256 70.7311 18.6344C69.2488 16.2768 67.7816 13.9116 66.4468 11.4557C66.1079 10.9208 65.8529 10.3372 65.6905 9.72527C65.2443 7.54143 64.7906 5.35885 64.3292 3.17752C64.1364 2.25185 63.9246 1.32995 63.7015 0.411829C63.6561 0.226693 63.6486 -0.0528988 63.3498 -0.0188944C63.0511 0.0151101 62.9982 0.249361 63.0095 0.510062C63.0095 0.695197 63.0095 0.887892 63.0095 1.06169C63.0473 3.70649 63.07 6.35128 63.1381 8.99607C63.156 9.21235 63.1189 9.42965 63.0304 9.62781C62.9418 9.82596 62.8045 9.99855 62.6314 10.1296C60.3863 12.0772 58.3256 14.2273 56.4753 16.5526C55.9209 17.2193 55.5187 17.9987 55.2967 18.8365C55.0746 19.6744 55.0381 20.5505 55.1896 21.4039C55.5899 24.074 56.125 26.7222 56.7929 29.3383C57.3693 31.3909 57.4868 33.545 57.137 35.648C56.9063 36.8608 56.7362 38.085 56.4563 39.2827C56.0598 40.811 55.9495 42.3994 56.1311 43.9678C56.3958 45.9174 56.6908 47.8632 56.9479 49.8128C57.2504 52.1251 57.7496 54.426 57.4055 56.7799C56.6152 62.1375 55.3144 67.3855 54.0892 72.6487C53.9606 73.2041 53.711 73.3325 53.1703 73.3325C48.3074 73.3325 43.4483 73.2607 38.5892 73.0907C36.8681 73.0874 35.1495 72.9612 33.4465 72.7129C33.642 72.6416 33.8474 72.6008 34.0553 72.592L42.7979 72.3653C44.7189 72.3124 44.7302 72.3048 44.7529 70.427C44.7529 69.9472 44.9117 69.7772 45.3919 69.7961C47.0444 69.8641 48.6969 69.917 50.3532 69.9397C50.8636 69.9397 50.9657 70.1852 50.9544 70.6235C50.9544 71.2016 50.9544 71.7797 50.9809 72.3577C51.0073 72.8149 51.2418 73.0945 51.7371 73.0454C53.1892 72.9132 53.5447 72.4371 53.2497 71.0316C53.1892 70.7482 53.1022 70.4724 53.0455 70.189C52.9737 69.8376 52.7619 69.5769 52.4178 69.5807C51.4951 69.5807 51.4876 69.048 51.4951 68.3452C51.5216 65.0883 51.4951 61.8352 51.4951 58.5784C51.4951 58.3555 51.5821 58.0532 51.3061 57.9474C50.9506 57.8114 51.0073 58.1892 50.8788 58.3517C50.4666 58.892 49.8578 58.6653 49.3435 58.6539C48.8293 58.6426 49.0108 58.1439 49.0108 57.8492C49.0108 56.062 49.0523 54.2787 49.075 52.4916C49.075 51.9173 49.0939 51.3581 49.0939 50.7611C49.0939 50.4929 48.8822 50.1755 48.6969 50.44C48.1637 51.1956 47.4301 50.9009 46.7608 50.9765C46.2239 51.0332 45.9629 50.848 46.031 50.2813C46.0424 50.0988 46.0424 49.9159 46.031 49.7334C46.031 48.1806 46.031 48.1617 44.4768 48.1314C44.0004 48.1314 43.8302 47.9765 43.834 47.5005C43.834 46.7448 43.7622 45.9892 43.747 45.2335C43.747 45.003 43.6071 44.6479 44.0382 44.6441C44.4693 44.6403 44.4164 44.9917 44.4164 45.2713C44.4164 45.5509 44.4164 45.9023 44.4164 46.2196C44.4164 46.4728 44.3861 46.7788 44.7605 46.8242C45.1348 46.8695 45.1386 46.571 45.2445 46.3254C45.397 45.9188 45.4639 45.4852 45.4411 45.0516C45.4184 44.618 45.3064 44.1937 45.1121 43.8053C44.8701 43.2877 44.6924 42.8985 44.1327 42.7323C43.5731 42.566 42.9303 42.3545 42.3441 42.1278C40.9828 41.5988 40.7862 41.2059 41.1265 39.7815C41.2547 39.2448 41.3081 38.693 41.2853 38.1417C41.2853 37.9263 41.2362 37.7072 40.9488 37.6958C40.6614 37.6845 40.6274 37.915 40.6009 38.1228C40.548 38.5006 40.495 38.9049 40.4723 39.2941C40.3929 40.6202 39.9354 41.2285 38.6611 41.6328C38.0107 41.8406 37.3413 41.988 36.6872 42.192C36.3884 42.2827 36.0821 42.4187 36.0557 42.8041C36.0292 43.1895 36.3317 43.4124 36.6683 43.5219C37.1447 43.6731 37.6325 43.794 38.1165 43.9262C37.6682 44.0875 37.208 44.2138 36.7401 44.304C36.1502 44.4627 35.912 44.9539 36.3279 45.3695C37.1939 46.2423 36.4414 47.0244 36.3279 47.8405C36.3204 47.9083 36.2881 47.9709 36.2371 48.0163C36.1861 48.0616 36.1201 48.0865 36.0519 48.0861C35.2389 48.0257 35.2389 48.5999 35.2729 49.1289C35.3069 49.6579 34.9288 50.3531 35.6208 50.4815C36.2069 50.5911 36.2674 49.8203 36.4187 49.3821C36.4602 49.1541 36.5897 48.9515 36.7792 48.818C36.9688 48.6844 37.2032 48.6305 37.4321 48.668C38.8501 48.7171 40.2682 48.668 41.6862 48.7095C43.6865 48.7511 43.1987 48.4224 43.4029 50.3833C43.4559 50.9009 43.2819 51.0747 42.7563 51.0672C39.9467 51.0332 37.1334 51.1049 34.3238 50.9765C33.8322 50.9538 33.473 50.848 33.265 50.3568C33.1591 50.1075 33.0154 49.7674 32.6486 49.8732C32.2818 49.979 32.3574 50.3342 32.3612 50.6289C32.3839 52.1402 32.399 53.6213 32.4558 55.1175C32.486 55.8505 32.5881 56.5797 32.6789 57.3089C32.7129 57.5696 32.781 57.8492 33.1213 57.8756C33.4616 57.9021 33.5637 57.6376 33.662 57.3958C33.9381 56.7157 34.1914 56.028 34.475 55.348C34.5799 54.9543 34.7859 54.5948 35.0725 54.3051C35.5074 55.1666 35.5981 56.0658 35.9157 56.8895C36.3582 58.023 36.8082 58.1287 37.6325 57.2257C38.3585 56.4323 39.0165 55.5671 39.9014 54.9588C40.6236 54.4676 40.9488 54.5356 41.3383 55.2988C41.6937 55.9978 41.9736 56.7384 42.3063 57.4487C42.5219 57.9096 42.7677 58.363 43.4181 58.227C43.558 58.1968 43.679 58.227 43.7017 58.4046C43.7243 58.5822 43.7017 58.7333 43.4937 58.7824C43.3123 58.8095 43.1287 58.8196 42.9454 58.8126C39.7135 58.7698 36.4817 58.7282 33.2499 58.6879C32.3953 58.6879 31.5558 58.6879 31.1209 57.7245C31.0731 57.598 30.9788 57.4944 30.8573 57.4348C30.7359 57.3751 30.5962 57.3639 30.4667 57.4033C30.1453 57.5091 30.1605 57.7812 30.1491 58.0608C29.9979 61.1778 29.805 64.2987 30.0357 67.4233C30.0413 67.6825 30.0939 67.9385 30.1907 68.179C30.3873 68.5832 30.6974 68.6437 30.947 68.247C31.1006 68.0015 31.219 67.7357 31.2987 67.4573C31.6768 66.2823 31.9944 65.0921 32.3764 63.9208C32.5238 63.4637 32.607 62.9461 33.0721 62.6136C33.4278 63.1443 33.6711 63.7422 33.7868 64.3705C34.1196 65.6135 34.4145 66.8641 34.7586 68.1034C34.8759 68.5228 35.0271 69.0026 35.5716 69.0555C36.1162 69.1084 36.2863 68.6777 36.4792 68.2999C37.0615 67.2117 37.6136 66.1085 38.1959 65.0203C38.5759 64.2406 39.0564 63.5141 39.6253 62.8592C40.2833 62.164 40.6652 62.1866 41.1643 62.9876C41.5652 63.6337 41.9206 64.3138 42.2609 64.9863C42.8584 66.1198 43.1912 67.3855 43.9626 68.4397C44.3142 68.9195 44.0874 69.2633 43.4786 69.2709C41.0622 69.3011 38.6459 69.3011 36.2296 69.3427C33.9608 69.3842 31.6919 69.4183 29.4571 69.6109C28.6403 69.6827 28.3832 70.121 28.3794 70.8615C28.3756 71.6021 28.6895 72.1726 28.9202 72.8791L24.2577 72.5315C24.0005 72.5315 23.993 72.3313 24.0232 72.131C24.3068 70.1059 24.0232 68.0958 23.8758 66.0858C23.8154 65.3275 23.9172 64.565 24.1745 63.8491C24.7152 62.3718 25.2182 60.8793 25.7324 59.3907C25.8194 59.1413 25.8837 58.8617 25.619 58.6728C25.3543 58.4839 25.1274 58.7106 24.927 58.8617C24.5117 59.2225 24.0761 59.5593 23.6224 59.8705C23.1157 60.169 22.8283 59.9688 22.8888 59.4134C23.0117 58.0303 23.0028 56.6387 22.8623 55.2573C22.7982 54.55 22.9611 53.8407 23.3275 53.2321C23.785 52.4349 24.2085 51.6188 24.6358 50.8065C24.7568 50.576 24.8703 50.3077 24.6358 50.0848C24.4014 49.8619 24.0913 50.0092 23.8795 50.1944C23.5354 50.4777 23.2065 50.78 22.8737 51.0785C22.7957 51.169 22.693 51.2348 22.5781 51.2677C22.4632 51.3006 22.3412 51.2992 22.2271 51.2636C21.9888 51.1654 22.0456 50.8858 22.0342 50.7044C21.9699 49.7108 21.9548 48.7095 21.8603 47.7158C21.7254 46.6469 21.9027 45.5618 22.3708 44.5912C22.703 43.8555 22.9847 43.0981 23.214 42.3242C23.3123 42.0333 23.4409 41.6744 23.1157 41.4514C22.7905 41.2285 22.488 41.5232 22.2233 41.7273C21.762 42.0824 21.467 42.6378 20.8582 42.9287C20.8242 42.4414 20.8355 42.0182 20.7674 41.6101C20.6221 40.9683 20.6303 40.3013 20.7913 39.6632C20.9522 39.0252 21.2615 38.434 21.6939 37.9377C21.8968 37.6643 22.0609 37.3642 22.1817 37.046C22.3103 36.7664 22.3594 36.4604 22.0569 36.2677C21.6788 36.0447 21.5313 36.3621 21.38 36.5964C21.1531 36.9478 20.983 37.352 20.7448 37.6845C20.5065 38.017 20.0868 38.2021 19.7881 37.7676C19.1679 36.8722 18.2755 36.3319 17.3907 35.7576C16.7024 35.3042 15.9802 34.8999 15.239 34.4503C15.4772 34.2926 15.7662 34.2305 16.0483 34.2765C17.1827 34.2009 18.3549 34.1291 19.512 34.0838C19.7351 34.0985 19.9572 34.0425 20.1466 33.9238C20.3361 33.8051 20.4832 33.6297 20.567 33.4226C21.0924 32.1329 21.4593 30.7843 21.6599 29.4063C21.7015 29.1758 21.7241 28.9 21.4405 28.798C21.3241 28.7695 21.2015 28.7799 21.0915 28.8277C20.9816 28.8755 20.8903 28.958 20.8317 29.0625C20.3855 29.6141 19.9507 30.1733 19.512 30.7287C19.3835 30.8912 19.2851 31.133 19.0393 31.1065C18.3259 31.0235 17.625 30.8548 16.952 30.604C17.4587 30.4793 17.7839 30.3773 18.1167 30.3244C18.502 30.2988 18.8635 30.129 19.1291 29.8489C19.3948 29.5688 19.545 29.199 19.5498 28.8131C19.6406 27.9252 19.8145 27.0487 19.8939 26.1683C19.928 25.7905 20.2002 25.1709 19.7654 25.0348C19.183 24.8497 19.1641 25.56 19.0091 25.9227C18.4532 27.0789 18.4041 27.1167 17.0692 26.6444C17.4474 26.565 17.765 26.4933 18.0713 26.4366C18.2831 26.3988 18.5326 26.361 18.5515 26.1117C18.612 25.2238 18.752 24.317 18.4683 23.4669C18.3663 23.1495 18.3209 23.0324 18.5515 22.7717C18.8881 22.3938 18.7141 21.3397 18.2982 21.1319C17.7272 20.841 17.7461 21.5097 17.4549 21.7062C17.3775 21.7301 17.2976 21.7453 17.2167 21.7515C17.1751 20.7767 17.107 19.8019 16.3394 19.0689C15.8912 18.6144 15.6226 18.0132 15.5831 17.3763C15.4382 16.4424 15.3648 15.4989 15.3638 14.5539C15.3827 14.0061 15.3638 13.4507 15.3638 12.9028C15.3638 12.695 15.3638 12.4607 15.0689 12.4381C14.6907 12.4116 14.721 12.6988 14.721 12.9217C14.721 13.4469 14.721 13.9721 14.7512 14.4972C14.8055 15.4939 14.7802 16.4932 14.6756 17.4858C14.6151 17.9544 14.4601 18.302 13.8928 18.2415C13.3824 18.1886 13.1366 18.5287 12.9286 18.9103C12.5432 19.6578 12.228 20.4395 11.987 21.2452C11.8698 21.6231 11.711 21.7855 11.3102 21.6533C10.7127 21.453 10.5766 21.7629 10.5955 22.2956C10.6371 23.3157 10.6408 24.3396 10.6749 25.3636C10.6749 25.9643 10.4858 26.1192 9.94128 25.8207C9.72574 25.7036 9.46483 25.492 9.21903 25.7225C8.97324 25.953 9.16988 26.2174 9.21903 26.4781C9.37785 27.5096 9.72574 28.5222 9.63499 29.5839C9.63499 29.7804 9.66146 30.0486 9.43079 30.1393C9.20013 30.23 9.14341 29.9655 9.01862 29.8521C8.89383 29.7388 8.79552 29.6028 8.61401 29.6821C8.4325 29.7615 8.43628 29.9844 8.4741 30.162C8.54973 30.5209 8.64804 30.8761 8.72367 31.235C8.9619 32.3949 9.21525 33.5511 9.03375 34.745C9.01106 34.9188 8.96568 35.1644 8.84846 35.2324C8.62157 35.3684 8.49679 35.0926 8.33419 34.983C8.07327 34.8092 7.89933 34.2803 7.52497 34.5637C7.15061 34.847 7.55522 35.1871 7.65353 35.4893C7.9863 36.5397 8.35309 37.5787 8.70476 38.6253C9.02676 39.7093 9.18855 40.8345 9.185 41.9653C9.185 42.532 9.12072 42.9061 8.42872 42.4791C8.05894 42.2825 7.66994 42.1242 7.26783 42.0069C6.9691 41.9011 6.64012 41.7915 6.38298 42.0673C6.12585 42.3431 6.20904 42.7096 6.33004 43.0345C6.61398 43.8266 7.00863 44.5746 7.50228 45.2562C8.76905 46.9488 8.58376 48.8002 8.23587 50.6931C8.16024 51.1163 7.98252 51.1692 7.66866 50.9198C7.1922 50.542 6.73087 50.1642 6.24685 49.7863C5.96703 49.5823 5.68342 49.1818 5.29015 49.4538C4.89689 49.7259 5.11999 50.1868 5.25612 50.5269C5.6683 51.547 6.12585 52.552 6.56071 53.5495C6.74723 53.902 6.86528 54.2866 6.9086 54.683C6.98044 56.2321 6.9086 57.7774 6.83675 59.3265C6.81028 59.8365 6.60987 59.8328 6.25063 59.5985C5.65948 59.1877 5.10415 58.7276 4.5906 58.2232C4.39774 58.0456 4.21246 57.8 3.91751 57.9625C3.62256 58.125 3.75491 58.4726 3.82297 58.7182C3.89167 59.0261 3.99177 59.3261 4.1217 59.6136C5.19002 61.8455 5.58423 64.3401 5.25612 66.7923C5.04058 68.553 5.04436 70.3779 5.72123 72.0819C5.96703 72.7091 5.7477 72.7318 5.2599 72.7053C3.68432 72.6222 2.10999 72.5454 0.53693 72.4749C0.310045 72.4749 0.0113139 72.3917 -0.0189373 72.7318C-0.0491886 73.0718 0.241979 73.0114 0.438612 73.0265C2.40116 73.1738 4.36749 73.2948 6.34139 73.2759C6.49933 73.2812 6.6566 73.2529 6.80272 73.1927C7.13926 73.034 7.2527 72.7582 6.88591 72.5542C6.12963 72.131 6.04266 71.3867 5.933 70.6651C5.69743 69.0249 5.67709 67.361 5.87249 65.7155C6.10782 64.0462 5.86937 62.3444 5.18428 60.8038C4.89186 60.2843 4.71999 59.7058 4.68135 59.1111C4.9952 59.3454 5.21831 59.5229 5.43763 59.6854C5.69099 59.8724 5.95625 60.0428 6.23172 60.1955C6.98801 60.5733 7.31321 60.3806 7.36615 59.5683C7.42665 58.5708 7.44178 57.5733 7.51362 56.5797C7.65785 55.027 7.33108 53.467 6.57583 52.1024C6.27498 51.4955 6.0049 50.8738 5.76661 50.2397C6.18161 50.4091 6.55458 50.667 6.85944 50.9954C8.21696 52.0533 8.56863 51.9022 8.87871 50.2397C9.25685 48.2183 9.10559 46.333 7.83504 44.6176C7.51835 44.1385 7.2438 43.6328 7.01448 43.1063C6.92751 42.9325 6.73843 42.7285 6.93129 42.5358C7.12414 42.3431 7.30943 42.5358 7.44178 42.6038C7.94818 42.8197 8.44295 43.0618 8.92408 43.3292C9.47995 43.6504 9.68037 43.469 9.71062 42.8834C9.83664 41.389 9.68667 39.8842 9.26819 38.4439C9.01484 37.6467 8.76527 36.8457 8.51191 35.9843C9.26819 36.1052 9.44592 35.6442 9.56314 35.0926C9.74831 33.9504 9.70331 32.7828 9.43079 31.6582C9.3892 31.4201 9.17366 31.0763 9.43079 30.9252C10.414 30.3849 10.24 29.4819 10.1871 28.6582C10.1379 27.9403 9.98288 27.2262 9.86187 26.4517C10.0509 26.5008 10.153 26.5159 10.24 26.5499C11.1211 26.8824 11.1286 26.8824 11.2194 25.9416C11.3064 24.8943 11.3064 23.8416 11.2194 22.7943C11.1967 22.4165 11.2194 22.1482 11.7072 22.2767C12.1383 22.3863 12.3047 22.1596 12.4332 21.778C12.7168 20.9581 13.0345 20.1533 13.3635 19.3523C13.4807 19.0689 13.6206 18.7478 14.0214 18.7742C14.2247 18.7834 14.4275 18.7487 14.6161 18.6724C14.8047 18.5961 14.9746 18.4801 15.1142 18.3322C15.9877 19.4014 16.7327 20.4594 16.7629 21.914C16.7629 22.5298 16.6382 22.579 16.1655 22.5223C15.5201 22.3912 14.8604 22.3442 14.2029 22.3825C13.8966 22.4241 13.4088 22.322 13.4088 22.8094C13.4088 23.2968 13.8853 23.1873 14.2029 23.1873C14.8306 23.1873 15.4621 23.1381 16.0936 23.1419C17.6932 23.1419 18.094 23.5915 18.0789 25.1633C18.0789 25.662 17.9087 25.8585 17.4285 25.919C16.0785 26.1268 14.7437 26.4139 13.3786 26.5273C13.1517 26.5499 12.7773 26.5046 12.8454 26.9051C12.9135 27.3056 13.2462 27.1922 13.4845 27.1393C14.6189 26.89 15.7268 27.1053 16.8499 27.2376C17.6062 27.3283 18.4154 27.6456 19.2511 27.0751C19.1717 27.6192 19.0809 28.0272 19.0545 28.4428C19.0053 29.1985 18.6234 29.5574 17.8633 29.7388C16.1832 30.1761 14.4342 30.2839 12.7131 30.0562C12.2668 29.9919 11.5219 29.8786 11.503 30.536C11.4841 31.1934 12.2593 31.0461 12.6374 30.9932C14.7701 30.6909 16.8197 31.167 18.8692 31.6128C19.0652 31.678 19.278 31.6716 19.4698 31.5948C19.6615 31.518 19.8199 31.3758 19.9166 31.1934C20.1615 30.7081 20.5291 30.2952 20.983 29.9957C20.804 30.9071 20.5652 31.8057 20.2683 32.6859C20.2197 32.9294 20.0819 33.1461 19.8819 33.2935C19.6819 33.441 19.4341 33.5085 19.1868 33.4831C16.918 33.4604 14.6491 34.0574 12.3803 33.3886C12.0929 33.3017 11.6921 33.3319 11.624 33.7664C11.5559 34.2009 11.9606 34.2123 12.2706 34.2614C12.8341 34.3521 13.405 34.2274 13.976 34.4881C15.5526 35.2077 17.0472 36.0944 18.4343 37.1329C18.665 37.3142 18.9713 37.4616 19.0431 37.8092C18.7151 37.935 18.3569 37.96 18.0146 37.881C16.0483 37.7941 14.0819 37.5787 12.1156 37.8545C11.711 37.9112 11.0303 37.8243 11.106 38.4364C11.1665 38.9313 11.8055 38.7689 12.1912 38.7575C14.634 38.6971 17.073 38.5951 19.5158 38.5271C20.4347 38.5044 20.4233 38.5271 20.1927 39.3734C20.1385 39.6022 20.1181 39.8377 20.1322 40.0724C20.1662 40.7562 20.1965 41.4363 20.2683 42.1164C20.3401 42.7965 20.1549 42.9968 19.4591 42.9476C17.8096 42.8028 16.1529 42.7562 14.4979 42.8079C13.5507 42.8106 12.6101 42.9636 11.711 43.2612C11.4387 43.3595 11.1324 43.4955 11.1702 43.8469C11.2081 44.1983 11.5257 44.2587 11.8206 44.3003C11.9773 44.3224 12.1351 44.335 12.2933 44.3381C14.868 44.4049 17.4441 44.2786 19.9998 43.9602C20.2252 43.9053 20.4454 43.8307 20.6578 43.7373C21.4405 43.5144 21.8376 42.789 22.4842 42.3167C22.5089 42.3975 22.5216 42.4815 22.522 42.566C22.5015 42.697 22.462 42.8243 22.4048 42.9439C21.2061 45.0824 21.1153 47.3796 21.4254 49.7448C21.4632 50.0281 21.4254 50.3266 21.4708 50.6062C21.5615 51.1276 21.3611 51.2372 20.8695 51.1918C19.4288 51.0672 17.9881 50.9803 16.5436 50.8971C15.0496 50.7636 13.544 50.8566 12.0778 51.173C11.5711 51.2976 10.8072 51.3619 10.8375 52.042C10.8677 52.722 11.6429 52.654 12.161 52.6994C15.2352 52.9601 18.302 52.6503 21.3687 52.5105C21.4973 52.5105 21.6977 52.5105 21.7468 52.4236C22.1855 51.6679 23.2594 51.9513 23.7283 51.1994C23.5675 51.6988 23.3398 52.1741 23.0514 52.6125C22.4628 53.4907 22.2154 54.5535 22.3556 55.6011C22.4893 56.75 22.5095 57.9092 22.4161 59.062C22.3556 59.7421 22.1325 60.0028 21.3952 59.9574C18.6685 59.7591 15.9329 59.7099 13.2009 59.8101C12.5432 59.8089 11.8917 59.9373 11.2837 60.1879C11.1821 60.2203 11.0932 60.2835 11.0295 60.3689C10.9657 60.4543 10.9303 60.5575 10.9282 60.664C10.9252 60.7846 10.9667 60.902 11.0448 60.994C11.1229 61.086 11.2322 61.146 11.3517 61.1627C11.7628 61.2461 12.1803 61.2941 12.5996 61.3063C15.8138 61.3063 18.994 60.8793 22.1855 60.6149C23.1724 60.5317 24.1934 60.6149 24.9119 59.659C24.9572 59.7118 25.0064 59.761 25.0518 59.8101C24.6283 61.0078 24.2312 62.2206 23.7699 63.4032C23.418 64.3367 23.2885 65.3392 23.3917 66.3314C23.5727 68.0025 23.6459 69.6835 23.6111 71.3641C23.5922 71.7645 23.5922 72.1764 23.0212 72.2066C22.2082 72.2482 21.4103 72.4182 20.5897 72.3917C17.5154 72.2935 14.4449 72.1499 11.3744 72.3917C10.8002 72.4463 10.2296 72.5334 9.66524 72.6525C9.60592 72.6571 9.54828 72.6743 9.49613 72.703C9.44398 72.7316 9.39852 72.771 9.36276 72.8185C9.327 72.866 9.30176 72.9206 9.28872 72.9786C9.27567 73.0366 9.27512 73.0967 9.2871 73.155C9.32491 73.4232 9.52533 73.4837 9.74087 73.5101C10.0528 73.5548 10.3673 73.5788 10.6824 73.5819C12.3879 73.5252 14.0857 73.5328 15.7987 73.3703C20.2426 72.8901 24.7282 72.9472 29.1584 73.5403C29.3134 73.563 29.4722 73.5743 29.6273 73.5819C29.8466 73.5819 30.0621 73.5819 30.1642 73.3439C30.2663 73.1058 30.1037 72.966 29.926 72.8376C29.4929 72.4857 29.2048 71.9866 29.1168 71.4358C28.8786 70.4346 29.0374 70.2155 30.0432 70.1474C34.528 69.849 39.0203 69.8527 43.5126 69.8301C44.3445 69.8301 44.2235 70.3099 44.2348 70.7935C44.2462 71.2772 44.4201 71.8137 43.5882 71.8137C42.1437 71.8137 40.6992 71.8855 39.2547 71.9157C36.8082 71.9686 34.3389 71.9535 31.915 72.2066C31.5823 72.2444 31.0718 72.165 31.0756 72.694C31.0793 73.223 31.5785 73.1625 31.9188 73.2154C32.6448 73.3288 33.3784 73.4194 34.1082 73.4648C40.5896 73.8728 47.0785 73.8842 53.5673 73.9484C54.2367 73.9484 54.4749 73.7217 54.6186 73.1096C55.4996 69.354 56.4072 65.6022 57.1446 61.8164C57.7345 58.7937 58.4643 55.8089 57.9613 52.6956C57.6475 50.7233 57.3979 48.7435 57.0916 46.775C56.6794 44.1302 56.4374 41.4855 57.1672 38.818C58.1843 35.1809 58.1463 31.33 57.0576 27.7136C56.3608 25.3438 55.916 22.9072 55.7303 20.4442C55.6389 19.3905 55.9391 18.3401 56.5736 17.4934C58.3552 15.1167 60.3748 12.9278 62.6011 10.9608C62.7297 10.8436 62.8583 10.6283 63.0473 10.7001C63.3007 10.7945 63.1835 11.0779 63.1872 11.2555C63.215 13.6182 63.2364 15.9808 63.2515 18.3435C63.2515 18.5513 63.2515 18.7629 63.2742 18.9707C63.2742 19.0372 63.3004 19.101 63.3471 19.1484C63.3938 19.1958 63.4573 19.2229 63.5238 19.2239C63.7242 19.2239 63.8074 19.1218 63.8187 18.9405C63.8301 18.7591 63.8187 18.6269 63.8187 18.4682C63.8187 14.8222 63.8641 11.1761 63.6864 7.5301C63.6183 6.19259 63.6864 4.8513 63.6864 3.51379C64.0366 4.44891 64.2901 5.41743 64.4427 6.40417C64.8186 9.27521 65.854 12.0205 67.4678 14.4254C68.4245 15.8347 69.2451 17.3385 70.1564 18.778C70.4283 19.1933 70.5607 19.6842 70.5345 20.1798C70.3795 25.0311 70.2547 29.8862 70.1034 34.7412C70.1425 35.3326 70.0759 35.9263 69.9068 36.4943C69.0182 34.8055 68.2127 33.2488 67.3922 31.7035C66.3334 29.7086 65.267 27.7187 64.1931 25.7338C64.0607 25.4845 63.8906 25.1633 63.5351 25.356C63.1797 25.5487 63.4103 25.8283 63.4973 26.055C63.9435 27.1885 64.3859 28.2993 64.8586 29.4101C66.6624 33.6644 68.7421 37.7941 70.4173 42.1013C70.7275 42.7715 70.8974 43.4979 70.9164 44.236C70.7765 48.8795 70.6139 53.523 70.2471 58.1552C70.2218 59.0968 70.095 60.0329 69.869 60.9473C69.4908 60.7962 69.4001 60.4675 69.2488 60.1917C68.6287 59.1262 68.0388 58.0419 67.4111 56.9764C67.2636 56.7232 67.101 56.3454 66.7039 56.5192C66.3069 56.693 66.4355 57.0595 66.4997 57.3542C66.6586 58.0721 66.8325 58.7862 67.0405 59.4927C68.3678 64.0002 69.8463 68.4548 71.3362 72.9131C71.6236 73.7633 71.6198 73.767 70.7009 73.7217C69.3093 73.6537 67.9216 73.5743 66.5413 73.5252C64.8099 73.4056 63.072 73.4144 61.3419 73.5517C61.047 73.5857 60.5478 73.5252 60.5856 74.0164C60.6121 74.4207 61.0356 74.3942 61.3419 74.3942C64.8322 74.6323 68.3262 74.5302 71.8202 74.5C73.0454 74.5 73.2874 74.1637 73.3063 72.932C73.3819 68.4963 73.4689 64.0606 73.5218 59.625C73.6983 44.6101 73.8685 29.5952 74.0323 14.5804C74.0815 10.4243 74.1079 6.23415 74.1495 2.05916C74.1495 1.68133 74.021 1.18638 74.7356 1.48108C77.2843 2.52766 79.8519 3.53646 82.3627 4.6775C82.5201 4.7248 82.6549 4.82735 82.7425 4.96623C82.8301 5.10511 82.8644 5.27095 82.8392 5.43315C82.6148 8.47089 82.4081 11.5099 82.2191 14.5501C81.9506 19.0538 81.6859 23.5613 81.8031 28.0801C81.8031 28.3975 81.6934 28.8849 82.1472 28.9302C82.601 28.9756 82.5518 28.4844 82.6199 28.1746C82.6652 27.9701 82.6993 27.7632 82.722 27.5549C83.4783 20.3762 83.9358 13.2202 84.3102 6.01879C84.3366 5.47849 84.3631 4.97976 83.7581 4.68127C83.3194 4.46591 83.5425 4.02763 83.5614 3.68381C83.5804 3.33999 83.9056 3.36644 84.1589 3.30598C84.9152 3.1473 84.8093 3.68381 84.8093 4.11076C84.8093 10.622 84.8093 17.1332 84.8093 23.6444C84.8093 23.89 84.6316 24.3245 85.0816 24.3283C85.5316 24.3321 85.369 23.9051 85.369 23.6558C85.369 20.977 85.4219 18.302 85.5467 15.6269C85.6436 12.4249 85.9112 9.2302 86.3483 6.05657C86.3856 5.66799 86.5348 5.29852 86.7777 4.99278C87.0206 4.68704 87.3469 4.45812 87.7172 4.33367C89.4491 3.63092 91.2188 3.04906 92.9885 2.44454C93.6049 2.23673 93.6918 2.44454 93.6994 2.99617C93.6994 4.8853 93.775 6.77444 93.8091 8.66358C94.0032 19.7113 94.1948 30.7602 94.3838 41.8104C94.4922 48.5811 94.5779 55.353 94.641 62.1262C94.6788 65.6437 94.641 69.1613 94.6863 72.6789C94.6863 73.3288 94.5086 73.5706 93.7902 73.5743C90.3811 73.5617 86.9735 73.7206 83.5804 74.0504C82.877 74.126 82.1812 74.2809 81.4892 74.4282C81.3679 74.4388 81.2553 74.4958 81.175 74.5873C81.0947 74.6788 81.0528 74.7978 81.0582 74.9194C81.0771 75.2292 81.338 75.267 81.5762 75.2972C81.9165 75.3312 82.2569 75.3728 82.5972 75.3766C86.4883 75.4144 90.368 75.1877 94.2477 74.9005C94.6523 74.8703 95.1061 74.9005 95.2422 74.3338C95.3027 74.0769 95.5825 74.1335 95.783 74.126C96.1507 74.1052 96.5193 74.1052 96.8871 74.126C97.4732 74.1713 97.6434 73.9219 97.6434 73.3439C97.6094 71.1411 97.6094 68.9346 97.6056 66.7281C97.5753 53.5218 97.5463 40.3167 97.5186 27.1129C97.5186 23.5953 97.477 20.0777 97.4505 16.5602C97.4505 16.1559 97.4014 15.7781 98.0064 15.7403C99.345 15.6534 100.676 15.5211 102.011 15.3625C102.453 15.3171 102.627 15.4456 102.627 15.9065C102.627 16.7718 102.65 17.637 102.695 18.5022C102.729 19.137 102.888 19.8019 101.879 19.749C101.831 19.7454 101.783 19.7516 101.738 19.7672C101.692 19.7827 101.651 19.8073 101.615 19.8395C101.58 19.8717 101.551 19.9108 101.532 19.9544C101.512 19.9979 101.501 20.045 101.5 20.0929C101.489 20.1586 101.501 20.2264 101.535 20.2839C101.569 20.3415 101.622 20.3849 101.686 20.4065C102.143 20.5425 102.76 20.7843 103.051 20.5349C103.607 20.0324 104.185 20.1306 104.805 20.1004C105.263 20.0777 105.463 19.9077 105.501 19.4506C105.554 18.8234 105.652 18.1999 105.743 17.5614C106.046 15.4456 105.599 15.8688 107.721 15.9028C108.292 15.9028 108.477 16.1219 108.477 16.7C108.647 25.2313 108.829 33.7589 108.817 42.2902C108.817 43.2121 108.689 43.9829 107.899 44.5572C107.696 44.7248 107.534 44.9368 107.426 45.1768C107.392 45.2346 107.374 45.2996 107.371 45.3663C107.369 45.4329 107.383 45.4992 107.412 45.5592C107.441 45.6192 107.484 45.6712 107.538 45.7106C107.592 45.75 107.655 45.7756 107.721 45.7851C107.892 45.8344 108.072 45.8469 108.248 45.8217C108.425 45.7964 108.594 45.7341 108.744 45.6387C108.895 45.5434 109.023 45.4172 109.121 45.2685C109.219 45.1199 109.284 44.9521 109.313 44.7763C109.366 44.3758 109.267 43.9489 109.653 43.6126C110.385 42.9344 111.179 42.326 112.024 41.7953C113.132 41.153 114.236 41.0132 115.352 41.7953C115.805 42.1089 116.282 42.3885 116.755 42.668C117.624 43.1781 118.347 43.7562 118.229 44.935C118.193 45.0329 118.18 45.1377 118.19 45.2416C118.199 45.3454 118.232 45.4458 118.286 45.5353C118.34 45.6248 118.413 45.7011 118.5 45.7588C118.587 45.8164 118.686 45.8538 118.789 45.8682C119.277 45.9249 119.436 45.4904 119.625 45.1542C119.814 44.8179 119.957 44.4249 119.526 44.1907C118.664 43.7222 118.57 42.9741 118.626 42.1202C118.66 41.6215 118.626 41.1227 118.626 40.6089C118.487 32.9428 118.475 25.2804 118.815 17.6181C118.868 16.4128 118.921 16.375 120.086 16.1408C120.268 16.1068 120.464 16.0992 120.631 16.0614C121.081 15.9708 121.323 16.1408 121.387 16.6017C121.561 17.6899 121.765 18.7705 121.943 19.8586C122.12 20.9468 122.083 20.9543 120.975 21.1961C120.796 21.2366 120.622 21.2922 120.453 21.3624C120.365 21.3952 120.291 21.455 120.24 21.5332C120.189 21.6113 120.164 21.7037 120.169 21.7969C120.169 22.0236 120.343 22.1142 120.521 22.1747C121.065 22.3334 121.704 22.4241 122.113 22.0689C122.514 21.7443 123.024 21.5872 123.538 21.6306C124.476 21.6079 124.703 21.3586 124.628 20.4291C124.52 19.299 124.487 18.1631 124.529 17.0287C124.559 16.443 124.786 16.1597 125.422 16.273C126.037 16.4076 126.661 16.501 127.29 16.5526C127.982 16.5942 128.193 16.8776 128.19 17.5841C128.14 23.9618 128.125 30.3433 128.106 36.721C128.076 47.0937 128.046 57.4638 128.016 67.8314C128.065 68.154 128.017 68.4839 127.88 68.7797C127.789 68.4019 127.713 68.1525 127.66 67.8805C127.258 65.4734 126.732 63.0886 126.083 60.7358C125.958 60.2023 125.749 59.6922 125.463 59.2245C125.123 58.7408 124.707 58.7559 124.431 59.2811C124.272 59.6135 124.146 59.9601 124.053 60.3164C123.126 63.6337 122.593 67.0342 121.841 70.3893C121.693 71.0316 121.648 71.7117 121.254 72.3804C120.423 71.1978 119.655 70.0757 118.857 68.98C118.425 68.3183 117.869 67.7462 117.22 67.2949C116.513 66.8452 115.957 67.0153 115.632 67.7747C115.492 68.1158 115.388 68.4703 115.321 68.8326C115.129 69.8905 114.977 70.956 114.785 72.0139C114.463 73.7859 114.456 73.7481 112.659 73.7104C108.538 73.6272 104.412 73.5366 100.287 73.6121C99.9992 73.6121 99.5719 73.5101 99.5076 73.9446C99.4434 74.3791 99.8858 74.4736 100.196 74.5378C104.169 75.4341 108.224 75.9153 112.296 75.9736C112.721 75.9884 113.141 75.8885 113.513 75.6843C113.885 75.4801 114.195 75.1793 114.41 74.8136C114.503 74.6447 114.646 74.5085 114.819 74.424C114.992 74.3394 115.188 74.3105 115.378 74.3413C120.472 74.4698 125.569 74.568 130.663 74.7192C131.419 74.7192 131.597 74.5076 131.597 73.7859C131.597 70.3855 131.665 66.9624 131.691 63.5506C131.774 52.1074 131.854 40.6618 131.929 29.2136C131.929 26.5084 131.929 23.8069 131.96 21.1017C131.96 20.7541 131.858 20.3725 132.417 20.2704C134.573 19.8926 136.618 19.137 138.672 18.3813C139.269 18.1697 139.428 18.336 139.379 18.9065C139.296 20.482 139.231 22.0538 139.159 23.6293C139.025 25.8827 139.052 28.1428 139.239 30.3924C139.273 30.7211 139.091 31.3332 139.655 31.3219C140.218 31.3106 139.991 30.74 140.003 30.4189C140.052 29.2401 140.059 28.0575 140.052 26.8749C140.052 24.1734 139.885 21.4644 140.018 18.7667C140.177 15.4683 140.574 12.1774 140.872 8.8865C140.956 7.97593 140.959 7.99105 141.859 8.25175C144.506 9.0074 146.96 10.1824 149.422 11.3348C149.73 11.4339 149.995 11.6335 150.175 11.9014C150.356 12.1694 150.441 12.4901 150.417 12.8121C150.432 14.8574 150.432 16.904 150.417 18.9518C150.375 26.4593 150.247 33.9667 150.11 41.4703C149.948 50.474 149.732 59.4738 149.396 68.4737C149.396 68.6664 149.513 68.9195 149.199 69.1046C149.161 68.7268 149.116 68.3981 149.093 68.0618C148.571 60.5053 148.159 52.9185 147.471 45.362C147.341 43.3184 147.064 41.2867 146.643 39.2827C146.563 38.9389 146.503 38.478 146.038 38.4628C145.573 38.4477 145.527 38.9087 145.421 39.2525C145.372 39.4301 145.338 39.6303 145.304 39.7928C144.279 45.2675 143.773 50.8102 143.103 56.3341C142.892 58.0796 142.677 59.8265 142.461 61.5745C142.28 61.2396 142.18 60.8669 142.169 60.4864C141.912 57.0859 141.602 53.6855 141.186 50.2851C141.066 48.9782 140.834 47.6839 140.494 46.4161C140.411 46.1441 140.286 45.838 139.916 45.872C139.545 45.906 139.5 46.1705 139.447 46.4312C139.345 46.9451 139.235 47.4627 139.182 47.9803C138.426 55.2686 137.946 62.5758 137.651 69.8943C137.598 71.2583 137.651 72.626 137.651 73.99C137.651 74.6549 137.938 75.0139 138.634 75.0365C139.33 75.0592 140.048 75.1423 140.755 75.1423C145.331 75.1423 149.895 74.8703 154.459 74.6096C154.879 74.5831 155.374 74.4282 155.703 74.6096C156.947 75.2254 158.127 74.6474 159.333 74.5567C159.598 74.5567 159.802 74.4282 159.779 74.126C159.757 73.8237 159.496 73.8464 159.299 73.8502C158.615 73.8502 157.934 73.8879 157.25 73.9144C156.051 73.9635 156.051 73.9673 155.998 72.7809C155.998 72.7016 155.998 72.6222 155.998 72.5429C155.862 67.6613 155.941 62.7798 155.998 57.8983C156.021 56.1792 156.028 56.1905 157.703 56.1792C158.15 56.1792 158.418 56.2887 158.399 56.7799C158.38 57.3618 158.713 57.5356 159.239 57.5771C160.025 57.6149 160.812 57.7018 161.598 57.7207C162.048 57.7207 162.2 57.8869 162.15 58.3403C162.067 59.1224 162.01 59.9083 161.969 60.6942C161.818 63.6035 161.591 66.5127 161.837 69.4258C161.871 69.8414 161.78 70.4535 162.351 70.5328C162.922 70.6122 162.994 69.9963 163.149 69.6034C163.999 67.4309 164.82 65.2432 165.671 63.0707C165.931 62.3525 166.299 61.6775 166.76 61.0683C167.24 60.4637 167.58 60.4864 167.917 61.1929C168.212 61.8355 168.465 62.4969 168.673 63.1728C169.43 65.5002 169.774 67.9258 170.424 70.2797C170.553 70.7482 170.545 71.4925 171.237 71.4434C171.929 71.3943 171.842 70.6651 171.922 70.1814C172.107 68.7232 172.183 67.2531 172.148 65.7835C172.124 64.2075 172.225 62.6321 172.451 61.072C172.553 60.4826 172.621 59.7874 173.245 59.5267C174.104 59.202 174.98 58.9232 175.869 58.6917C176.153 58.6048 176.437 58.6388 176.38 59.0355C176.142 60.7169 176.61 62.4738 175.85 64.1022C175.815 64.1627 175.802 64.2337 175.814 64.3028C175.826 64.3719 175.861 64.4346 175.915 64.48C176.176 64.7105 176.104 65.0128 176.089 65.2924C175.949 67.9901 175.786 70.6915 175.68 73.393C175.654 74.0088 175.446 74.1751 174.848 74.1789C171.615 74.2053 168.386 74.3602 165.168 74.6663C164.79 74.7003 164.079 74.5038 164.139 75.131C164.189 75.6448 164.843 75.3841 165.21 75.3766C169.369 75.267 173.529 75.1688 177.688 74.7494C178.108 74.704 178.18 74.466 178.267 74.1449C178.705 72.6319 179.238 71.1479 179.862 69.7016C179.923 69.558 179.927 69.3238 180.241 69.3238C180.524 71.0278 180.664 72.7469 180.785 74.4622C180.823 75.0101 181.027 75.1688 181.541 75.1688C188.376 75.1688 195.207 75.1688 202.037 75.1688C213.381 75.1688 224.687 75.199 236.009 75.3652C236.266 75.3652 236.572 75.2746 236.765 75.4673C237.234 75.9169 237.828 75.8866 238.395 75.9169C240.075 76.0088 241.759 75.9836 243.435 75.8413C243.613 75.8413 243.893 75.8413 243.953 75.7355C244.298 75.1612 244.804 75.3312 245.266 75.4219C245.371 75.4634 245.485 75.4783 245.598 75.4655C245.71 75.4526 245.818 75.4123 245.911 75.3481C246.005 75.284 246.081 75.1979 246.133 75.0974C246.185 74.997 246.212 74.8853 246.211 74.7721C246.275 74.2998 246.555 74.1902 246.967 74.1562C247.807 74.0844 248.642 73.9975 249.478 73.9068C249.747 73.8955 250.049 73.8804 250.004 73.5441ZM177.174 43.6013C177.439 43.6013 177.756 43.2801 177.93 43.6013C178.07 43.8393 177.798 44.0887 177.613 44.2549C177.287 44.5534 177.11 44.2058 176.902 44.0396C176.824 43.9536 176.756 43.8599 176.697 43.76C176.846 43.6805 177.007 43.6269 177.174 43.6013ZM51.5556 70.6915C51.5556 70.4422 51.5103 70.1361 51.9338 70.1399C52.2363 70.1399 52.5086 70.2003 52.5917 70.5555C52.6749 70.9107 52.7317 71.2167 52.8111 71.5454C52.9926 72.3011 52.3724 72.3653 51.9338 72.4258C51.325 72.5126 51.6577 71.9686 51.5745 71.7041C51.5563 71.5788 51.5563 71.4516 51.5745 71.3263C51.5556 71.1071 51.5443 70.8993 51.5556 70.6915ZM12.7509 43.7146C14.4033 43.2877 16.0747 43.4048 17.7461 43.5182C16.0946 43.7799 14.4179 43.8458 12.7509 43.7146ZM11.7753 51.9966C12.9097 51.2863 17.6705 51.2032 20.9414 51.8417C19.6292 52.2384 12.9399 52.3518 11.7753 51.9966ZM12.1534 60.6035C13.6993 60.3365 15.2746 60.2844 16.8348 60.4486C15.3006 60.7179 13.7362 60.77 12.1874 60.6035H12.1534ZM44.371 60.0632C44.3483 59.5569 44.492 59.3567 45.0176 59.368C45.9856 59.368 46.9575 59.368 47.9293 59.3378C48.2847 59.3378 48.4625 59.4398 48.4625 59.8252C48.4625 61.0758 48.4625 62.3226 48.4625 63.6866C47.3696 62.6967 46.8516 62.7685 46.0991 63.9586C45.8416 64.3842 45.6069 64.8231 45.3957 65.2735C45.1915 65.6929 45.0176 66.1236 44.8247 66.5581C44.5865 66.3994 44.6281 66.2029 44.6243 66.0329C44.5714 64.0418 44.5071 62.0506 44.405 60.0632H44.371ZM48.678 66.1576C48.7159 66.8119 48.7954 67.463 48.9162 68.1072C48.9767 68.4321 49.1204 68.8251 49.5742 68.7268C50.028 68.6286 49.9221 68.2545 49.8805 67.9485C49.8517 67.6088 49.7819 67.2739 49.6725 66.951C48.8028 64.6425 49.2074 62.2282 49.0599 59.863C49.0372 59.4852 49.1885 59.2736 49.6044 59.3076C49.8142 59.3322 50.0262 59.3322 50.2359 59.3076C50.8145 59.2018 51.0149 59.402 50.9922 60.0066C50.9506 61.4763 50.9922 62.9461 50.9922 64.4158C50.9922 65.8856 50.9922 67.3553 50.9922 68.8213C50.9922 69.2936 50.8561 69.4636 50.3607 69.4409C48.6818 69.3691 47.0028 69.32 45.3201 69.3049C44.7945 69.3049 44.6281 69.0253 44.7567 68.621C45.2899 66.9473 45.8911 65.2924 46.9348 63.8566C47.2335 63.4523 47.5474 63.5317 47.8045 63.9322C48.2896 64.5826 48.5913 65.3511 48.678 66.1576ZM45.218 48.7775C45.5243 48.8606 45.5243 48.8607 45.5243 49.9866C45.3466 50.3115 45.9251 51.0331 44.9609 51.086C44.2916 51.1238 43.9059 50.9689 43.9928 50.2133C44.0041 50.0586 44.0041 49.9033 43.9928 49.7485C43.9475 48.7775 44.2953 48.5206 45.218 48.7775ZM42.7185 48.1919C41.8526 48.1579 40.9866 48.1919 40.1207 48.1919V48.1579C39.2547 48.1579 38.3926 48.1579 37.5266 48.1579C37.0464 48.1579 36.914 47.9954 37.0729 47.5496C37.175 47.2549 37.2203 46.9375 37.33 46.6428C37.4356 46.4456 37.4707 46.2182 37.4294 45.9984C37.3881 45.7786 37.273 45.5794 37.1031 45.4337C36.8044 45.1617 36.725 44.8972 37.2657 44.8292C38.9303 44.6128 40.611 44.547 42.2874 44.6328C42.9 44.6668 43.3008 44.9426 43.2479 45.6831C43.2262 46.314 43.254 46.9457 43.3311 47.5723C43.3765 48.0219 43.2025 48.2032 42.7185 48.1843V48.1919ZM43.3197 57.5885C42.9416 57.664 42.8962 57.2106 42.7677 56.9386C42.4387 56.2547 42.1778 55.5331 41.811 54.8719C41.3345 54.0067 40.6765 53.8555 39.8371 54.3656C38.8085 54.9852 38.0636 55.9147 37.2997 56.8101C36.88 57.2975 36.6607 57.2522 36.4867 56.6552C36.2674 55.8996 36.0519 55.1439 35.8099 54.3883C35.6964 54.0482 35.6095 53.6326 35.1368 53.6326C34.6641 53.6326 34.5091 53.9802 34.3578 54.3089C34.1045 54.853 33.9003 55.4424 33.6582 55.9751C33.5599 56.2018 33.5713 56.5003 33.231 56.659C33.0514 55.0143 32.9769 53.3599 33.0078 51.7057C33.0078 51.4828 33.0797 51.3997 33.3444 51.4374C35.9914 51.8153 38.6384 51.615 41.2853 51.6717C41.9887 51.6717 42.8698 51.3808 43.3462 51.8001C43.8227 52.2195 43.5277 53.1377 43.5844 53.8329C43.6638 54.7963 43.6601 55.7673 43.7017 56.7384C43.7092 57.0897 43.713 57.5091 43.3197 57.5809V57.5885ZM36.9405 42.9968C36.9405 42.9968 36.9405 42.9514 36.8838 42.823C37.7044 42.5736 38.5174 42.3658 39.3001 42.0673C40.3438 41.6895 40.3324 41.6895 41.2816 42.2751C42.0432 42.6882 42.852 43.0079 43.6903 43.2272C43.9364 43.3084 44.1724 43.4175 44.3937 43.5522C44.4367 43.5994 44.4697 43.6549 44.4905 43.7154C44.5113 43.7758 44.5195 43.8398 44.5147 43.9036C44.5147 44.0585 44.3634 44.0962 44.2197 44.0887C41.7618 43.9746 39.3224 43.6061 36.9405 42.9892V42.9968ZM43.9966 67.1777C43.35 65.8402 42.8093 64.5858 42.1589 63.3995C41.0244 61.3327 40.0261 61.3025 38.6875 63.2445C37.7006 64.6803 37.0388 66.2898 36.1994 67.8049C36.0784 68.0278 36.0027 68.3943 35.7305 68.3868C35.3864 68.3868 35.3788 67.9712 35.3107 67.7218C34.9326 66.3049 34.596 64.8692 34.1763 63.4637C34.0061 62.8932 33.9305 62.0582 33.1478 62.0468C32.365 62.0355 32.2213 62.8856 32.0133 63.475C31.586 64.7067 31.2571 65.9687 30.7655 67.208C30.4176 64.2836 30.6672 61.3743 30.8335 58.4083C31.3781 59.3454 32.2629 59.2622 33.0797 59.2774C36.362 59.3378 39.6442 59.3831 42.9113 59.3907C43.5655 59.3907 43.8302 59.5229 43.8378 60.2446C43.8643 62.2131 43.989 64.1778 44.0685 66.1463C44.1271 66.4834 44.1024 66.8297 43.9966 67.1551V67.1777ZM44.0949 56.1527C44.0949 54.8228 44.0949 53.5079 44.0949 52.1704C44.0949 51.7246 44.2991 51.6112 44.6659 51.6566C45.0327 51.7019 45.513 51.445 45.547 52.1062C45.635 52.8585 45.6703 53.616 45.6529 54.3731C45.581 55.1628 44.8058 55.5633 44.4693 56.2283L44.0949 56.1527ZM44.4428 57.2862C44.7756 56.7043 45.2218 56.1867 45.7096 55.5104C45.9289 56.2661 46.0877 56.8593 46.2617 57.4222C46.3188 57.6262 46.4213 57.8146 46.5614 57.9736C46.7015 58.1325 46.8756 58.2579 47.0709 58.3403C47.623 58.5557 48.0654 58.3403 48.0692 57.7509C48.0692 56.5305 47.7856 55.159 46.9083 54.5129C45.8987 53.7573 46.0499 52.9223 46.1785 52.1629C46.3675 51.0294 47.4226 51.887 48.0692 51.6566C48.5003 51.4979 48.5835 51.8153 48.5797 52.1855C48.5494 54.2031 48.5192 56.2245 48.5116 58.2308C48.5116 58.6955 48.3036 58.8088 47.8915 58.8051C47.0482 58.8051 46.2087 58.8051 45.3693 58.8353C44.3823 58.8353 43.9399 58.1325 44.4428 57.2446V57.2862ZM46.4281 54.9134C46.973 55.617 47.3331 56.4457 47.4755 57.324C47.502 57.4713 47.5663 57.664 47.3999 57.7471C47.2335 57.8303 47.0558 57.6565 46.9726 57.5091C46.5441 56.6996 46.3552 55.7848 46.4281 54.8719V54.9134ZM83.569 5.53139C83.4972 11.5124 83.0321 17.4745 82.4724 23.4329C82.5253 17.4178 82.9715 11.4444 83.569 5.48983V5.53139ZM83.5085 74.8665C87.0319 74.4372 90.5824 74.2717 94.1305 74.3716C90.6011 74.7211 87.0549 74.8725 83.5085 74.825V74.8665ZM113.665 74.9043C113.443 75.1101 113.18 75.2669 112.894 75.3645C112.607 75.4622 112.303 75.4984 112.001 75.471C109.298 75.416 106.602 75.1635 103.936 74.7154C103.278 74.6575 102.627 74.5309 101.996 74.3376H113.495C113.646 74.3376 113.873 74.3073 113.873 74.4925C113.9 74.5945 113.767 74.7532 113.665 74.8476V74.9043ZM127.339 74.1033C123.482 73.9925 119.623 73.9106 115.764 73.8577C115.155 73.8577 115.008 73.7368 115.163 73.1021C115.495 71.6474 115.673 70.155 115.991 68.6966C116.252 67.5064 116.588 67.4309 117.458 68.3188C118.634 69.4976 119.473 70.9333 120.407 72.2935C120.559 72.5126 120.691 72.7393 120.854 72.9434C121.285 73.4874 121.636 73.4534 121.848 72.7998C122.098 72.0441 122.283 71.2318 122.457 70.4384C123.153 67.2911 123.678 64.1022 124.503 60.9927C124.585 60.544 124.75 60.1146 124.991 59.727C125.374 60.4207 125.646 61.1704 125.796 61.9486C126.753 65.7269 127.384 69.5958 127.978 73.461C128.065 73.9597 127.917 74.092 127.339 74.0617V74.1033ZM163.493 56.1981C167.652 56.1981 171.785 56.1603 175.922 56.5079C175.998 56.5079 176.07 56.5457 176.365 56.6212C175.205 56.9278 174.013 57.0977 172.814 57.1275C169.721 57.324 166.626 57.3693 163.531 57.2635C163.217 57.2635 162.808 57.3618 162.85 56.7799C162.884 56.3076 163.069 56.1565 163.493 56.1565V56.1981ZM159.469 40.9149C159.978 40.6349 160.4 40.221 160.69 39.7181C160.98 39.2152 161.127 38.6426 161.114 38.0623C161.114 37.1253 161.194 36.1732 161.235 35.2589C161.542 35.2211 161.583 35.4478 161.7 35.5687C162.286 36.1996 162.861 36.2336 163.455 35.6216C163.833 35.2437 164.124 34.8168 164.461 34.4125C164.797 34.0083 165.217 33.9176 165.656 34.3521C165.989 34.6883 166.329 35.0171 166.688 35.3231C167.773 36.2563 168.753 36.2072 169.687 35.1077C170.065 34.6694 170.246 34.7299 170.443 35.1946C171.264 37.2122 172.107 39.2185 173.529 40.9149C173.725 41.1454 173.642 41.2928 173.336 41.2928C172.958 41.2928 172.549 41.3305 172.156 41.3381C167.8 41.4439 163.459 41.6026 159.095 41.8557C158.826 41.9043 158.549 41.8646 158.305 41.7424C158.63 41.3768 159.026 41.0812 159.469 40.8734V40.9149ZM157.726 44.6932C156.838 44.9841 155.809 44.7461 154.644 44.5421C156.18 43.3255 157.564 42.43 159.466 42.5018C164.147 42.6718 168.813 42.2902 173.457 41.9502C174.361 41.8859 174.652 42.4149 175.049 42.9401C175.219 43.163 175.049 43.265 174.833 43.2801C174.24 43.3179 173.638 43.2801 173.2 43.8469C173.105 43.9716 172.753 43.9149 172.519 43.9111C168.499 43.8809 164.48 43.9678 160.468 44.2436C159.545 44.2647 158.628 44.3992 157.737 44.6441L157.726 44.6932ZM171.339 44.527C168.323 44.8113 165.292 44.9046 162.264 44.8066C165.3 44.4023 168.325 44.5043 171.351 44.4778L171.339 44.527ZM158.388 46.1516C158.388 45.5698 158.535 45.396 159.144 45.396C163.712 45.5276 168.284 45.4153 172.84 45.0597C173.166 45.0333 173.419 45.0597 173.419 45.4715C173.419 47.901 173.495 50.3304 173.211 52.7976C172.64 51.6641 172.077 50.5609 171.494 49.4538C171.221 48.945 170.922 48.4507 170.598 47.9727C170.382 47.6592 170.156 47.2171 169.679 47.3947C169.203 47.5723 169.301 47.9954 169.324 48.3506C169.373 49.3972 169.46 50.4437 169.535 51.4903C169.535 51.6415 169.558 51.7964 169.569 51.9551C169.244 51.9551 169.222 51.7132 169.123 51.5546C168.397 50.2796 167.507 49.1047 166.476 48.0597C166.308 47.8933 166.126 47.7416 165.932 47.6063C164.68 46.7599 163.969 46.998 163.557 48.4488C163.028 50.4533 162.695 52.5045 162.563 54.5734C162.498 55.3857 162.26 55.7787 161.394 55.6464C161.027 55.6162 160.657 55.6162 160.29 55.6464C158.921 55.6464 158.895 55.6464 158.811 54.3316C158.619 51.5583 158.418 48.8342 158.384 46.1025L158.388 46.1516ZM161.765 57.2106C160.986 57.1426 160.207 57.1048 159.428 57.0633C159.363 57.069 159.297 57.0597 159.236 57.0359C159.175 57.0122 159.121 56.9747 159.077 56.9264C159.033 56.8781 159.001 56.8203 158.983 56.7576C158.965 56.6948 158.962 56.6287 158.974 56.5645C158.974 56.2094 159.246 56.2434 159.477 56.2396C159.893 56.2396 160.309 56.2396 160.725 56.2396H161.738C162.033 56.2396 162.332 56.217 162.298 56.6666C162.275 56.9386 162.211 57.1993 161.761 57.1615L161.765 57.2106ZM240.017 61.4688C240.921 61.6161 241.825 61.7786 242.736 61.8466C243.284 61.8957 243.466 62.1148 243.435 62.6287C243.405 63.1425 243.435 63.5695 243.435 64.0418H243.56C243.536 64.4583 243.536 64.8759 243.56 65.2924C243.628 65.8931 243.447 66.1047 242.823 65.9762C241.663 65.7754 240.518 65.5015 239.393 65.1563C238.387 64.8087 238.058 64.3554 237.998 63.3088C237.873 61.0834 237.903 61.0683 240.013 61.4196L240.017 61.4688ZM231.513 60.0066C233.025 60.271 234.504 60.5582 236.009 60.7849C236.595 60.8756 236.765 61.1098 236.618 61.6652C236.499 62.0958 236.403 62.5321 236.33 62.9725C236.322 63.1132 236.285 63.2505 236.219 63.3755C236.154 63.5004 236.063 63.6099 235.952 63.6968C235.841 63.7837 235.713 63.846 235.576 63.8794C235.439 63.9128 235.296 63.9167 235.158 63.8906C233.498 63.5128 231.834 63.135 230.178 62.7571C230.015 62.7073 229.872 62.6075 229.769 62.4719C229.665 62.3363 229.607 62.1717 229.603 62.0015C229.603 61.9486 229.603 61.8957 229.603 61.8466C229.437 60.0255 229.83 59.659 231.509 59.9574L231.513 60.0066ZM223.027 58.4953C224.638 58.7257 226.23 59.0771 227.841 59.3076C228.575 59.4134 228.938 59.659 228.745 60.4411C228.688 60.7783 228.657 61.1193 228.65 61.4612C228.605 62.0619 228.533 62.6627 228.518 63.2672C228.503 63.8717 228.177 64.0229 227.641 63.9171C226.793 63.7366 225.967 63.4681 225.175 63.1161C224.419 62.8063 223.693 62.436 222.929 62.1564C221.829 61.7521 221.386 60.9738 221.443 59.8441C221.537 58.0003 221.303 58.2232 223.023 58.465L223.027 58.4953ZM210.904 57.921C210.904 57.5885 211.067 57.4638 211.399 57.4827C214.099 57.6263 216.799 57.7849 219.488 58.0608C219.828 58.0948 219.938 58.2648 219.93 58.5746C219.93 58.994 219.93 59.4134 219.93 59.8328C219.93 59.9121 219.93 59.9915 219.93 60.0708C219.881 62.1904 219.836 62.2471 217.661 62.1337C215.8 62.0142 213.95 61.7693 212.122 61.4007C211.806 61.3575 211.516 61.206 211.3 60.9724C211.084 60.7387 210.956 60.4374 210.938 60.1199C210.852 59.3799 210.839 58.6332 210.9 57.8907L210.904 57.921ZM197.147 57.6225C197.147 57.0822 197.525 57.154 197.87 57.1577C200.176 57.188 202.483 57.2182 204.789 57.2635C206.23 57.2938 207.671 57.3693 209.112 57.3882C209.596 57.3882 209.751 57.5696 209.732 58.0419C209.69 59.0091 209.667 59.9801 209.698 60.9473C209.698 61.5028 209.467 61.6728 208.975 61.7332C207.756 61.8439 206.531 61.8767 205.308 61.8315C202.797 61.7106 200.547 61.5783 198.304 61.3176C198.028 61.3133 197.764 61.2044 197.564 61.013C197.365 60.8216 197.246 60.5619 197.23 60.2861C197.113 59.3932 197.083 58.4909 197.143 57.5922L197.147 57.6225ZM196.659 54.7774C196.748 55.3497 196.677 55.9351 196.455 56.4701C196.331 55.8894 196.401 55.2839 196.656 54.7472L196.659 54.7774ZM190.428 57.6111C190.466 57.2786 190.67 57.1804 190.972 57.1842C191.679 57.1842 192.39 57.1842 193.097 57.1842V57.1577C193.755 57.1577 194.413 57.1577 195.067 57.1577C195.495 57.1577 195.623 57.3051 195.544 57.7245C195.359 58.6766 195.234 59.6401 195.026 60.5884C194.818 61.5368 194.391 61.7597 193.472 61.5368C192.553 61.3138 191.608 60.834 190.621 60.6451C190.242 60.5771 190.242 60.2673 190.22 59.965C190.214 59.1657 190.282 58.3675 190.424 57.5809L190.428 57.6111ZM189.618 60.868C190.995 61.295 192.315 61.771 193.672 62.0997C194.636 62.334 195.302 61.8579 195.54 60.868C195.778 59.8781 195.918 58.858 196.1 57.8454C196.145 57.6036 196.073 57.3089 196.391 57.1615C196.709 57.3655 196.55 57.6829 196.554 57.9436C196.554 58.858 196.493 59.7799 196.743 60.6791C196.796 60.9781 196.946 61.2513 197.17 61.4562C197.394 61.6612 197.68 61.7864 197.983 61.8126C201.367 62.2516 204.781 62.4234 208.193 62.3264C208.325 62.3264 208.457 62.3264 208.571 62.3C210.057 62.1904 210.14 62.1111 210.325 60.4335C210.821 61.9033 211.967 61.9448 213.033 62.1148C214.683 62.4332 216.356 62.6164 218.036 62.6627C218.403 62.6684 218.77 62.6533 219.136 62.6174C220.085 62.5078 220.32 62.2697 220.376 61.329C220.433 60.3882 220.452 59.4927 220.494 58.5746C220.494 58.431 220.494 58.2232 220.702 58.2308C220.91 58.2383 220.898 58.4386 220.894 58.5859C220.894 59.1111 220.838 59.6363 220.853 60.1577C220.833 60.6734 220.977 61.1822 221.263 61.6116C221.55 62.0411 221.965 62.3692 222.449 62.5493C223.851 63.2078 225.29 63.7843 226.759 64.276C228.503 64.7785 228.771 64.6236 229.164 62.9083C230.843 63.5581 232.624 63.8151 234.36 64.2458C234.745 64.3267 235.139 64.3584 235.532 64.3402C235.825 64.3594 236.114 64.2697 236.345 64.0883C236.575 63.9069 236.73 63.6467 236.78 63.3579C236.946 62.591 237.156 61.8342 237.408 61.0909C237.37 63.1463 236.878 65.4133 239.972 65.8478L239.813 66.0329L237.801 65.8213L235.763 65.6097C235.113 65.5379 234.462 65.4548 233.808 65.3906C233.328 65.3415 232.916 65.2924 232.704 64.7181C232.534 64.2609 232.137 64.378 231.948 64.7407C231.758 65.1035 231.464 65.1186 231.089 65.0846C222.509 64.1022 213.922 63.1501 205.3 62.5569C199.901 62.196 194.483 62.2528 189.093 62.7269C188.915 62.7269 188.715 62.7269 188.556 62.7269C189.121 62.254 189.498 61.5946 189.618 60.868ZM231.169 66.2709C230.201 68.3905 229.278 70.5328 228.329 72.66C227.951 73.4723 227.917 73.4799 227.402 72.8111C225.485 70.3175 223.783 67.6727 222.074 65.0392C222.019 64.9176 221.974 64.7911 221.942 64.6614C223.602 64.839 225.179 65.0052 226.756 65.179C228.083 65.3226 229.403 65.4888 230.741 65.6249C231.195 65.6626 231.418 65.7306 231.169 66.2747V66.2709ZM181.704 57.3693C182.028 56.8202 182.456 56.3391 182.963 55.9525C182.91 57.2862 182.891 57.3051 181.704 57.3693ZM185.72 62.2811L184.638 62.2169C183.504 62.1488 183.088 61.7559 182.997 60.6413C182.782 58.023 183.062 57.664 185.671 57.3844C186.609 57.2824 187.561 57.2598 188.495 57.1804C189.017 57.1388 189.252 57.2749 189.21 57.8718C189.123 58.7295 189.146 59.5985 189.055 60.4562C188.919 61.7861 188.477 62.1942 187.164 62.2773C186.707 62.3113 186.261 62.2886 185.72 62.2886V62.2811ZM179.571 68.9611C178.856 70.4237 178.285 71.9522 177.866 73.5252C177.647 74.3564 177.079 74.1675 176.58 74.1184C175.987 74.0617 176.281 73.5517 176.274 73.2419C176.274 72.7205 176.331 72.1953 176.365 71.6701C176.478 69.524 176.603 67.3742 176.694 65.2244C176.694 64.7559 176.852 64.5329 177.34 64.6161C177.42 64.6217 177.499 64.6217 177.578 64.6161C179.36 64.669 179.329 64.6765 179.802 66.4561C180.053 67.2919 179.971 68.1924 179.571 68.9686V68.9611ZM179.904 64.8994C179.806 64.5972 179.976 64.5216 180.207 64.4989L182.332 64.1664C181.633 64.9926 181.028 65.8935 180.528 66.8528C180.282 66.082 180.101 65.4888 179.904 64.907V64.8994ZM200.845 74.5C200.709 74.6927 200.407 74.5831 200.176 74.5831C197.185 74.5831 194.19 74.5831 191.199 74.5831C188.208 74.5831 185.266 74.5605 182.301 74.6058C181.572 74.6058 181.383 74.3564 181.322 73.6877C181.167 71.9119 180.944 70.1399 180.736 68.3717C180.689 68.0884 180.732 67.7974 180.861 67.5404C181.295 66.5843 181.861 65.6939 182.543 64.8957C183.084 64.3289 183.364 64.378 183.678 65.0959C184.695 67.2835 185.69 69.4787 186.703 71.6625C186.994 72.2797 187.324 72.8779 187.69 73.4534C188.17 74.2091 188.473 74.2091 188.923 73.4534C190.413 70.9787 191.948 68.5417 193.672 66.218C194.05 65.7344 194.428 65.2886 194.807 64.8201C195.185 64.3516 195.389 64.4423 195.65 64.9372C196.779 67.0984 197.925 69.252 199.087 71.3981C199.548 72.2482 200.074 73.0681 200.554 73.9106C200.694 74.092 201.001 74.2658 200.845 74.5ZM213.702 74.6285C210.049 74.6285 206.394 74.6197 202.736 74.602C202.521 74.602 202.218 74.7305 202.105 74.4622C202.018 74.262 202.248 74.0844 202.362 73.9182C204.253 71.0165 206.121 68.0996 208.14 65.2848C208.518 64.737 208.73 64.6954 209.066 65.3264C210.027 67.1362 211.029 68.9195 212.031 70.7029C212.757 72.083 213.604 73.3966 214.561 74.6285H213.702ZM214.353 73.3741C212.935 71.2507 211.762 68.9913 210.526 66.7659C210.114 66.0329 209.72 65.2924 209.301 64.5632C208.881 63.834 208.612 63.7735 208.045 64.4914C206.877 65.98 205.848 67.5669 204.801 69.1424C203.886 70.5177 202.99 71.9081 202.086 73.2985C201.492 74.2053 201.485 74.2091 200.898 73.257C199.333 70.7217 198.006 68.0467 196.61 65.4397C196.41 65.0619 196.232 64.6841 196.009 64.3327C195.631 63.6564 195.294 63.577 194.716 64.1287C194.262 64.5648 193.844 65.036 193.464 65.5379C191.786 67.791 190.227 70.1304 188.794 72.5467C188.295 73.359 188.272 73.3665 187.807 72.5013C186.529 70.1172 185.467 67.6311 184.37 65.1601C184.196 64.7596 183.674 64.31 183.863 64.0266C184.052 63.7433 184.729 63.7924 185.19 63.7357C189.832 63.1626 194.505 62.8825 199.182 62.8969C206.502 63.0783 213.638 63.8113 220.773 64.5254C221.288 64.5745 221.435 64.6841 221.08 65.1677C219.063 67.9258 217.064 70.6966 215.082 73.4799C214.719 73.9824 214.549 73.7141 214.322 73.3741H214.353ZM215.018 74.6587C215.453 74.0164 215.774 73.5252 216.092 73.0756C217.771 70.7583 219.454 68.4434 221.14 66.1311C221.647 65.4322 221.647 65.4397 222.142 66.1878C223.693 68.5303 225.209 70.8955 226.933 73.1209C227.077 73.3061 227.225 73.4988 227.387 73.665C227.958 74.2771 228.249 74.2582 228.597 73.495C229.656 71.1827 230.673 68.8477 231.724 66.5316C231.853 66.2483 231.861 65.776 232.329 65.8176C232.798 65.8591 232.776 66.2823 232.893 66.5732C233.925 69.218 234.848 71.8968 236.16 74.4169C236.192 74.4913 236.211 74.5705 236.217 74.6512L215.018 74.6587ZM245.345 74.8476L243.919 74.67C244.363 74.4768 244.842 74.3789 245.326 74.3829C245.489 74.3602 245.727 74.3036 245.727 74.5869C245.727 74.8703 245.519 74.8741 245.315 74.8476H245.345ZM245.133 73.8275C244.298 73.8766 243.466 74.0126 242.634 74.1222C242.256 74.1751 241.836 74.2015 241.757 74.7305C241.711 75.0441 241.428 74.9194 241.242 74.9232C240.637 74.9232 240.036 74.9232 239.431 74.9232V74.8703C239.119 74.8234 238.803 74.812 238.489 74.8363C237.264 75.063 236.727 74.3942 236.27 73.3817C235.256 71.1336 234.379 68.8251 233.498 66.5316C233.282 65.9838 233.464 65.9196 233.971 65.9762C236.527 66.2596 239.087 66.4863 241.639 66.8037C242.717 66.9359 243.776 66.713 244.846 66.8037C245.303 66.8415 245.462 67.0342 245.5 67.4838C245.663 69.3125 245.818 71.1411 245.878 72.9774C245.844 73.5328 245.697 73.7935 245.088 73.8275H245.133Z" fill="#005F73"/>
</svg>
