<svg width="87" height="90" viewBox="0 0 87 90" fill="none" xmlns="http://www.w3.org/2000/svg">
<path d="M86.2563 53.5442C85.4423 53.5967 84.6257 53.4973 83.8481 53.2511C78.1242 51.9776 72.4038 50.6883 66.6869 49.3833C66.111 49.2524 65.6136 49.0745 65.4147 49.9067C65.2524 50.5766 64.8912 51.2256 65.8859 51.6025C66.7235 51.9217 67.5297 52.3247 68.3307 52.7277C68.6292 52.8795 69.2522 52.9528 69.027 53.4081C68.8019 53.8635 68.3412 53.4082 68.0166 53.293C67.2156 52.9685 66.4461 52.5864 65.6555 52.2462C65.2943 52.0892 64.9226 51.7699 64.6085 52.309C64.5345 52.4024 64.4802 52.5098 64.449 52.6248C64.4178 52.7398 64.4103 52.8599 64.427 52.9779C64.4436 53.0958 64.4841 53.2092 64.5459 53.311C64.6077 53.4129 64.6895 53.5011 64.7865 53.5704C67.5088 56.2153 70.2172 58.8741 72.9116 61.5469C75.2465 63.8498 77.5762 66.1562 79.9007 68.4661C79.9554 68.5087 80.0047 68.5579 80.0473 68.6126C80.2253 68.911 80.8116 69.1884 80.4609 69.5233C80.1101 69.8583 79.8222 69.3035 79.5761 69.0627C74.826 64.3976 70.0811 59.7255 65.3414 55.0464C65.0953 54.8056 64.8179 54.5858 64.598 54.3293C64.1321 53.8059 63.7656 53.8059 63.4672 54.4759C63.4057 54.5992 63.3357 54.7181 63.2578 54.8318C62.3049 56.3548 62.3102 56.3548 63.4515 57.7314C63.6138 57.925 63.975 58.1396 63.7446 58.4065C63.5143 58.6735 63.2211 58.3175 62.9908 58.1553C62.9371 58.1116 62.8864 58.0644 62.839 58.014C61.6977 56.9672 61.2684 57.0509 60.4045 58.4118C60.1218 58.8619 60.4412 59.0398 60.6454 59.2806C64.0902 63.3316 67.3308 67.5397 70.5348 71.7791C71.3044 72.7997 72.1054 73.8099 72.8331 74.8462C72.9901 75.066 73.4299 75.312 73.0896 75.6104C72.7493 75.9087 72.498 75.4533 72.32 75.2178C69.5872 71.7006 66.8858 68.1677 64.1478 64.661C62.8965 63.0595 61.5668 61.5207 60.2894 59.9505C59.8444 59.3957 59.4465 59.2492 58.8549 59.7935C58.2633 60.3378 57.1273 60.7827 56.8603 61.4998C56.5933 62.2168 57.5147 62.9967 57.8445 63.787C57.9231 63.94 57.993 64.0972 58.0539 64.258C58.1272 64.4988 58.368 64.8128 58.0016 64.9698C57.7136 65.0902 57.6037 64.7709 57.478 64.5668C57.122 63.8969 56.7556 63.2322 56.431 62.5465C56.1064 61.8609 55.7085 61.7929 55.1274 62.1906C54.6039 62.5361 53.7976 62.5099 54.2269 63.609C57.0016 70.6695 59.7135 77.7405 62.4254 84.8377C62.8547 85.963 63.1897 87.1249 63.5614 88.2764C63.6504 88.559 63.8808 88.9777 63.5143 89.0981C63.0536 89.2499 63.0379 88.716 62.9437 88.4282C60.326 80.3575 57.0068 72.538 53.9547 64.6244C53.9547 64.5616 53.8971 64.4988 53.8709 64.436C53.3474 63.1327 52.3894 62.8658 51.2533 63.6928C50.913 63.9388 51.0072 64.2423 51.0753 64.5302C51.2638 65.2996 51.5046 66.0585 51.6983 66.8279C51.782 67.1681 52.1328 67.7019 51.6983 67.8223C51.1748 67.9689 51.2062 67.2989 51.091 66.9482C50.8502 66.2312 50.6565 65.4932 50.4523 64.7657C50.3266 64.3051 50.1801 63.9283 49.5571 64.0277C48.9341 64.1272 48.9707 64.6139 49.0335 65.0745C49.4733 68.808 49.9201 72.5415 50.3738 76.275C50.5958 78.0606 50.7251 79.8565 50.7612 81.6555C50.7612 81.9695 50.9287 82.4929 50.4994 82.5296C50.0701 82.5662 50.1486 82.0062 50.1277 81.7183C49.7769 76.2751 49.0807 70.8684 48.3948 65.4618C48.3582 65.1897 48.3163 64.9384 48.2587 64.6453C48.2346 64.5287 48.1672 64.4255 48.0701 64.3566C47.9729 64.2876 47.8533 64.258 47.7352 64.2737C47.4211 64.2737 47.3164 64.4674 47.3007 64.7395C47.2588 65.3257 47.2326 65.9119 47.1907 66.4929C47.1907 66.7232 47.2274 67.0582 46.908 67.0739C46.5887 67.0896 46.5573 66.7127 46.552 66.4563C46.5223 66.0077 46.5345 65.5574 46.5887 65.1111C46.7196 64.279 46.2222 64.2214 45.6149 64.1952C45.0076 64.169 44.5679 64.3156 44.6255 65.1007C44.772 68.3038 44.8767 71.5122 44.9762 74.7206C45.0757 77.929 45.1542 81.2734 45.238 84.5498C45.238 84.7226 45.238 84.8953 45.238 85.0732C45.238 85.2512 45.1594 85.4448 44.971 85.4658C44.704 85.4972 44.6412 85.2617 44.615 85.0523C44.5888 84.8429 44.5679 84.5289 44.5574 84.2253C44.3689 78.0546 44.1909 71.8786 43.9815 65.7078C43.9815 65.0588 44.2223 64.1847 43.1229 64.0016C42.5313 63.9021 42.123 63.9702 41.9502 64.6349C41.7775 65.2996 41.5209 66.0899 41.2644 66.8017C41.1597 67.1 41.1283 67.6705 40.7409 67.5449C40.3535 67.4193 40.5838 66.8959 40.6728 66.5662C40.8397 65.8969 41.0407 65.2366 41.2749 64.5878C41.5157 63.944 41.2749 63.6771 40.6676 63.4677C38.7043 62.7978 38.7253 62.7768 38.0028 64.7552C35.7412 70.9522 32.9613 76.9241 30.1499 82.8907C30.0964 83.0177 30.0297 83.1387 29.951 83.2518C29.8149 83.435 29.7049 83.7752 29.4275 83.6444C29.0662 83.4717 29.3123 83.1524 29.4275 82.9273C30.3017 81.0117 31.2127 79.1171 32.0765 77.1962C34.0502 72.7893 35.9925 68.3719 37.6102 63.8131C37.9295 62.9129 37.9138 62.3529 36.9139 61.9656C36.2444 61.6857 35.6144 61.3198 35.0397 60.8769C34.4376 60.4373 34.1026 60.5943 33.7151 61.1596C31.7851 63.9754 29.8341 66.779 27.8621 69.5704C27.6108 69.9263 27.3386 70.7062 26.8831 70.3764C26.4277 70.0467 27.1082 69.5547 27.3491 69.2041C29.2338 66.4371 31.1429 63.6875 33.0764 60.9554C33.5424 60.296 33.6366 59.8668 32.9403 59.2439C30.9562 57.4487 31.0033 57.4226 29.1029 59.3591C23.7071 64.8442 18.2973 70.3206 12.8735 75.7883C12.5804 76.0814 12.2348 76.7984 11.7898 76.364C11.4652 76.0448 12.1249 75.6418 12.4181 75.3487C18.128 69.5425 23.8501 63.7486 29.5845 57.9669C30.3489 57.2027 30.6316 56.5851 29.7625 55.7634C29.5775 55.558 29.4176 55.3314 29.2861 55.0882C28.239 53.4814 28.2391 53.4919 26.6266 54.5648C25.4043 55.4665 24.1124 56.2698 22.763 56.9672C22.4907 57.0928 22.0824 57.4592 21.8834 56.9672C21.7316 56.6165 22.2237 56.5276 22.475 56.3862C24.1084 55.4808 25.6476 54.434 27.1867 53.3715C27.3255 53.3094 27.449 53.2179 27.5488 53.1033C27.6485 52.9887 27.7222 52.8537 27.7645 52.7078C27.8068 52.5619 27.8169 52.4085 27.794 52.2583C27.771 52.1081 27.7157 51.9646 27.6318 51.838C26.8046 49.9171 26.8412 49.9014 24.9251 50.854C17.4754 54.5544 10.3292 58.82 2.98935 62.7245C2.52865 62.9705 2.08889 63.3944 1.46066 63.1641C1.49731 62.6093 1.98416 62.5518 2.31922 62.3686C10.125 58.0977 17.8156 53.607 25.8099 49.6816C26.4748 49.3571 26.7522 49.0064 26.4957 48.2528C26.2392 47.4991 26.5376 46.1592 25.8151 45.7771C25.2183 45.4579 24.1712 45.9655 23.3284 46.1173C22.0719 46.3424 20.8207 46.5936 19.5642 46.8082C19.2815 46.8553 18.8522 46.9652 18.8208 46.5308C18.8208 46.1854 19.2187 46.2063 19.47 46.1592C21.3285 45.7876 23.187 45.3951 25.0612 45.1124C25.8465 44.9868 26.1083 44.6623 26.0717 43.8929C25.9722 41.9302 26.5585 41.9669 24.1346 41.8779C16.5487 41.6057 8.95231 41.3859 1.37164 41.119C0.884758 41.119 0.0261763 41.4068 0 40.7055C0 40.2815 0.88478 40.5014 1.36119 40.5066C9.26121 40.6008 17.1612 40.8206 25.0508 41.2864C26.0088 41.344 26.2915 40.9776 26.4748 40.1455C26.9669 37.8792 26.9983 37.8792 24.6948 37.607C23.8708 37.5266 23.057 37.3635 22.2656 37.1203C22.0719 37.0575 21.7107 37.047 21.8363 36.6858C21.962 36.3247 22.2237 36.487 22.4593 36.5288C23.7158 36.7434 24.9775 36.9318 26.234 37.1674C26.3711 37.2106 26.5154 37.2258 26.6586 37.2122C26.8017 37.1986 26.9406 37.1563 27.0671 37.088C27.1936 37.0196 27.305 36.9266 27.3948 36.8143C27.4846 36.7021 27.5509 36.573 27.5899 36.4346C28.7416 33.9642 28.7626 34.0009 26.1554 33.132C20.1349 31.1275 14.0044 29.4683 8.12515 27.0345C7.65921 26.8409 6.74305 26.7572 6.95769 26.1814C7.17234 25.6057 7.85815 26.2652 8.29268 26.4431C13.4704 28.5733 18.8784 30.0179 24.1713 31.8026C25.3806 32.2109 26.6213 32.5301 27.8097 32.9907C28.7154 33.3414 29.3803 33.3048 29.8463 32.3574C29.9525 32.1792 30.0771 32.0125 30.218 31.8602C31.5896 30.1121 31.5844 30.1173 29.6316 28.9449C28.6841 28.3744 27.7522 27.7882 26.8255 27.1863C26.5795 27.0293 26.1606 26.8252 26.37 26.5007C26.5795 26.1762 26.9302 26.4693 27.1763 26.642C28.5427 27.5841 30.0086 28.3587 31.4273 29.2118C31.6268 29.3735 31.8817 29.4504 32.1373 29.4259C32.3929 29.4015 32.6286 29.2776 32.7937 29.081C33.2432 28.6526 33.7303 28.2655 34.2492 27.9243C35.0083 27.4428 34.9088 27.1026 34.2492 26.5687C30.0295 23.0934 25.8256 19.578 21.6374 16.0224C20.7683 15.2897 19.915 14.5308 19.0721 13.7666C18.8417 13.5573 18.3548 13.3165 18.6794 12.9658C19.004 12.6152 19.2815 13.0967 19.5171 13.2903C24.4033 17.4042 29.2791 21.525 34.1444 25.6528C34.4762 25.9004 34.7926 26.1678 35.092 26.4536C35.647 27.0555 36.1391 26.7153 36.6626 26.396C37.2647 26.0139 36.8197 25.5952 36.6626 25.2445C35.6156 23.151 34.5685 21.1255 33.5529 19.0528C33.3853 18.7074 32.8199 18.1997 33.3801 17.9171C33.8303 17.6868 33.935 18.3934 34.1078 18.7231C35.1548 20.6754 36.1652 22.6276 37.1128 24.6217C37.5369 25.5115 37.919 25.8726 38.9661 25.4173C40.1022 24.92 39.631 24.2501 39.385 23.5749C37.3327 17.938 35.2648 12.3064 33.223 6.65898C33.0555 6.1984 32.4744 5.49706 33.0974 5.24583C33.5529 5.06788 33.6209 5.97857 33.8094 6.42869C35.9733 12.2837 38.1215 18.1439 40.254 24.0093C40.4843 24.6427 40.7356 24.7578 41.3743 24.6217C43.882 24.0983 43.882 24.1245 43.6831 21.6175C43.5784 20.309 43.4946 19.0005 43.4109 17.6973C43.4109 17.3309 43.2695 16.9384 43.5889 16.6086C44.1124 16.7761 44.0182 17.2524 44.0496 17.6554C44.2014 19.4402 44.3846 21.2302 44.4579 23.0201C44.4946 23.9047 44.8453 24.1611 45.6673 24.0669C46.1474 24.0013 46.6348 24.0101 47.1122 24.0931C48.1593 24.292 48.4158 23.8523 48.4734 22.8841C48.8713 15.8549 48.866 8.81535 48.866 1.77575C48.8471 1.42708 48.8471 1.07764 48.866 0.728975C48.8974 0.451578 48.7613 -0.0299401 49.1958 0.00146325C49.6304 0.0328666 49.4628 0.498682 49.4628 0.781313C49.4628 6.01521 49.4628 11.2491 49.3895 16.5144C49.4099 18.7865 49.305 21.0579 49.0754 23.3185C48.9917 23.9832 49.2691 24.2553 49.8764 24.3653C50.6233 24.4837 51.3601 24.6587 52.0805 24.8886C52.8605 25.1713 53.1746 24.9515 53.3736 24.1664C54.1013 21.3296 54.8866 18.5033 55.6457 15.6718C55.6818 15.5025 55.7308 15.3363 55.7923 15.1745C55.9074 14.9181 55.8865 14.4261 56.3158 14.5622C56.7451 14.6982 56.4886 15.0856 56.4153 15.3787C55.6195 18.3777 54.8447 21.3819 53.9913 24.3705C53.7662 25.1608 53.9128 25.6057 54.6824 25.8883C55.0986 26.0557 55.5012 26.2552 55.8865 26.485C57.7345 27.5318 57.7345 27.5318 58.8287 25.6423C61.75 20.6387 64.5456 15.5566 67.8386 10.7781C67.9091 10.6589 67.986 10.5435 68.069 10.4326C68.2784 10.1919 68.4302 9.658 68.8071 9.90923C69.1841 10.1605 68.781 10.5321 68.5977 10.799C65.0221 16.0329 61.9123 21.5861 58.7554 27.0921C58.368 27.7673 58.3733 28.1912 59.0329 28.6257C59.4093 28.87 59.7479 29.168 60.0381 29.5102C60.7082 30.4156 61.2317 30.1539 61.7552 29.416C62.5241 28.3523 63.386 27.3592 64.331 26.4483C64.577 26.2128 64.8545 25.6894 65.2315 26.0506C65.6084 26.4117 65.0325 26.6263 64.8074 26.8461C63.6661 27.9609 62.7918 29.2956 61.7291 30.4784C61.5773 30.6459 61.3207 30.8344 61.5092 31.0961C62.0187 31.8765 62.5783 32.623 63.1845 33.3309C63.598 33.7758 63.9279 33.2158 64.1949 32.9698C66.8404 30.5447 69.4755 28.1023 72.1001 25.6423C75.2413 22.6956 78.2568 19.6024 81.5236 16.7918C81.6211 16.6947 81.7262 16.6055 81.8377 16.5249C82.2251 16.2894 82.6649 15.5723 83.0052 15.9753C83.4188 16.4673 82.6021 16.6819 82.288 16.9593C78.0579 20.7225 74.0477 24.7159 69.9013 28.5681C68.0271 30.3057 66.1686 32.0539 64.2839 33.7706C64.1 33.8901 63.9685 34.075 63.916 34.2878C63.8635 34.5007 63.894 34.7256 64.0012 34.9168C65.1791 37.8059 65.1634 37.8111 68.0271 36.6597C68.7286 36.377 69.4301 36.0735 70.1212 35.8327C70.3987 35.7385 70.8279 35.3721 71.0007 35.8641C71.1316 36.2305 70.6552 36.2933 70.383 36.3875C69.0113 36.9528 67.6502 37.5442 66.2628 38.0624C65.6136 38.3031 65.4618 38.6119 65.6084 39.2976C66.1319 41.7837 66.1319 41.7784 68.6448 41.3911C73.2833 40.6845 77.8956 39.821 82.5812 39.4232L82.89 39.3865C83.1623 39.3551 83.5549 39.2766 83.6073 39.5959C83.6805 40.0355 83.2041 39.9989 82.9424 40.0303C81.0943 40.2763 79.241 40.449 77.3982 40.7159C74.0215 41.2132 70.65 41.7627 67.2732 42.2861C66.4617 42.4065 66.1581 42.7153 66.2 43.5527C66.2837 45.4683 66.2471 45.4631 68.2208 45.4736C68.9433 45.4736 69.671 45.4736 70.3934 45.5259C70.6866 45.5259 71.1735 45.5259 71.1578 45.8609C71.1578 46.3319 70.6343 46.1644 70.3097 46.1697C69.3095 46.2028 68.3083 46.1854 67.3099 46.1173C66.1738 46.0127 66.0639 46.7035 65.912 47.5514C65.7393 48.5249 66.3727 48.6453 67.0219 48.7919C72.6062 50.055 78.1905 51.3163 83.7748 52.576C84.6716 52.6794 85.5265 53.013 86.2563 53.5442ZM46.0494 63.206C49.8194 63.2223 53.5098 62.1222 56.6552 60.0443C59.8006 57.9664 62.26 55.0039 63.7233 51.5304C65.1867 48.0569 65.5884 44.2279 64.8777 40.5264C64.1671 36.8249 62.376 33.4167 59.7303 30.7317C57.0846 28.0466 53.7028 26.2049 50.0115 25.4389C46.3201 24.6729 42.4846 25.0168 38.9885 26.4274C35.4925 27.8379 32.4925 30.2519 30.3671 33.3649C28.2416 36.4778 27.0858 40.1503 27.0454 43.9191C27.0079 46.438 27.4718 48.9393 28.41 51.2773C29.3481 53.6154 30.7419 55.7437 32.5103 57.5384C34.2787 59.3331 36.3863 60.7583 38.7106 61.7313C41.035 62.7043 43.5296 63.2056 46.0494 63.206Z" fill="#999999"/>
</svg>
