<svg width="40" height="40" viewBox="0 0 40 40" fill="none" xmlns="http://www.w3.org/2000/svg">
<path d="M36.94 -0.00020862H3.06C2.67915 -0.00549786 2.301 0.0642864 1.94713 0.205159C1.59326 0.346032 1.2706 0.555233 0.99759 0.820815C0.724578 1.0864 0.506558 1.40316 0.355979 1.75301C0.2054 2.10286 0.125212 2.47895 0.119995 2.85979V37.1398C0.125212 37.5206 0.2054 37.8967 0.355979 38.2466C0.506558 38.5964 0.724578 38.9132 0.99759 39.1788C1.2706 39.4443 1.59326 39.6535 1.94713 39.7944C2.301 39.9353 2.67915 40.0051 3.06 39.9998H36.94C37.3208 40.0051 37.699 39.9353 38.0529 39.7944C38.4067 39.6535 38.7294 39.4443 39.0024 39.1788C39.2754 38.9132 39.4934 38.5964 39.644 38.2466C39.7946 37.8967 39.8748 37.5206 39.88 37.1398V2.85979C39.8748 2.47895 39.7946 2.10286 39.644 1.75301C39.4934 1.40316 39.2754 1.0864 39.0024 0.820815C38.7294 0.555233 38.4067 0.346032 38.0529 0.205159C37.699 0.0642864 37.3208 -0.00549786 36.94 -0.00020862ZM12.18 33.4798H6.18V15.4798H12.18V33.4798ZM9.18 12.9598C8.35252 12.9598 7.55894 12.6311 6.97382 12.046C6.38871 11.4609 6.06 10.6673 6.06 9.83979C6.06 9.01232 6.38871 8.21873 6.97382 7.63362C7.55894 7.0485 8.35252 6.71979 9.18 6.71979C9.61939 6.66996 10.0643 6.7135 10.4857 6.84756C10.9071 6.98162 11.2955 7.20317 11.6253 7.49771C11.9551 7.79226 12.219 8.15315 12.3997 8.55676C12.5804 8.96036 12.6738 9.39758 12.6738 9.83979C12.6738 10.282 12.5804 10.7192 12.3997 11.1228C12.219 11.5264 11.9551 11.8873 11.6253 12.1819C11.2955 12.4764 10.9071 12.698 10.4857 12.832C10.0643 12.9661 9.61939 13.0096 9.18 12.9598ZM33.82 33.4798H27.82V23.8198C27.82 21.3998 26.96 19.8198 24.78 19.8198C24.1053 19.8247 23.4484 20.0364 22.8977 20.4261C22.347 20.8159 21.929 21.3651 21.7 21.9998C21.5435 22.4699 21.4757 22.9649 21.5 23.4598V33.4598H15.5C15.5 33.4598 15.5 17.0998 15.5 15.4598H21.5V17.9998C22.0451 17.054 22.8378 16.2748 23.7929 15.7462C24.7479 15.2176 25.8291 14.9595 26.92 14.9998C30.92 14.9998 33.82 17.5798 33.82 23.1198V33.4798Z" fill="#006579"/>
</svg>
