<svg width="168" height="40" viewBox="0 0 168 40" fill="none" xmlns="http://www.w3.org/2000/svg">
<path d="M26.6882 24.4504C26.6508 24.3415 26.6099 24.2292 26.5725 24.1032C26.4806 23.8343 26.3717 23.5723 26.2628 23.3272C26.256 23.3102 26.2457 23.2897 26.2321 23.2727C24.1014 19.2428 15.8747 18.0583 12.6855 17.752C12.6344 17.9256 12.5902 18.0991 12.5528 18.2727C12.5459 18.2966 12.5425 18.317 12.5425 18.3408C12.4336 18.8582 12.3758 19.3891 12.2634 19.9065C12.0694 20.7949 11.9197 21.69 11.7393 22.5818C11.7155 22.7043 11.7495 22.929 11.5555 22.9085C11.3615 22.8881 11.1232 22.8371 11.0892 22.5546C10.9939 21.7955 10.8816 21.0331 10.8033 20.2707C10.7726 19.9882 10.6909 19.7942 10.3982 19.7295L10.3744 19.7193C9.66644 19.4368 9.64942 19.4096 10.0306 18.5995C10.0953 18.4667 10.2076 18.3919 10.3608 18.4293C10.548 18.4701 10.5684 18.3782 10.548 18.2251C10.4595 17.5239 10.371 16.8262 10.2927 16.125C10.2757 15.9514 10.194 15.8561 10.034 15.7949C9.82301 15.7166 9.62219 15.6281 9.41116 15.5396C8.64534 15.189 7.85228 14.8759 7.18856 14.3279C6.9469 14.1271 6.72907 13.9058 6.55548 13.6437C6.22873 13.1468 6.40572 12.7418 6.99455 12.6703C7.56977 12.6022 8.13479 12.6737 8.68958 12.8303C9.39074 13.0175 10.034 13.3578 10.725 13.5757C10.8952 13.6267 11.0211 13.6267 11.1709 13.5212C11.7733 13.0923 12.386 12.6737 12.9952 12.255C13.1314 12.1631 13.2301 12.0746 13.0259 11.9487C12.9135 11.8738 12.9067 11.7547 12.934 11.6356C12.9408 11.6015 12.951 11.5675 12.9646 11.5335C13.2029 10.8459 13.2982 10.7914 13.9585 11.0876C14.241 11.2169 14.435 11.1965 14.6767 10.9923C15.2314 10.5328 15.8203 10.1073 16.3853 9.65462C16.5555 9.51167 16.7086 9.49125 16.9197 9.57634C17.1545 9.67164 17.1375 9.78396 17.0184 9.95415C16.7529 10.3422 16.484 10.7302 16.2185 11.125C15.5718 12.0848 14.9183 13.0481 14.2716 14.0079C14.2342 14.0624 14.2001 14.1202 14.1729 14.1781C14.1729 14.1781 14.1718 14.1792 14.1695 14.1815C14.1695 14.1815 14.1627 14.1917 14.1627 14.1951C14.115 14.27 14.064 14.3517 14.0129 14.4402C14.0776 14.4776 14.1457 14.5185 14.2137 14.5593C19.5507 17.82 23.1995 16.8976 24.3193 15.4239C24.3193 15.4204 24.3227 15.417 24.3261 15.4136C24.3261 15.4102 24.3295 15.4102 24.3295 15.4068C25.194 14.0862 25.7114 12.4252 25.7114 10.5055C25.7114 3.8037 20.0545 1.34285 13.6079 1.34285H6.74949C3.02246 1.32583 0 4.34489 0 8.06851V23.722C0 27.8473 1.67461 31.5811 4.37372 34.2836C7.07624 36.9861 10.8135 38.6573 14.9353 38.6573C22.6549 38.6573 27.1784 34.3585 27.1784 27.9936C27.1784 26.656 27.0048 25.4749 26.6848 24.447L26.6882 24.4504Z" fill="#12B4D4"/>
<path d="M32.1442 0H31.2627V40H32.1442V0Z" fill="#EFCC17"/>
<path d="M66.8456 23.4083L58.5488 8H65.0768L69.5261 17.2632L73.9753 8H80.4668L72.2248 23.4083V32.0697H66.8456V23.4083Z" fill="#12B4D4"/>
<path d="M51 8H56.3792V27.3652H65.1318V32.0697H51V8Z" fill="#12B4D4"/>
<path d="M36 8H49.8583V12.7045H41.361V17.6643H49.2201V22.3506H41.361V32.0697H36V8Z" fill="#12B4D4"/>
<path d="M162.192 8H167.553V22.7883C167.553 28.751 163.906 32.5073 157.888 32.5073C151.853 32.5073 148.188 28.751 148.188 22.7883V8H153.548V22.4965C153.548 25.8517 155.226 27.6204 157.888 27.6204C160.532 27.6204 162.192 25.8517 162.192 22.4965V8Z" fill="#12B4D4"/>
<path d="M128.43 8H135.614C143.291 8 147.029 13.0145 147.029 20.0166C147.029 27.0552 143.291 32.0697 135.614 32.0697H128.43V8ZM133.772 12.7775V27.2922H135.122C139.279 27.2922 141.303 24.2106 141.322 20.0531C141.34 15.8956 139.298 12.7775 135.122 12.7775H133.772Z" fill="#12B4D4"/>
<path d="M121.139 8H126.5V22.7883C126.5 28.751 122.853 32.5073 116.836 32.5073C110.8 32.5073 107.135 28.751 107.135 22.7883V8H112.496V22.4965C112.496 25.8517 114.174 27.6204 116.836 27.6204C119.48 27.6204 121.139 25.8517 121.139 22.4965V8Z" fill="#12B4D4"/>
<path d="M89 8H97.2056C101.308 8 104.937 9.53171 104.937 13.8898C104.937 16.7709 103.095 18.8131 101.071 19.269C103.478 19.579 105.94 21.366 105.94 25.2317C105.94 29.2798 103.168 32.0697 98.1902 32.0697H89V8ZM94.361 17.6643H96.6403C98.5914 17.6643 99.6125 16.5338 99.6125 14.8562C99.6125 12.8686 98.3726 12.3034 96.4215 12.3034H94.361V17.6643ZM94.361 27.7663H96.9138C99.3026 27.7663 100.287 26.6358 100.287 24.7576C100.287 22.7883 99.0108 21.8765 96.8227 21.8765H94.361V27.7663Z" fill="#12B4D4"/>
</svg>
