<svg width="16" height="16" viewBox="0 0 16 16" fill="none" xmlns="http://www.w3.org/2000/svg">
<path d="M12.7126 4.35012C12.7132 4.12879 12.6702 3.90951 12.586 3.70483C12.5017 3.50015 12.3779 3.3141 12.2217 3.15733C12.0654 3.00057 11.8798 2.87617 11.6754 2.79125C11.471 2.70634 11.2519 2.66259 11.0305 2.6625H11.0305L12.5626 4.34969M12.7126 4.35012L12.5626 4.34969M12.7126 4.35012V4.34969H12.5626M12.7126 4.35012V12.953C12.7126 13.7934 12.1004 14.4938 11.3063 14.6215M12.5626 4.34969V12.953C12.5626 13.7641 11.9376 14.4303 11.1563 14.4882M11.3063 14.6215V14.4882H11.1563M11.3063 14.6215V15.2375V15.243L11.3062 15.243C11.3023 15.3498 11.2581 15.4512 11.1824 15.5267C11.1067 15.6023 11.0052 15.6463 10.8983 15.6499L10.8932 15.6501V15.65H9.31507H9.30894L9.30895 15.6499C9.2025 15.6455 9.10184 15.6002 9.02798 15.5235C8.95411 15.4467 8.91275 15.3444 8.91251 15.2378L8.91251 15.2375L8.91251 14.65M11.3063 14.6215C11.2606 14.6288 11.2143 14.6343 11.1674 14.6378L11.1563 14.4882M11.1563 14.4882L8.91251 14.65M8.91251 14.65H9.06251V15.2375C9.06266 15.3054 9.08901 15.3706 9.13607 15.4195C9.18313 15.4684 9.24725 15.4972 9.31507 15.5H10.8932C10.9621 15.4977 11.0276 15.4693 11.0764 15.4205C11.1253 15.3718 11.1538 15.3064 11.1563 15.2375L8.91251 14.65ZM8.91251 14.65H7.08751M8.91251 14.65V14.5H7.08751V14.65M5.47501 2.6625H4.96954H4.96947C4.74814 2.6626 4.52901 2.70636 4.32462 2.79127C4.12023 2.87619 3.9346 3.00059 3.77836 3.15736C3.62212 3.31412 3.49834 3.50017 3.41411 3.70484C3.32991 3.90945 3.28689 4.12865 3.28751 4.3499M5.47501 2.6625L4.84376 14.4883M5.47501 2.6625V2.8125H4.96954L5.47501 2.6625ZM3.28751 4.3499V4.34969H3.43751L3.28751 4.35012C3.28751 4.35005 3.28751 4.34997 3.28751 4.3499ZM3.28751 4.3499V12.9531C3.28751 13.7935 3.8997 14.4939 4.69376 14.6216M4.69376 14.6216V15.2375H4.69366L4.69386 15.243C4.69775 15.3498 4.74201 15.4512 4.81771 15.5267C4.8934 15.6023 4.99491 15.6463 5.10177 15.6499L5.10177 15.65H5.10688H6.68501V15.6501L6.69117 15.6499C6.79759 15.6455 6.89823 15.6002 6.97207 15.5234C7.04591 15.4467 7.08727 15.3444 7.08751 15.2378V15.2375V14.65M4.69376 14.6216C4.73948 14.6289 4.78581 14.6344 4.83266 14.6379L4.84376 14.4883M4.69376 14.6216V14.4883H4.84376M7.08751 14.65H6.93751V15.2375C6.93735 15.3054 6.91101 15.3705 6.86396 15.4194C6.81692 15.4684 6.75281 15.4972 6.68501 15.5H5.10688C5.03795 15.4977 4.97247 15.4693 4.92365 15.4205C4.87482 15.3718 4.84627 15.3064 4.84376 15.2375V14.4883M10.525 2.8125V2.6625V2.8125ZM9.72501 2.6625H6.27501V1.40786C6.27536 1.34059 6.30184 1.27607 6.34887 1.22795C6.39554 1.18018 6.45883 1.15228 6.52553 1.15H9.47449C9.54119 1.15228 9.60447 1.18018 9.65115 1.22795C9.69817 1.27607 9.72465 1.34059 9.72501 1.40786V2.6625ZM6.28751 14.85H5.49376V14.65H6.28751V14.85ZM9.71251 14.85V14.65H10.5063V14.85H9.71251ZM11.9125 12.9602C11.9125 13.1962 11.8188 13.4225 11.6519 13.5894C11.485 13.7563 11.2587 13.85 11.0228 13.85H4.97726C4.74128 13.85 4.51497 13.7563 4.34811 13.5894C4.18125 13.4225 4.08751 13.1962 4.08751 12.9602V4.35225C4.08751 4.11627 4.18125 3.88996 4.34811 3.7231C4.51497 3.55624 4.74128 3.4625 4.97726 3.4625H11.0228C11.2587 3.4625 11.485 3.55624 11.6519 3.7231C11.8188 3.88996 11.9125 4.11627 11.9125 4.35225V12.9602Z" fill="#9D9D9D" stroke="#9D9D9D" stroke-width="0.3"/>
<path d="M5.19375 7.62632V7.62613C5.19403 7.4047 5.23797 7.1855 5.32304 6.98107C5.40812 6.77664 5.53266 6.59098 5.68955 6.43473C5.84644 6.27847 6.0326 6.15468 6.23737 6.07044C6.44208 5.98622 6.66138 5.94317 6.88273 5.94376M5.19375 7.62632L9.11747 6.09376M5.19375 7.62632L5.19375 13.0702L5.19375 13.0704C5.19383 13.1228 5.20438 13.1747 5.2248 13.2229C5.24521 13.2712 5.27507 13.3148 5.31262 13.3514C5.35016 13.3879 5.39463 13.4165 5.44342 13.4356C5.49152 13.4544 5.54286 13.4636 5.59449 13.4625H10.4055C10.4571 13.4636 10.5085 13.4544 10.5566 13.4356C10.6054 13.4165 10.6498 13.3879 10.6874 13.3514C10.7249 13.3148 10.7548 13.2712 10.7752 13.2229C10.7956 13.1747 10.8062 13.1228 10.8063 13.0704V13.0702V7.62647V7.6263C10.806 7.40486 10.7621 7.18564 10.677 6.98119C10.5919 6.77674 10.4674 6.59106 10.3105 6.43479C10.1536 6.27852 9.96745 6.15471 9.76267 6.07045C9.55795 5.98622 9.33864 5.94317 9.11727 5.94376M5.19375 7.62632L9.11747 6.09376M6.88273 5.94376C6.8828 5.94376 6.88288 5.94376 6.88295 5.94376L6.88253 6.09376V5.94376H6.88273ZM6.88273 5.94376H9.11727M9.11727 5.94376C9.1172 5.94376 9.11712 5.94376 9.11705 5.94376L9.11747 6.09376M9.11727 5.94376H9.11747V6.09376M6.88184 6.74375L6.88184 6.74376H6.88253L9.11747 6.74376L9.11816 6.74375C9.23449 6.74322 9.34978 6.76564 9.45743 6.80975C9.56507 6.85386 9.66295 6.91878 9.74545 7.00079C9.82796 7.0828 9.89347 7.18029 9.93822 7.28766C9.98297 7.39504 10.0061 7.5102 10.0062 7.62653V8.03751H5.99375V7.62644C5.99392 7.51014 6.01704 7.39502 6.06178 7.28766C6.10654 7.18029 6.17204 7.0828 6.25455 7.00079C6.33705 6.91878 6.43493 6.85386 6.54257 6.80975C6.65022 6.76564 6.76551 6.74322 6.88184 6.74375ZM6.88253 6.59376H9.11747H6.88253ZM5.99375 12.6625V8.83751H10.0062V12.6625H5.99375Z" fill="#9D9D9D" stroke="#9D9D9D" stroke-width="0.3"/>
</svg>
