<svg width="25" height="24" viewBox="0 0 25 24" fill="none" xmlns="http://www.w3.org/2000/svg">
<path fill-rule="evenodd" clip-rule="evenodd" d="M19.5112 13H16.5112C14.8541 13 13.5112 14.343 13.5112 16V19C13.5112 20.657 14.8541 22 16.5112 22H19.5112C21.1684 22 22.5112 20.657 22.5112 19V16C22.5112 14.343 21.1684 13 19.5112 13ZM8.51123 13H5.51123C3.85409 13 2.51123 14.343 2.51123 16V19C2.51123 20.657 3.85409 22 5.51123 22H8.51123C10.1684 22 11.5112 20.657 11.5112 19V16C11.5112 14.343 10.1684 13 8.51123 13ZM19.5112 2H16.5112C14.8541 2 13.5112 3.343 13.5112 5V8C13.5112 9.657 14.8541 11 16.5112 11H19.5112C21.1684 11 22.5112 9.657 22.5112 8V5C22.5112 3.343 21.1684 2 19.5112 2ZM11.5112 5V8C11.5112 9.657 10.1684 11 8.51123 11H5.51123C3.85409 11 2.51123 9.657 2.51123 8V5C2.51123 3.343 3.85409 2 5.51123 2H8.51123C10.1684 2 11.5112 3.343 11.5112 5Z" fill="#12B4D5"/>
</svg>
