<svg width="23" height="24" viewBox="0 0 23 24" fill="none" xmlns="http://www.w3.org/2000/svg">
<g clip-path="url(#clip0_30_415)">
<path d="M13.362 0C13.8411 0.0939335 14.3295 0.15499 14.7992 0.291194C17.5937 1.08023 19.6837 3.55068 20.0266 6.43444C20.4681 10.173 18.1385 13.5922 14.5315 14.4986C10.4923 15.5131 6.34987 12.8266 5.62658 8.72172C4.99723 5.17104 6.85242 1.79883 10.1824 0.502544C10.7788 0.272407 11.4317 0.192564 12.061 0.0422701C12.1221 0.02818 12.1831 0.01409 12.2395 0C12.6105 0 12.9863 0 13.362 0ZM18.6786 7.35029C18.6692 4.05323 16.025 1.39491 12.7655 1.409C9.52482 1.4184 6.88999 4.10489 6.89938 7.37847C6.90877 10.6521 9.56709 13.3198 12.8078 13.3104C16.0438 13.301 18.688 10.6192 18.6786 7.35029Z" fill="#333333"/>
<path d="M2.94481 17.0959C2.99178 16.9033 3.01996 16.7343 3.07632 16.5746C3.40039 15.6587 4.0908 15.2078 5.01135 15.0012C6.58004 14.6489 8.07358 14.8086 9.51546 15.546C10.0321 15.809 10.5769 16.0391 11.1311 16.227C11.4646 16.3397 11.8309 16.382 12.1879 16.3961C12.8971 16.4196 13.611 16.4008 14.3202 16.4055C14.8368 16.4055 15.1139 16.692 15.0998 17.2086C15.081 17.9084 14.8603 18.5378 14.4376 19.153C14.7851 19.153 15.0998 19.1624 15.4098 19.1483C15.4708 19.1436 15.5319 19.0591 15.5883 19.0027C16.2458 18.3452 16.8986 17.683 17.5609 17.0348C18.8431 15.7808 20.8579 15.7433 22.1918 16.9409C22.6145 17.3213 22.6286 17.7299 22.2294 18.1292C20.5855 19.7777 18.937 21.4215 17.2932 23.0654C16.6591 23.6994 15.8935 24.0094 15.0012 24.0094C10.2763 24.0094 5.55147 24.0094 0.826614 24.0094C0.26771 24 0 23.7323 0 23.1781C0 21.4215 0 19.665 0 17.9037C0 17.3542 0.263014 17.0959 0.821918 17.0959C1.52172 17.0912 2.22622 17.0959 2.94481 17.0959ZM4.36321 22.5957C4.47593 22.5957 4.56047 22.5957 4.64501 22.5957C8.06419 22.5957 11.4881 22.591 14.9072 22.6004C15.4802 22.6004 15.9499 22.4125 16.3538 22.0039C17.7534 20.5949 19.1577 19.1953 20.562 17.791C20.609 17.744 20.6466 17.6924 20.7029 17.6313C20.6466 17.6078 20.6137 17.5844 20.5761 17.575C19.7824 17.326 19.0826 17.4904 18.4861 18.0775C17.7769 18.782 17.063 19.4818 16.3679 20.2004C16.119 20.454 15.8513 20.5667 15.499 20.562C13.3057 20.5526 11.1076 20.5526 8.91429 20.5526C8.62309 20.5526 8.33659 20.5573 8.0454 20.5433C7.77299 20.5292 7.57573 20.3789 7.46301 20.1346C7.35499 19.8951 7.37847 19.6603 7.53346 19.4442C7.69785 19.2094 7.93738 19.1389 8.20978 19.1389C9.24775 19.1436 10.2857 19.1436 11.3284 19.1436C11.5303 19.1436 11.737 19.1436 11.9342 19.1249C12.6528 19.045 13.362 18.4626 13.5405 17.8004C13.1131 17.8004 12.6951 17.7957 12.2771 17.8004C11.6149 17.8098 10.9667 17.7065 10.3562 17.4528C9.79256 17.2227 9.23366 16.9832 8.68885 16.7108C7.51937 16.1331 6.32172 16.0955 5.0865 16.4337C4.57926 16.5699 4.36321 16.8611 4.36321 17.3824C4.36321 18.6223 4.36321 19.8669 4.36321 21.1069C4.36321 21.5953 4.36321 22.0791 4.36321 22.5957ZM2.94481 22.5816C2.94481 21.2149 2.94481 19.8669 2.94481 18.5143C2.42818 18.5143 1.93033 18.5143 1.4184 18.5143C1.4184 19.8763 1.4184 21.2243 1.4184 22.5816C1.93033 22.5816 2.42818 22.5816 2.94481 22.5816Z" fill="#333333"/>
<g clip-path="url(#clip1_30_415)">
<path d="M13.9464 5.25242C13.9464 5.07117 13.9508 4.88947 13.9464 4.70821C13.9428 4.61231 13.9789 4.58635 14.07 4.58767C14.3282 4.59251 14.5869 4.59427 14.8447 4.58767C14.9547 4.58459 14.9859 4.62155 14.9842 4.72845C14.9785 5.06897 14.9873 5.40992 14.9798 5.75087C14.9771 5.87582 15.0066 5.92685 15.1426 5.92157C15.4391 5.91453 15.4395 5.92157 15.4395 6.22689C15.4395 6.40814 15.4356 6.58984 15.4395 6.7711C15.4422 6.85909 15.4188 6.89428 15.3216 6.89604C14.9811 6.90308 14.9811 6.90748 14.9811 7.25635C14.9811 7.42661 14.9855 7.59731 14.9811 7.76756C14.978 7.86083 15.0097 7.88899 15.103 7.89207C15.4395 7.90174 15.4395 7.90526 15.4395 8.23918C15.4395 8.40944 15.4356 8.58013 15.4395 8.75039C15.4426 8.84278 15.4118 8.87138 15.3176 8.87313C14.9807 8.88017 14.9811 8.88413 14.9811 9.22025C14.9811 9.47849 14.9771 9.73718 14.9811 9.99498C14.9811 10.0971 14.9472 10.127 14.8491 10.1248C14.5636 10.119 14.2772 10.1186 13.9917 10.1248C13.9515 10.1287 13.911 10.1202 13.8758 10.1004C13.8406 10.0807 13.8122 10.0507 13.7946 10.0143C13.5904 9.67559 13.3775 9.34211 13.1751 9.00248C13.1188 8.90745 13.0585 8.86478 12.9424 8.86697C12.5522 8.87533 12.1619 8.87357 11.7717 8.86697C11.6635 8.86697 11.6318 8.89821 11.634 9.00556C11.6406 9.32979 11.6314 9.65403 11.6389 9.97827C11.6415 10.0962 11.6032 10.1278 11.4893 10.1239C11.242 10.116 10.9943 10.1142 10.7475 10.1239C10.6178 10.1296 10.5909 10.0799 10.5931 9.96331C10.6002 9.65007 10.59 9.33683 10.598 9.02359C10.601 8.90305 10.5707 8.86214 10.4435 8.86521C10.151 8.87225 10.1505 8.86522 10.1505 8.57617C10.1505 8.38392 10.1541 8.19123 10.1505 7.99897C10.1505 7.91098 10.1809 7.88855 10.2649 7.88547C10.5971 7.87227 10.5971 7.86919 10.5971 7.53351C10.5971 7.36326 10.5922 7.19256 10.5971 7.0223C10.6006 6.92376 10.5702 6.89032 10.4677 6.89032C10.1505 6.88724 10.1505 6.88284 10.1505 6.55949C10.1505 6.38923 10.1558 6.21853 10.1505 6.04827C10.1461 5.94797 10.1778 5.91629 10.2799 5.91629C10.598 5.91145 10.598 5.90661 10.598 5.58018C10.598 5.29421 10.601 5.00825 10.598 4.72273C10.598 4.62638 10.6217 4.58547 10.7273 4.58811C11.0075 4.59471 11.2878 4.59383 11.568 4.58811C11.6058 4.58509 11.6435 4.59367 11.6762 4.6127C11.7089 4.63172 11.735 4.66029 11.751 4.69458C11.971 5.06149 12.2007 5.424 12.4206 5.79179C12.4743 5.87978 12.5311 5.92377 12.6406 5.92377C13.0308 5.91673 13.4211 5.91761 13.8113 5.92377C13.9186 5.92377 13.956 5.89253 13.9512 5.78343C13.9428 5.60745 13.9512 5.43148 13.9512 5.2555L13.9464 5.25242ZM13.0951 6.8934C13.2996 7.22732 13.4871 7.53483 13.6771 7.84103C13.7295 7.92506 13.817 7.88767 13.8887 7.88503C13.9767 7.88151 13.9442 7.80408 13.9446 7.75612C13.9477 7.50888 13.9446 7.26163 13.9446 7.01438C13.9446 6.95455 13.956 6.8912 13.8597 6.89252C13.6164 6.8956 13.3713 6.8934 13.0951 6.8934ZM12.4822 7.88855L11.8997 6.94443C11.847 6.85865 11.7612 6.89384 11.6903 6.89692C11.6023 6.90132 11.6384 6.97919 11.638 7.02582C11.6345 7.27263 11.638 7.51944 11.638 7.76624C11.638 7.82432 11.6221 7.89075 11.7203 7.88943C11.9631 7.88679 12.2073 7.88855 12.4822 7.88855Z" fill="#333333"/>
</g>
</g>
<defs>
<clipPath id="clip0_30_415">
<rect width="22.5112" height="24" fill="white"/>
</clipPath>
<clipPath id="clip1_30_415">
<rect width="5.29073" height="5.5393" fill="white" transform="translate(10.1472 4.5871)"/>
</clipPath>
</defs>
</svg>
