<svg width="24" height="24" viewBox="0 0 24 24" fill="none" xmlns="http://www.w3.org/2000/svg">
<g clip-path="url(#clip0_1296_1408)">
<path d="M14.2458 0C14.7565 0.0939335 15.2773 0.15499 15.778 0.291194C18.7573 1.08023 20.9856 3.55068 21.3511 6.43444C21.8218 10.173 19.3382 13.5922 15.4926 14.4986C11.1863 15.5131 6.76986 12.8266 5.99874 8.72172C5.32776 5.17104 7.30564 1.79883 10.8558 0.502544C11.4917 0.272407 12.1878 0.192564 12.8587 0.0422701C12.9238 0.02818 12.9889 0.01409 13.049 0C13.4446 0 13.8452 0 14.2458 0ZM19.914 7.35029C19.904 4.05323 17.0849 1.39491 13.6098 1.409C10.1548 1.4184 7.3457 4.10489 7.35572 7.37847C7.36573 10.6521 10.1999 13.3198 13.6549 13.3104C17.1049 13.301 19.924 10.6192 19.914 7.35029Z" fill="#9D93A9"/>
<path d="M3.13958 17.0959C3.18965 16.9034 3.2197 16.7343 3.27978 16.5746C3.62529 15.6587 4.36136 15.2079 5.34279 15.0012C7.01523 14.649 8.60755 14.8086 10.1448 15.546C10.6956 15.809 11.2764 16.0392 11.8673 16.227C12.2228 16.3398 12.6134 16.382 12.9939 16.3961C13.7501 16.4196 14.5112 16.4008 15.2673 16.4055C15.8181 16.4055 16.1135 16.692 16.0985 17.2086C16.0784 17.9085 15.8431 18.5378 15.3924 19.1531C15.763 19.1531 16.0985 19.1625 16.429 19.1484C16.4941 19.1437 16.5591 19.0591 16.6192 19.0028C17.3203 18.3452 18.0163 17.683 18.7223 17.0349C20.0893 15.7809 22.2374 15.7433 23.6595 16.9409C24.1102 17.3214 24.1252 17.73 23.6996 18.1292C21.947 19.7777 20.1894 21.4216 18.4369 23.0654C17.7609 23.6994 16.9447 24.0094 15.9933 24.0094C10.956 24.0094 5.91863 24.0094 0.881285 24.0094C0.285416 24 0 23.7323 0 23.1781C0 21.4216 0 19.665 0 17.9038C0 17.3542 0.280409 17.0959 0.876278 17.0959C1.62237 17.0912 2.37346 17.0959 3.13958 17.0959ZM4.65178 22.5957C4.77196 22.5957 4.86209 22.5957 4.95222 22.5957C8.59754 22.5957 12.2479 22.591 15.8932 22.6004C16.5041 22.6004 17.0048 22.4126 17.4354 22.0039C18.9276 20.5949 20.4248 19.1953 21.922 17.791C21.972 17.7441 22.0121 17.6924 22.0722 17.6313C22.0121 17.6079 21.977 17.5844 21.937 17.575C21.0908 17.3261 20.3447 17.4904 19.7087 18.0775C18.9526 18.782 18.1915 19.4818 17.4504 20.2004C17.1851 20.454 16.8996 20.5668 16.5241 20.5621C14.1857 20.5527 11.8423 20.5527 9.50386 20.5527C9.19341 20.5527 8.88796 20.5574 8.57751 20.5433C8.28708 20.5292 8.07678 20.3789 7.9566 20.1347C7.84143 19.8951 7.86647 19.6603 8.03171 19.4443C8.20697 19.2094 8.46234 19.139 8.75276 19.139C9.85938 19.1437 10.966 19.1437 12.0776 19.1437C12.2929 19.1437 12.5132 19.1437 12.7236 19.1249C13.4897 19.045 14.2458 18.4627 14.4361 17.8004C13.9804 17.8004 13.5347 17.7957 13.0891 17.8004C12.3831 17.8098 11.692 17.7065 11.0411 17.4529C10.4402 17.2227 9.84436 16.9832 9.26351 16.7108C8.01669 16.1331 6.73983 16.0955 5.42291 16.4337C4.88212 16.5699 4.65178 16.8611 4.65178 17.3824C4.65178 18.6223 4.65178 19.867 4.65178 21.1069C4.65178 21.5953 4.65178 22.0791 4.65178 22.5957ZM3.13958 22.5816C3.13958 21.2149 3.13958 19.867 3.13958 18.5143C2.58878 18.5143 2.058 18.5143 1.51221 18.5143C1.51221 19.8764 1.51221 21.2243 1.51221 22.5816C2.058 22.5816 2.58878 22.5816 3.13958 22.5816Z" fill="#9D93A9"/>
<g clip-path="url(#clip1_1296_1408)">
<path d="M14.8684 5.25257C14.8684 5.07132 14.8731 4.88962 14.8684 4.70837C14.8646 4.61246 14.9031 4.5865 15.0002 4.58782C15.2755 4.59266 15.5513 4.59442 15.8262 4.58782C15.9434 4.58474 15.9767 4.6217 15.9748 4.7286C15.9687 5.06912 15.9781 5.41007 15.9702 5.75103C15.9673 5.87597 15.9988 5.927 16.1437 5.92172C16.4598 5.91468 16.4603 5.92172 16.4603 6.22704C16.4603 6.4083 16.4561 6.58999 16.4603 6.77125C16.4631 6.85924 16.4383 6.89443 16.3346 6.89619C15.9716 6.90323 15.9716 6.90763 15.9716 7.2565C15.9716 7.42676 15.9762 7.59746 15.9716 7.76772C15.9683 7.86098 16.002 7.88914 16.1015 7.89222C16.4603 7.9019 16.4603 7.90542 16.4603 8.23933C16.4603 8.40959 16.4561 8.58029 16.4603 8.75054C16.4636 8.84293 16.4307 8.87153 16.3304 8.87329C15.9711 8.88033 15.9716 8.88429 15.9716 9.2204C15.9716 9.47865 15.9673 9.73733 15.9716 9.99514C15.9716 10.0972 15.9354 10.1271 15.8308 10.1249C15.5264 10.1192 15.2211 10.1188 14.9167 10.1249C14.8738 10.1288 14.8307 10.1203 14.7932 10.1006C14.7556 10.0808 14.7254 10.0508 14.7066 10.0145C14.4889 9.67574 14.2619 9.34227 14.0462 9.00263C13.9861 8.9076 13.9219 8.86493 13.798 8.86713C13.382 8.87549 12.966 8.87373 12.5499 8.86713C12.4345 8.86713 12.4008 8.89836 12.4031 9.00571C12.4102 9.32995 12.4003 9.65418 12.4083 9.97842C12.4111 10.0963 12.3703 10.128 12.2488 10.124C11.9852 10.1161 11.7211 10.1144 11.458 10.124C11.3196 10.1298 11.291 10.08 11.2934 9.96346C11.3009 9.65022 11.2901 9.33698 11.2985 9.02375C11.3018 8.9032 11.2695 8.86229 11.1339 8.86537C10.822 8.87241 10.8215 8.86537 10.8215 8.57633C10.8215 8.38407 10.8253 8.19138 10.8215 7.99913C10.8215 7.91114 10.8539 7.8887 10.9435 7.88562C11.2976 7.87242 11.2976 7.86934 11.2976 7.53367C11.2976 7.36341 11.2924 7.19271 11.2976 7.02246C11.3014 6.92391 11.269 6.89047 11.1597 6.89047C10.8215 6.88739 10.8215 6.88299 10.8215 6.55964C10.8215 6.38938 10.8272 6.21868 10.8215 6.04843C10.8168 5.94812 10.8506 5.91644 10.9594 5.91644C11.2985 5.9116 11.2985 5.90677 11.2985 5.58033C11.2985 5.29437 11.3018 5.00841 11.2985 4.72288C11.2985 4.62654 11.3239 4.58562 11.4364 4.58826C11.7352 4.59486 12.034 4.59398 12.3328 4.58826C12.373 4.58524 12.4132 4.59382 12.4481 4.61285C12.483 4.63188 12.5108 4.66044 12.5279 4.69473C12.7624 5.06164 13.0072 5.42415 13.2418 5.79194C13.299 5.87993 13.3595 5.92392 13.4763 5.92392C13.8923 5.91688 14.3084 5.91776 14.7244 5.92392C14.8388 5.92392 14.8787 5.89269 14.8735 5.78358C14.8646 5.60761 14.8735 5.43163 14.8735 5.25565L14.8684 5.25257ZM13.9608 6.89355C14.1789 7.22747 14.3787 7.53499 14.5813 7.84119C14.6371 7.92521 14.7305 7.88782 14.8069 7.88518C14.9007 7.88166 14.866 7.80423 14.8665 7.75628C14.8698 7.50903 14.8665 7.26178 14.8665 7.01454C14.8665 6.95471 14.8787 6.89135 14.776 6.89267C14.5166 6.89575 14.2554 6.89355 13.9608 6.89355ZM13.3074 7.8887L12.6864 6.94459C12.6301 6.8588 12.5387 6.89399 12.4632 6.89707C12.3694 6.90147 12.4078 6.97934 12.4073 7.02597C12.4036 7.27278 12.4073 7.51959 12.4073 7.7664C12.4073 7.82447 12.3905 7.8909 12.4951 7.88958C12.754 7.88694 13.0143 7.8887 13.3074 7.8887Z" fill="#9D93A9"/>
</g>
</g>
<defs>
<clipPath id="clip0_1296_1408">
<rect width="24" height="24" fill="white"/>
</clipPath>
<clipPath id="clip1_1296_1408">
<rect width="5.64065" height="5.5393" fill="white" transform="translate(10.8183 4.58716)"/>
</clipPath>
</defs>
</svg>
