<svg width="56" height="57" viewBox="0 0 56 57" fill="none" xmlns="http://www.w3.org/2000/svg">
<path d="M45.997 40.9255C47.81 39.6596 49 37.5597 49 35.1855C49 31.325 45.8605 28.1855 42 28.1855C38.1395 28.1855 35 31.325 35 35.1855C35 37.555 36.1865 39.648 37.9937 40.915C36.7605 41.6138 35.7257 42.6218 34.9965 43.834C34.265 42.6276 33.229 41.6232 31.997 40.9267C33.81 39.6597 35 37.5597 35 35.1855C35 31.325 31.8605 28.1855 28 28.1855C24.1395 28.1855 21 31.325 21 35.1855C21 37.555 22.1865 39.648 23.9937 40.915C22.7605 41.6138 21.7257 42.6218 20.9965 43.834C20.265 42.6276 19.229 41.6232 17.997 40.9267C19.81 39.6597 21 37.5597 21 35.1855C21 31.325 17.8605 28.1855 14 28.1855C10.1395 28.1855 7.00004 31.325 7.00004 35.1855C7.00004 37.555 8.18654 39.648 9.99371 40.915C7.51454 42.3185 5.83337 44.9727 5.83337 48.0188V51.5188C5.83337 52.1628 6.35604 52.6855 7.00004 52.6855C7.64404 52.6855 8.16671 52.1628 8.16671 51.5188V48.0188C8.16671 44.8023 10.7835 42.1855 14 42.1855C17.2165 42.1855 19.8334 44.8023 19.8334 48.0188V51.5188C19.8334 52.1628 20.356 52.6855 21 52.6855C21.644 52.6855 22.1667 52.1628 22.1667 51.5188V48.0188C22.1667 44.8023 24.7835 42.1855 28 42.1855C31.2165 42.1855 33.8334 44.8023 33.8334 48.0188V51.5188C33.8334 52.1628 34.356 52.6855 35 52.6855C35.644 52.6855 36.1667 52.1628 36.1667 51.5188V48.0188C36.1667 44.8023 38.7835 42.1855 42 42.1855C45.2165 42.1855 47.8334 44.8023 47.8334 48.0188V51.5188C47.8334 52.1628 48.356 52.6855 49 52.6855C49.644 52.6855 50.1667 52.1628 50.1667 51.5188V48.0188C50.1667 44.9715 48.4762 42.329 45.997 40.9255ZM14 39.8521C11.4264 39.8521 9.33337 37.7592 9.33337 35.1855C9.33337 32.6118 11.4264 30.5188 14 30.5188C16.5737 30.5188 18.6667 32.6118 18.6667 35.1855C18.6667 37.7592 16.5737 39.8521 14 39.8521ZM28 39.8521C25.4264 39.8521 23.3334 37.7592 23.3334 35.1855C23.3334 32.6118 25.4264 30.5188 28 30.5188C30.5737 30.5188 32.6667 32.6118 32.6667 35.1855C32.6667 37.7592 30.5737 39.8521 28 39.8521ZM42 39.8521C39.4264 39.8521 37.3334 37.7592 37.3334 35.1855C37.3334 32.6118 39.4264 30.5188 42 30.5188C44.5737 30.5188 46.6667 32.6118 46.6667 35.1855C46.6667 37.7592 44.5737 39.8521 42 39.8521ZM45.997 16.4255C47.81 15.1597 49 13.0597 49 10.6855C49 6.82499 45.8605 3.68549 42 3.68549C38.1395 3.68549 35 6.82499 35 10.6855C35 13.055 36.1865 15.148 37.9937 16.415C36.7605 17.1138 35.7257 18.1218 34.9965 19.334C34.265 18.1277 33.229 17.1232 31.997 16.4267C33.81 15.1597 35 13.0597 35 10.6855C35 6.82499 31.8605 3.68549 28 3.68549C24.1395 3.68549 21 6.82499 21 10.6855C21 13.055 22.1865 15.148 23.9937 16.415C22.7605 17.1138 21.7257 18.1218 20.9965 19.334C20.265 18.1277 19.229 17.1232 17.997 16.4267C19.81 15.1597 21 13.0597 21 10.6855C21 6.82499 17.8605 3.68549 14 3.68549C10.1395 3.68549 7.00004 6.82499 7.00004 10.6855C7.00004 13.055 8.18654 15.148 9.99371 16.415C7.51454 17.8185 5.83337 20.4727 5.83337 23.5188V27.0188C5.83337 27.6628 6.35604 28.1855 7.00004 28.1855C7.64404 28.1855 8.16671 27.6628 8.16671 27.0188V23.5188C8.16671 20.3023 10.7835 17.6855 14 17.6855C17.2165 17.6855 19.8334 20.3023 19.8334 23.5188V27.0188C19.8334 27.6628 20.356 28.1855 21 28.1855C21.644 28.1855 22.1667 27.6628 22.1667 27.0188V23.5188C22.1667 20.3023 24.7835 17.6855 28 17.6855C31.2165 17.6855 33.8334 20.3023 33.8334 23.5188V27.0188C33.8334 27.6628 34.356 28.1855 35 28.1855C35.644 28.1855 36.1667 27.6628 36.1667 27.0188V23.5188C36.1667 20.3023 38.7835 17.6855 42 17.6855C45.2165 17.6855 47.8334 20.3023 47.8334 23.5188V27.0188C47.8334 27.6628 48.356 28.1855 49 28.1855C49.644 28.1855 50.1667 27.6628 50.1667 27.0188V23.5188C50.1667 20.4715 48.4762 17.829 45.997 16.4255ZM14 15.3522C11.4264 15.3522 9.33337 13.2592 9.33337 10.6855C9.33337 8.11182 11.4264 6.01882 14 6.01882C16.5737 6.01882 18.6667 8.11182 18.6667 10.6855C18.6667 13.2592 16.5737 15.3522 14 15.3522ZM28 15.3522C25.4264 15.3522 23.3334 13.2592 23.3334 10.6855C23.3334 8.11182 25.4264 6.01882 28 6.01882C30.5737 6.01882 32.6667 8.11182 32.6667 10.6855C32.6667 13.2592 30.5737 15.3522 28 15.3522ZM42 15.3522C39.4264 15.3522 37.3334 13.2592 37.3334 10.6855C37.3334 8.11182 39.4264 6.01882 42 6.01882C44.5737 6.01882 46.6667 8.11182 46.6667 10.6855C46.6667 13.2592 44.5737 15.3522 42 15.3522Z" fill="#EFCC13"/>
</svg>
