<svg width="205" height="168" viewBox="0 0 205 168" fill="none" xmlns="http://www.w3.org/2000/svg">
<path fill-rule="evenodd" clip-rule="evenodd" d="M146.96 37.7967C150.467 38.0469 149.692 38.259 153.277 33.169C156.321 28.5818 154.038 29.7168 159.37 28.842C164.228 28.1229 171.162 25.7157 174.877 25.1988C175.614 28.0295 173.084 41.3034 173.399 45.6602C174.404 45.4359 175.212 45.2643 176.282 44.9879C177.964 44.5778 177.673 44.8123 178.42 42.7971C180.124 38.4647 185.603 24.5846 186.924 22.1071C190.497 21.1177 200.43 19.0243 202.736 16.9253C203.824 15.9278 205.461 14.1409 203.939 12.9966C200.178 10.2329 192.282 13.4151 186.772 14.8464C184.578 15.4301 185.032 15.1837 183.204 13.7263C181.211 12.1481 167.166 0.300373 165.948 0.0961729C165.49 0.106079 162.52 0.968319 161.908 1.10196C162.782 2.63033 163.739 4.10961 164.775 5.53306L170.471 14.0665C171.533 15.4463 172.479 16.9123 173.299 18.4491C170.684 19.0248 168.189 19.7313 165.51 20.3591C152.209 23.5157 156.417 25.2132 150.035 21.8442C146.431 20.0195 145.044 18.2995 142.595 20.9808C147.719 26.3102 149.029 31.1573 146.944 37.8097L146.96 37.7967ZM143.31 28.9733C143.453 28.9199 143.606 28.8951 143.758 28.9006C143.911 28.9061 144.062 28.9416 144.201 29.0051C144.34 29.0687 144.465 29.159 144.569 29.2709C144.673 29.3829 144.755 29.5142 144.808 29.6575C144.861 29.8008 144.886 29.9533 144.881 30.1061C144.875 30.2589 144.84 30.4091 144.776 30.5483C144.712 30.6874 144.622 30.8126 144.51 30.9168C144.398 31.021 144.267 31.1021 144.124 31.1556L142.046 31.8847C141.903 31.9673 141.744 32.0173 141.58 32.0314C141.416 32.0454 141.251 32.0231 141.096 31.9659C140.942 31.9087 140.802 31.8182 140.686 31.7007C140.57 31.5832 140.482 31.4416 140.428 31.2861C140.373 31.1306 140.354 30.965 140.37 30.8011C140.387 30.6372 140.44 30.479 140.525 30.3377C140.61 30.1965 140.725 30.0757 140.862 29.9841C140.999 29.8924 141.154 29.8321 141.317 29.8074L143.31 28.9733ZM2.79402 166.728C2.68724 167.003 2.47544 167.225 2.20534 167.344C1.93523 167.463 1.62887 167.47 1.35367 167.363C1.07847 167.257 0.857002 167.045 0.737913 166.775C0.618825 166.505 0.61192 166.198 0.718703 165.923L1.58496 163.692C2.25528 162.325 4.31647 163.262 3.74331 164.617L2.79402 166.728ZM6.31296 158.333C6.24968 158.472 6.15969 158.597 6.0482 158.7C5.93671 158.804 5.80584 158.885 5.66312 158.938C5.5204 158.992 5.36858 159.016 5.21637 159.011C5.06416 159.005 4.91453 158.97 4.776 158.907C4.63746 158.843 4.5127 158.753 4.40893 158.642C4.30515 158.53 4.2244 158.4 4.1712 158.257C4.118 158.114 4.09341 157.962 4.09886 157.81C4.10432 157.658 4.1397 157.508 4.20299 157.37L5.16697 155.26C5.77868 153.82 7.82578 154.888 7.27685 156.224L6.31296 158.333ZM10.153 150.04C10.0251 150.319 9.79147 150.537 9.50324 150.644C9.21501 150.752 8.89583 150.74 8.61604 150.613C8.33624 150.485 8.11869 150.251 8.01123 149.963C7.90378 149.675 7.91522 149.356 8.04305 149.076L9.00695 146.966C9.60459 145.658 11.7305 146.542 11.1169 147.93L10.153 150.04ZM14.1543 141.962C14.1031 142.124 14.0165 142.272 13.9008 142.396C13.7851 142.52 13.6433 142.616 13.4857 142.679C13.328 142.741 13.1583 142.767 12.9892 142.756C12.8201 142.744 12.6556 142.695 12.5077 142.612C12.3599 142.529 12.2325 142.414 12.1346 142.276C12.0368 142.138 11.971 141.979 11.9421 141.812C11.9132 141.645 11.9219 141.474 11.9675 141.31C12.0131 141.147 12.0946 140.996 12.2059 140.868L13.2415 138.847C14.0431 137.494 16.0761 138.693 15.2625 139.882L14.1543 141.962ZM18.6081 133.999C18.4391 134.248 18.1819 134.423 17.8887 134.488C17.5955 134.554 17.2882 134.506 17.0293 134.353C16.7705 134.201 16.5796 133.955 16.4952 133.667C16.4108 133.378 16.4393 133.069 16.575 132.8L17.7278 130.925C17.9001 130.727 18.1353 130.594 18.3939 130.55C18.6524 130.505 18.9185 130.55 19.1472 130.679C19.376 130.807 19.5535 131.011 19.6498 131.255C19.7462 131.499 19.7555 131.769 19.6762 132.019L18.6081 133.999ZM23.2442 126.263C23.0775 126.523 22.8142 126.706 22.5125 126.772C22.2107 126.838 21.8951 126.781 21.6351 126.614C21.3752 126.448 21.1921 126.184 21.1262 125.883C21.0603 125.581 21.1171 125.265 21.2838 125.005L22.5416 123.045C22.7084 122.785 22.9716 122.602 23.2734 122.536C23.5751 122.47 23.8906 122.527 24.1506 122.694C24.4106 122.86 24.5937 123.123 24.6595 123.425C24.7254 123.727 24.6688 124.043 24.502 124.303L23.2442 126.263ZM28.2047 118.598C28.1428 118.751 28.0476 118.889 27.9258 119C27.8041 119.112 27.659 119.195 27.501 119.244C27.3431 119.292 27.1763 119.305 27.0129 119.281C26.8494 119.257 26.6934 119.196 26.5563 119.104C26.4191 119.012 26.3043 118.89 26.2201 118.748C26.136 118.606 26.0846 118.447 26.0698 118.282C26.055 118.118 26.0771 117.952 26.1345 117.797C26.1919 117.642 26.2832 117.502 26.4016 117.387L27.718 115.499C27.7798 115.346 27.8751 115.208 27.9968 115.097C28.1186 114.985 28.2637 114.902 28.4216 114.853C28.5796 114.805 28.7463 114.792 28.9098 114.816C29.0732 114.841 29.2292 114.901 29.3664 114.993C29.5035 115.085 29.6183 115.207 29.7024 115.349C29.7866 115.491 29.838 115.65 29.8529 115.815C29.8677 115.979 29.8456 116.145 29.7882 116.3C29.7308 116.455 29.6395 116.595 29.521 116.71L28.2047 118.598ZM33.5081 111.243C33.3183 111.461 33.0525 111.599 32.7648 111.629C32.4771 111.659 32.1888 111.578 31.9582 111.404C31.7276 111.229 31.572 110.973 31.5228 110.688C31.4736 110.403 31.5345 110.11 31.6931 109.868L33.0681 108.053C33.1539 107.922 33.2656 107.81 33.3963 107.725C33.5271 107.639 33.674 107.581 33.8281 107.554C33.9822 107.528 34.1401 107.533 34.2921 107.57C34.444 107.607 34.5867 107.675 34.7113 107.769C34.8359 107.864 34.9399 107.983 35.0166 108.119C35.0933 108.255 35.1412 108.406 35.1573 108.561C35.1734 108.717 35.1574 108.874 35.1102 109.023C35.0631 109.172 34.9858 109.31 34.8831 109.428L33.5081 111.243ZM39.0781 104.086C38.8783 104.325 38.5919 104.474 38.2818 104.502C37.9717 104.53 37.6633 104.433 37.4245 104.233C37.1856 104.034 37.036 103.747 37.0083 103.437C36.9807 103.127 37.0774 102.819 37.2771 102.58L38.7834 100.779C38.8796 100.663 38.9981 100.568 39.1319 100.499C39.2658 100.43 39.4121 100.388 39.5623 100.377C39.7124 100.366 39.8633 100.385 40.0059 100.434C40.1484 100.482 40.2798 100.559 40.392 100.659C40.5043 100.759 40.5952 100.881 40.6593 101.017C40.7233 101.154 40.7593 101.301 40.765 101.452C40.7707 101.602 40.746 101.752 40.6924 101.893C40.6388 102.034 40.5574 102.162 40.453 102.271L39.0781 104.086ZM44.9307 97.1142C44.8345 97.23 44.716 97.3253 44.5821 97.3943C44.4483 97.4633 44.3019 97.5047 44.1518 97.5159C44.0016 97.5271 43.8507 97.5079 43.7082 97.4595C43.5656 97.4111 43.4343 97.3344 43.322 97.2341C43.2097 97.1337 43.1189 97.0118 43.0548 96.8755C42.9907 96.7393 42.9547 96.5916 42.949 96.4411C42.9433 96.2906 42.968 96.1406 43.0216 95.9999C43.0752 95.8592 43.1566 95.7307 43.261 95.6221C43.7171 95.0144 44.2319 94.4794 44.7672 93.8211C45.6514 92.8683 47.5716 94.2248 46.4955 95.3858C45.9081 95.9795 45.4519 96.5872 44.9372 97.1223L44.9307 97.1142ZM51.0903 90.3745C50.8855 90.5874 50.6045 90.7102 50.3092 90.7159C50.0139 90.7216 49.7284 90.6098 49.5156 90.4051C49.3028 90.2003 49.18 89.9193 49.1743 89.624C49.1686 89.3287 49.2805 89.0432 49.4853 88.8304L51.0295 87.2253C51.1309 87.1199 51.2521 87.0354 51.3861 86.9769C51.5202 86.9183 51.6643 86.8867 51.8106 86.8839C51.9568 86.8811 52.1021 86.9071 52.2383 86.9604C52.3745 87.0137 52.4988 87.0934 52.6042 87.1948C52.7096 87.2962 52.7939 87.4173 52.8525 87.5513C52.9111 87.6853 52.9426 87.8296 52.9455 87.9758C52.9483 88.122 52.9223 88.2673 52.869 88.4035C52.8156 88.5396 52.736 88.664 52.6346 88.7694L51.0903 90.3745ZM57.5284 83.9967C57.3062 84.2077 57.0093 84.3218 56.703 84.3139C56.3967 84.306 56.1061 84.1767 55.8951 83.9545C55.6842 83.7323 55.5701 83.4354 55.5781 83.1291C55.586 82.8228 55.7153 82.5322 55.9375 82.3212L57.613 80.7302C57.7269 80.6305 57.8593 80.5542 58.0026 80.5056C58.146 80.4571 58.2975 80.4373 58.4485 80.4473C58.5995 80.4573 58.747 80.497 58.8827 80.564C59.0184 80.6311 59.1396 80.7241 59.2393 80.838C59.339 80.9518 59.4152 81.0842 59.4638 81.2276C59.5123 81.3709 59.5321 81.5224 59.5221 81.6734C59.5019 81.9784 59.3613 82.2629 59.1313 82.4642L57.5284 83.9967ZM64.209 77.903C63.9791 78.1044 63.6786 78.2061 63.3736 78.1859C63.0686 78.1657 62.7841 78.0252 62.5828 77.7952C62.3814 77.5653 62.2797 77.2647 62.3 76.9598C62.3202 76.6548 62.4607 76.3704 62.6907 76.169L64.4249 74.6506C64.6549 74.4492 64.9554 74.3475 65.2604 74.3677C65.5654 74.3879 65.8498 74.5285 66.0511 74.7584C66.2524 74.9884 66.3542 75.2889 66.334 75.5938C66.3137 75.8988 66.1731 76.1833 65.9432 76.3846L64.209 77.903ZM71.1316 71.9607C70.8939 72.1524 70.5898 72.2418 70.2861 72.2093C69.9824 72.1768 69.7041 72.025 69.5124 71.7872C69.3207 71.5495 69.2314 71.2454 69.2639 70.9417C69.2965 70.6381 69.4483 70.3598 69.686 70.168L71.4788 68.7223C72.5529 67.8562 74.1439 69.5316 72.9245 70.5149L71.1316 71.9607ZM78.3392 66.3882C78.0937 66.5703 77.7859 66.6474 77.4835 66.6026C77.1812 66.5578 76.9091 66.3946 76.727 66.1492C76.545 65.9037 76.4679 65.5959 76.5128 65.2935C76.5577 64.9912 76.7208 64.7191 76.9663 64.537L78.7449 63.2226C78.9904 63.0405 79.2983 62.9634 79.6006 63.0082C79.7503 63.0304 79.8942 63.0819 80.024 63.1597C80.1538 63.2375 80.267 63.3401 80.3571 63.4617C80.4473 63.5832 80.5126 63.7213 80.5494 63.8681C80.5862 64.0149 80.5936 64.1675 80.5714 64.3173C80.5265 64.6196 80.3634 64.8917 80.1179 65.0738L78.3392 66.3882ZM85.6514 61.0779C85.5311 61.1678 85.3939 61.2323 85.2479 61.2676C85.1019 61.3029 84.9502 61.3082 84.8021 61.2832C84.654 61.2582 84.5125 61.2034 84.3862 61.1221C84.2599 61.0409 84.1514 60.9348 84.0673 60.8103C83.9832 60.6859 83.9252 60.5457 83.8969 60.3982C83.8686 60.2507 83.8705 60.099 83.9025 59.9522C83.9345 59.8055 83.996 59.6667 84.0832 59.5444C84.1704 59.4221 84.2815 59.3188 84.4098 59.2407L86.3198 57.9403C86.5635 57.7919 86.8549 57.7431 87.1336 57.8039C87.4124 57.8646 87.6569 58.0304 87.8167 58.2668C87.9764 58.5031 88.039 58.7919 87.9915 59.0732C87.944 59.3545 87.79 59.6067 87.5615 59.7775L85.6514 61.0779ZM93.2487 56.1373C92.0574 56.8581 90.6845 55.0069 92.0211 54.1689L93.9897 52.9411C94.2411 52.7861 94.5438 52.7373 94.8312 52.8055C95.1186 52.8736 95.3671 53.0531 95.5221 53.3045C95.6771 53.5559 95.7259 53.8586 95.6578 54.146C95.5896 54.4334 95.4101 54.6819 95.1587 54.837C94.4947 55.229 93.8568 55.6633 93.2487 56.1373ZM100.965 51.3276C100.836 51.4066 100.694 51.4589 100.545 51.4815C100.396 51.5041 100.244 51.4964 100.098 51.459C99.9524 51.4215 99.8156 51.355 99.696 51.2635C99.5765 51.172 99.4765 51.0574 99.4023 50.9264C99.328 50.7955 99.281 50.6508 99.2638 50.5012C99.2467 50.3516 99.26 50.2001 99.3027 50.0558C99.3455 49.9114 99.4168 49.7771 99.5126 49.661C99.6084 49.5448 99.7267 49.4491 99.8603 49.3797L101.881 48.2166C102.138 48.0828 102.438 48.0541 102.716 48.1364C102.994 48.2187 103.229 48.4057 103.372 48.6581C103.515 48.9104 103.555 49.2084 103.483 49.4894C103.411 49.7703 103.232 50.0123 102.985 50.1645L100.965 51.3276ZM108.974 46.8812C108.845 46.9602 108.703 47.0125 108.554 47.0351C108.405 47.0577 108.253 47.05 108.107 47.0126C107.961 46.9751 107.825 46.9087 107.705 46.8172C107.585 46.7257 107.486 46.611 107.411 46.4801C107.337 46.3491 107.29 46.2045 107.273 46.0549C107.256 45.9053 107.269 45.7538 107.312 45.6094C107.354 45.465 107.426 45.3308 107.522 45.2146C107.617 45.0984 107.736 45.0028 107.869 44.9333L109.882 43.7768C110.158 43.6322 110.48 43.603 110.777 43.6957C111.074 43.7884 111.322 43.9954 111.467 44.2711C111.611 44.5468 111.64 44.8687 111.548 45.1659C111.455 45.4631 111.248 45.7113 110.972 45.8559L108.974 46.8812ZM117.007 42.762C116.737 42.8658 116.437 42.8632 116.169 42.7547C115.901 42.6462 115.684 42.4399 115.562 42.1776C115.44 41.9152 115.423 41.6164 115.513 41.3415C115.603 41.0667 115.794 40.8362 116.048 40.6969L118.054 39.6651C118.191 39.5898 118.342 39.5434 118.498 39.5289C118.654 39.5144 118.811 39.532 118.959 39.5807C119.108 39.6294 119.245 39.7082 119.362 39.812C119.479 39.9158 119.573 40.0426 119.639 40.1844C119.705 40.3262 119.741 40.4801 119.745 40.6364C119.749 40.7927 119.72 40.9481 119.662 41.0931C119.603 41.238 119.515 41.3694 119.404 41.479C119.292 41.5886 119.159 41.6741 119.013 41.7302L117.007 42.762ZM125.189 38.8286C124.919 38.9324 124.62 38.9297 124.352 38.8212C124.084 38.7127 123.867 38.5065 123.745 38.2441C123.623 37.9818 123.606 37.6829 123.696 37.4081C123.786 37.1332 123.977 36.9027 124.23 36.7634L126.368 35.7457C126.647 35.6415 126.956 35.6494 127.229 35.7678C127.502 35.8863 127.719 36.106 127.834 36.3808C127.948 36.6557 127.952 36.9643 127.844 37.2418C127.736 37.5194 127.525 37.7443 127.255 37.8694L125.189 38.8286ZM133.528 35.3027C133.249 35.4069 132.94 35.399 132.667 35.2806C132.394 35.1621 132.177 34.9425 132.062 34.6676C131.947 34.3928 131.944 34.0841 132.052 33.8066C132.16 33.529 132.371 33.3041 132.641 33.179L134.765 32.2925C135.044 32.1883 135.353 32.1963 135.626 32.3147C135.899 32.4331 136.116 32.6528 136.231 32.9277C136.345 33.2025 136.349 33.5111 136.241 33.7887C136.133 34.0663 135.922 34.2912 135.651 34.4162L133.528 35.3027Z" fill="#333333"/>
</svg>
