<svg width="14" height="14" viewBox="0 0 14 14" fill="none" xmlns="http://www.w3.org/2000/svg">
<path d="M8.65487 12.1515H4.60454L3.99086 12.9596C3.76584 13.2424 3.9704 13.6666 4.35907 13.6666H8.9208C9.28901 13.6666 9.49357 13.2424 9.28901 12.9596L8.65487 12.1515ZM10.7414 0.333313C9.12536 0.333313 7.81616 1.62624 7.81616 3.2222V5.36362C7.81616 6.95958 9.12536 8.25251 10.7414 8.25251C12.3574 8.25251 13.6666 6.95958 13.6666 5.36362V3.2222C13.6462 1.62624 12.337 0.333313 10.7414 0.333313ZM12.6029 5.60604C12.4802 6.51513 11.6824 7.2222 10.7209 7.2222C9.67768 7.2222 8.83897 6.39392 8.83897 5.36362V3.2222C8.83897 2.2121 9.67768 1.36362 10.7209 1.36362C11.7642 1.36362 12.6029 2.1919 12.6029 3.2222C12.6234 3.38382 12.6234 5.44442 12.6029 5.60604Z" fill="#9D9D9D"/>
<path d="M9.47335 2.43431L12.2145 5.14138V4.29289L9.90293 2.01006C9.71883 2.11107 9.57563 2.27269 9.47335 2.43431ZM9.24834 3.22218V5.3636C9.24834 6.17168 9.92339 6.81814 10.7212 6.81814C11.4167 6.81814 12.0099 6.33329 12.1736 5.66663L9.3097 2.83835C9.26879 2.95956 9.24834 3.08077 9.24834 3.22218ZM10.7212 1.74744C10.5575 1.74744 10.4143 1.76764 10.2711 1.80804L12.194 3.70703V3.20198C12.2145 2.4141 11.5394 1.74744 10.7212 1.74744ZM10.2302 9.78784H9.41199C9.41199 10.1717 9.73928 10.4949 10.128 10.4949C10.2507 10.4949 10.3325 10.5757 10.3325 10.6969C10.3325 10.8181 10.2507 10.899 10.128 10.899C9.51427 10.899 9.00286 10.3939 9.00286 9.78784H7.89823C7.89823 10.1717 8.22553 10.4949 8.61419 10.4949C8.73693 10.4949 8.81876 10.5757 8.81876 10.6969C8.81876 10.8181 8.73693 10.899 8.61419 10.899C8.00051 10.899 7.4891 10.3939 7.4891 9.78784H6.38447C6.38447 10.1717 6.71177 10.4949 7.10044 10.4949C7.22317 10.4949 7.305 10.5757 7.305 10.6969C7.305 10.8181 7.22317 10.899 7.10044 10.899C6.48675 10.899 5.97535 10.3939 5.97535 9.78784H4.85026C4.85026 10.1717 5.17755 10.4949 5.56622 10.4949C5.68896 10.4949 5.77078 10.5757 5.77078 10.6969C5.77078 10.8181 5.68896 10.899 5.56622 10.899C4.95254 10.899 4.44113 10.3939 4.44113 9.78784H3.86836L3.45923 8.79794C3.15239 8.91915 3.09102 9.32319 3.21376 9.66663C3.25467 9.76764 3.21376 9.88885 3.09102 9.92925C2.98874 9.96966 2.866 9.92925 2.82509 9.80804C2.60007 9.26259 2.76372 8.63632 3.29558 8.4141L2.88646 7.404C2.60007 7.50501 2.49779 7.90905 2.64099 8.27269C2.6819 8.3737 2.64099 8.49491 2.51825 8.53531C2.41597 8.57572 2.29323 8.53532 2.25232 8.4141C2.0273 7.84845 2.23186 7.22218 2.72281 7.02016L2.31369 6.01006C2.0273 6.11107 1.92502 6.51511 2.06821 6.87875C2.10913 6.97976 2.06821 7.10097 1.94548 7.14138C1.92502 7.14138 1.90456 7.16158 1.86365 7.16158C1.78183 7.16158 1.7 7.12117 1.67955 7.04037C1.45453 6.47471 1.65909 5.84845 2.15004 5.64643L1.74091 4.63633C1.5159 4.73734 1.55681 5.18178 1.65909 5.44441C1.7 5.54542 1.65909 5.66663 1.53635 5.70703C1.43407 5.74744 1.31133 5.70703 1.27042 5.58582C1.06586 5.10097 1.10677 4.45451 1.57726 4.25249L1.27042 3.48481C1.1886 3.30299 1.00449 3.18178 0.820386 3.18178C0.493087 3.18178 0.268068 3.48481 0.349893 3.78784L2.10913 11C2.21141 11.4444 2.62053 11.7474 3.07057 11.7474H10.2507C10.8235 11.7474 11.294 11.2626 11.2326 10.6767C11.2121 10.1515 10.7416 9.78784 10.2302 9.78784Z" fill="#9D9D9D"/>
</svg>
