<svg width="16" height="15" viewBox="0 0 16 15" fill="none" xmlns="http://www.w3.org/2000/svg">
<path d="M7.12207 0.609788C7.50107 -0.0851534 8.49893 -0.0851552 8.87793 0.609786L10.5765 3.72424C10.7203 3.98797 10.9751 4.17307 11.2703 4.22836L14.7572 4.88134C15.5353 5.02704 15.8436 5.97606 15.2998 6.55126L12.8627 9.12907C12.6563 9.34736 12.559 9.64686 12.5976 9.94476L13.0541 13.4628C13.156 14.2478 12.3487 14.8343 11.6336 14.4948L8.42883 12.9736C8.15746 12.8447 7.84255 12.8447 7.57117 12.9736L4.3664 14.4948C3.65131 14.8343 2.84402 14.2478 2.94588 13.4628L3.40238 9.94476C3.44103 9.64686 3.34372 9.34736 3.13735 9.12907L0.700196 6.55126C0.156385 5.97606 0.464738 5.02704 1.24278 4.88134L4.72968 4.22836C5.02495 4.17307 5.27972 3.98797 5.42354 3.72424L7.12207 0.609788Z" fill="#E38800"/>
</svg>
