<svg width="16" height="16" viewBox="0 0 16 16" fill="none" xmlns="http://www.w3.org/2000/svg">
<path fill-rule="evenodd" clip-rule="evenodd" d="M8.00264 0.665344C3.96002 0.665344 0.664062 3.95664 0.664062 7.99859C0.664062 12.0405 3.96069 15.3358 8.00264 15.3358C12.0446 15.3358 15.3345 12.0405 15.3345 7.99859C15.3345 3.95664 12.0446 0.665344 8.00264 0.665344ZM8.00264 1.99866C8.79086 1.99734 9.5716 2.15165 10.3001 2.45272C11.0285 2.75379 11.6904 3.19572 12.2477 3.75314C12.805 4.31057 13.2468 4.97253 13.5477 5.70106C13.8486 6.42959 14.0027 7.21036 14.0012 7.99859C14.0028 8.78703 13.8488 9.56803 13.5479 10.2968C13.2471 11.0256 12.8054 11.6879 12.2481 12.2456C11.6909 12.8034 11.029 13.2457 10.3005 13.5472C9.57194 13.8487 8.79108 14.0034 8.00264 14.0025C7.21386 14.0035 6.43263 13.8488 5.70369 13.5475C4.97475 13.2461 4.31241 12.8039 3.7546 12.2462C3.19678 11.6885 2.75445 11.0263 2.45292 10.2974C2.15139 9.56856 1.99659 8.78737 1.99738 7.99859C1.99738 4.67729 4.68134 1.99866 8.00264 1.99866ZM7.99197 3.32264C7.90385 3.32351 7.81678 3.34183 7.73579 3.37656C7.6548 3.41129 7.5815 3.46172 7.52012 3.52496C7.45875 3.58819 7.41052 3.66297 7.37822 3.74496C7.34593 3.82695 7.33021 3.91453 7.33198 4.00264V7.99859C7.33235 8.08631 7.35003 8.1731 7.384 8.25398C7.41798 8.33486 7.46758 8.40824 7.52998 8.46991L10.1966 11.1379C10.2583 11.2014 10.332 11.2519 10.4134 11.2866C10.4949 11.3213 10.5824 11.3394 10.6709 11.3399C10.7594 11.3404 10.8471 11.3233 10.9289 11.2896C11.0108 11.2558 11.085 11.2061 11.1474 11.1433C11.2098 11.0806 11.2591 11.006 11.2924 10.924C11.3257 10.842 11.3423 10.7542 11.3413 10.6657C11.3403 10.5772 11.3217 10.4898 11.2865 10.4085C11.2514 10.3273 11.2004 10.2539 11.1366 10.1926L8.66663 7.72259V4.00264C8.66842 3.9133 8.65224 3.82451 8.61903 3.74155C8.58583 3.65859 8.53629 3.58315 8.47336 3.51971C8.41042 3.45628 8.33537 3.40615 8.25268 3.37229C8.16998 3.33844 8.08132 3.32155 7.99197 3.32264Z" fill="#9D9D9D"/>
</svg>
