<svg width="48" height="48" viewBox="0 0 48 48" fill="none" xmlns="http://www.w3.org/2000/svg">
<path d="M44 11.5999C42.4967 12.2521 40.9069 12.6833 39.28 12.8799C40.9963 11.8546 42.2825 10.2415 42.9 8.33993C41.2871 9.30006 39.5215 9.97652 37.68 10.3399C36.4491 9.00507 34.8099 8.11652 33.0196 7.81363C31.2293 7.51074 29.3891 7.81065 27.7876 8.66631C26.1861 9.52197 24.9139 10.885 24.1705 12.5416C23.4271 14.1982 23.2546 16.0547 23.68 17.8199C20.4189 17.655 17.2289 16.8058 14.3173 15.3277C11.4057 13.8495 8.83769 11.7753 6.78 9.23993C6.05828 10.5003 5.67904 11.9276 5.68 13.3799C5.67744 14.7287 6.00843 16.0572 6.64351 17.2471C7.27859 18.437 8.19804 19.4514 9.32 20.1999C8.01595 20.1644 6.73977 19.8145 5.6 19.1799V19.2799C5.60977 21.1697 6.27199 22.9981 7.47463 24.4559C8.67727 25.9136 10.3465 26.9112 12.2 27.2799C11.4865 27.4971 10.7457 27.6115 10 27.6199C9.48378 27.6139 8.96884 27.5671 8.46 27.4799C8.98782 29.1056 10.0092 30.5262 11.3821 31.5443C12.7551 32.5623 14.4112 33.127 16.12 33.1599C13.2344 35.4305 9.67177 36.6696 6 36.6799C5.33147 36.6821 4.66347 36.642 4 36.5599C7.74886 38.9804 12.1176 40.2654 16.58 40.2599C19.6594 40.2919 22.7143 39.71 25.5662 38.5481C28.4182 37.3862 31.01 35.6677 33.1904 33.4929C35.3708 31.3181 37.0959 28.7307 38.2651 25.8817C39.4343 23.0328 40.0241 19.9794 40 16.8999C40 16.5599 40 16.1999 40 15.8399C41.5694 14.6696 42.923 13.2348 44 11.5999Z" fill="#006579"/>
</svg>
