<svg width="27" height="20" viewBox="0 0 27 20" fill="none" xmlns="http://www.w3.org/2000/svg">
<path d="M21.5 7.33338C21.5 6.97976 21.3595 6.64062 21.1095 6.39057C20.8594 6.14052 20.5203 6.00004 20.1666 6.00004H4.71332L7.77998 2.94671C8.03105 2.69564 8.1721 2.35511 8.1721 2.00004C8.1721 1.64498 8.03105 1.30445 7.77998 1.05338C7.52891 0.802306 7.18838 0.661255 6.83332 0.661255C6.47825 0.661255 6.13772 0.802306 5.88665 1.05338L0.553316 6.38671C0.368306 6.57421 0.242977 6.81231 0.193145 7.07096C0.143313 7.32961 0.17121 7.59723 0.273316 7.84004C0.373343 8.08354 0.543206 8.29197 0.7615 8.43908C0.979794 8.58619 1.23675 8.6654 1.49998 8.66671H20.1666C20.5203 8.66671 20.8594 8.52623 21.1095 8.27619C21.3595 8.02614 21.5 7.687 21.5 7.33338ZM26.7266 12.16C26.6266 11.9166 26.4568 11.7081 26.2385 11.561C26.0202 11.4139 25.7632 11.3347 25.5 11.3334H6.83332C6.47969 11.3334 6.14056 11.4739 5.89051 11.7239C5.64046 11.974 5.49998 12.3131 5.49998 12.6667C5.49998 13.0203 5.64046 13.3595 5.89051 13.6095C6.14056 13.8596 6.47969 14 6.83332 14H22.2866L19.22 17.0534C19.095 17.1773 18.9958 17.3248 18.9281 17.4873C18.8604 17.6498 18.8256 17.824 18.8256 18C18.8256 18.1761 18.8604 18.3503 18.9281 18.5128C18.9958 18.6753 19.095 18.8228 19.22 18.9467C19.3439 19.0717 19.4914 19.1709 19.6539 19.2386C19.8164 19.3063 19.9906 19.3411 20.1666 19.3411C20.3427 19.3411 20.5169 19.3063 20.6794 19.2386C20.8419 19.1709 20.9894 19.0717 21.1133 18.9467L26.4466 13.6134C26.6317 13.4259 26.757 13.1878 26.8068 12.9291C26.8566 12.6705 26.8288 12.4029 26.7266 12.16Z" fill="black"/>
</svg>
