<svg width="46" height="32" viewBox="0 0 46 32" fill="none" xmlns="http://www.w3.org/2000/svg">
<path d="M45.0001 11.42C45.099 8.55727 44.4729 5.716 43.1801 3.15997C42.3029 2.11117 41.0855 1.40339 39.7401 1.15997C34.1751 0.655019 28.5871 0.448056 23.0001 0.539968C17.4333 0.443885 11.8655 0.644168 6.32005 1.13997C5.22369 1.3394 4.20909 1.85365 3.40005 2.61997C1.60005 4.27997 1.40005 7.11997 1.20005 9.51997C0.909878 13.8351 0.909878 18.1648 1.20005 22.48C1.25791 23.8308 1.45904 25.1716 1.80005 26.48C2.0412 27.4901 2.5291 28.4247 3.22005 29.2C4.03459 30.0069 5.07282 30.5504 6.20005 30.76C10.5119 31.2922 14.8565 31.5128 19.2001 31.42C26.2001 31.52 32.3401 31.42 39.6001 30.86C40.755 30.6633 41.8224 30.1191 42.6601 29.3C43.22 28.7398 43.6382 28.0542 43.8801 27.3C44.5953 25.1052 44.9466 22.8082 44.9201 20.5C45.0001 19.38 45.0001 12.62 45.0001 11.42ZM18.4801 21.7V9.31997L30.3201 15.54C27.0001 17.38 22.6201 19.46 18.4801 21.7Z" fill="#006579"/>
</svg>
